<svg width="140" height="140" viewBox="0 0 140 140" fill="none" xmlns="http://www.w3.org/2000/svg">
<rect width="140" height="140" fill="#F0EBFE"/>
<path d="M40 105H100C102.652 105 105.196 103.946 107.071 102.071C108.946 100.196 110 97.6522 110 95V58.3333C110 55.6812 108.946 53.1376 107.071 51.2623C105.196 49.3869 102.652 48.3333 100 48.3333H87C86.7969 48.3333 86.6008 48.2591 86.4486 48.1246C86.2964 47.9902 86.1985 47.8048 86.1733 47.6033L85.6933 43.76C85.3913 41.343 84.2175 39.1194 82.3922 37.5065C80.567 35.8936 78.2158 35.0023 75.78 35H64.22C61.7825 34.9999 59.4289 35.89 57.6015 37.5032C55.7742 39.1163 54.5989 41.3413 54.2967 43.76L53.8167 47.6033C53.7917 47.8031 53.6952 47.9872 53.5451 48.1214C53.395 48.2556 53.2013 48.3309 53 48.3333H40C37.3478 48.3333 34.8043 49.3869 32.9289 51.2623C31.0536 53.1376 30 55.6812 30 58.3333V95C30 97.6522 31.0536 100.196 32.9289 102.071C34.8043 103.946 37.3478 105 40 105ZM60.91 44.5867C61.0108 43.7801 61.4029 43.0381 62.0125 42.5003C62.622 41.9626 63.4071 41.6661 64.22 41.6667H75.78C76.5929 41.6661 77.378 41.9626 77.9875 42.5003C78.5971 43.0381 78.9892 43.7801 79.09 44.5867L79.44 47.4C79.4541 47.517 79.4433 47.6356 79.4082 47.7481C79.3732 47.8606 79.3146 47.9643 79.2365 48.0525C79.1584 48.1407 79.0625 48.2114 78.955 48.2598C78.8476 48.3082 78.7311 48.3332 78.6133 48.3333H61.3867C61.2688 48.3332 61.1524 48.3082 61.045 48.2598C60.9375 48.2114 60.8416 48.1407 60.7635 48.0525C60.6854 47.9643 60.6268 47.8606 60.5918 47.7481C60.5567 47.6356 60.5459 47.517 60.56 47.4L60.91 44.5867ZM47.5 66.6667C47.5 66.0036 47.7634 65.3677 48.2322 64.8989C48.7011 64.4301 49.337 64.1667 50 64.1667H90C90.663 64.1667 91.2989 64.4301 91.7678 64.8989C92.2366 65.3677 92.5 66.0036 92.5 66.6667V68.3333C92.5 68.9964 92.2366 69.6323 91.7678 70.1011C91.2989 70.5699 90.663 70.8333 90 70.8333H50C49.337 70.8333 48.7011 70.5699 48.2322 70.1011C47.7634 69.6323 47.5 68.9964 47.5 68.3333V66.6667ZM47.5 85C47.5 84.337 47.7634 83.7011 48.2322 83.2322C48.7011 82.7634 49.337 82.5 50 82.5H90C90.663 82.5 91.2989 82.7634 91.7678 83.2322C92.2366 83.7011 92.5 84.337 92.5 85V86.6667C92.5 87.3297 92.2366 87.9656 91.7678 88.4344C91.2989 88.9033 90.663 89.1667 90 89.1667H50C49.337 89.1667 48.7011 88.9033 48.2322 88.4344C47.7634 87.9656 47.5 87.3297 47.5 86.6667V85Z" fill="#7545FF"/>
</svg>
