<svg width="1440" height="805" viewBox="0 0 1440 805" fill="none" xmlns="http://www.w3.org/2000/svg">
<path d="M0 0H1440V805H0V0Z" fill="url(#paint0_linear)"/>
<mask id="mask0" mask-type="alpha" maskUnits="userSpaceOnUse" x="0" y="0" width="1440" height="805">
<path d="M0 0H1440V805H0V0Z" fill="url(#paint1_linear)"/>
</mask>
<g mask="url(#mask0)">
<rect x="-13" y="474" width="221" height="229" fill="url(#paint2_linear)"/>
<path d="M57 442H277V671H57V442Z" fill="url(#paint3_linear)"/>
<path d="M948 0H1513V661L1067.5 510.664L948 0Z" fill="url(#paint4_linear)"/>
<circle cx="937" cy="492" r="3" fill="#4541A4"/>
<circle cx="951" cy="492" r="3" fill="#4541A4"/>
<circle cx="965" cy="492" r="3" fill="#4541A4"/>
<circle cx="979" cy="492" r="3" fill="#4541A4"/>
<circle cx="993" cy="492" r="3" fill="#4541A4"/>
<circle cx="1007" cy="492" r="3" fill="#4541A4"/>
<circle cx="1021" cy="492" r="3" fill="#4541A4"/>
<circle cx="937" cy="506" r="3" fill="#4541A4"/>
<circle cx="951" cy="506" r="3" fill="#4541A4"/>
<circle cx="965" cy="506" r="3" fill="#4541A4"/>
<circle cx="979" cy="506" r="3" fill="#4541A4"/>
<circle cx="993" cy="506" r="3" fill="#4541A4"/>
<circle cx="1007" cy="506" r="3" fill="#4541A4"/>
<circle cx="1021" cy="506" r="3" fill="#4541A4"/>
<circle cx="937" cy="520" r="3" fill="#4541A4"/>
<circle cx="951" cy="520" r="3" fill="#4541A4"/>
<circle cx="965" cy="520" r="3" fill="#4541A4"/>
<circle cx="979" cy="520" r="3" fill="#4541A4"/>
<circle cx="993" cy="520" r="3" fill="#4541A4"/>
<circle cx="1007" cy="520" r="3" fill="#4541A4"/>
<circle cx="1021" cy="520" r="3" fill="#4541A4"/>
<circle cx="937" cy="534" r="3" fill="#4541A4"/>
<circle cx="951" cy="534" r="3" fill="#4541A4"/>
<circle cx="965" cy="534" r="3" fill="#4541A4"/>
<circle cx="979" cy="534" r="3" fill="#4541A4"/>
<circle cx="993" cy="534" r="3" fill="#4541A4"/>
<circle cx="1007" cy="534" r="3" fill="#4541A4"/>
<circle cx="1021" cy="534" r="3" fill="#4541A4"/>
<circle cx="937" cy="548" r="3" fill="#4541A4"/>
<circle cx="951" cy="548" r="3" fill="#4541A4"/>
<circle cx="965" cy="548" r="3" fill="#4541A4"/>
<circle cx="979" cy="548" r="3" fill="#4541A4"/>
<circle cx="993" cy="548" r="3" fill="#4541A4"/>
<circle cx="1007" cy="548" r="3" fill="#4541A4"/>
<circle cx="1021" cy="548" r="3" fill="#4541A4"/>
<circle cx="937" cy="562" r="3" fill="#4541A4"/>
<circle cx="951" cy="562" r="3" fill="#4541A4"/>
<circle cx="965" cy="562" r="3" fill="#4541A4"/>
<circle cx="979" cy="562" r="3" fill="#4541A4"/>
<circle cx="993" cy="562" r="3" fill="#4541A4"/>
<circle cx="1007" cy="562" r="3" fill="#4541A4"/>
<circle cx="1021" cy="562" r="3" fill="#4541A4"/>
<circle cx="937" cy="576" r="3" fill="#4541A4"/>
<circle cx="951" cy="576" r="3" fill="#4541A4"/>
<circle cx="965" cy="576" r="3" fill="#4541A4"/>
<circle cx="979" cy="576" r="3" fill="#4541A4"/>
<circle cx="993" cy="576" r="3" fill="#4541A4"/>
<circle cx="1007" cy="576" r="3" fill="#4541A4"/>
<circle cx="1021" cy="576" r="3" fill="#4541A4"/>
<circle cx="937" cy="590" r="3" fill="#4541A4"/>
<circle cx="951" cy="590" r="3" fill="#4541A4"/>
<circle cx="965" cy="590" r="3" fill="#4541A4"/>
<circle cx="979" cy="590" r="3" fill="#4541A4"/>
<circle cx="993" cy="590" r="3" fill="#4541A4"/>
<circle cx="1007" cy="590" r="3" fill="#4541A4"/>
<circle cx="1021" cy="590" r="3" fill="#4541A4"/>
<circle cx="937" cy="604" r="3" fill="#4541A4"/>
<circle cx="951" cy="604" r="3" fill="#4541A4"/>
<circle cx="965" cy="604" r="3" fill="#4541A4"/>
<circle cx="979" cy="604" r="3" fill="#4541A4"/>
<circle cx="993" cy="604" r="3" fill="#4541A4"/>
<circle cx="1007" cy="604" r="3" fill="#4541A4"/>
<circle cx="1021" cy="604" r="3" fill="#4541A4"/>
<circle cx="937" cy="618" r="3" fill="#4541A4"/>
<circle cx="951" cy="618" r="3" fill="#4541A4"/>
<circle cx="965" cy="618" r="3" fill="#4541A4"/>
<circle cx="979" cy="618" r="3" fill="#4541A4"/>
<circle cx="993" cy="618" r="3" fill="#4541A4"/>
<circle cx="1007" cy="618" r="3" fill="#4541A4"/>
<circle cx="1021" cy="618" r="3" fill="#4541A4"/>
<circle cx="937" cy="632" r="3" fill="#4541A4"/>
<circle cx="951" cy="632" r="3" fill="#4541A4"/>
<circle cx="965" cy="632" r="3" fill="#4541A4"/>
<circle cx="979" cy="632" r="3" fill="#4541A4"/>
<circle cx="993" cy="632" r="3" fill="#4541A4"/>
<circle cx="1007" cy="632" r="3" fill="#4541A4"/>
<circle cx="1021" cy="632" r="3" fill="#4541A4"/>
<circle cx="937" cy="646" r="3" fill="#4541A4"/>
<circle cx="951" cy="646" r="3" fill="#4541A4"/>
<circle cx="965" cy="646" r="3" fill="#4541A4"/>
<circle cx="979" cy="646" r="3" fill="#4541A4"/>
<circle cx="993" cy="646" r="3" fill="#4541A4"/>
<circle cx="1007" cy="646" r="3" fill="#4541A4"/>
<circle cx="1021" cy="646" r="3" fill="#4541A4"/>
<circle cx="1035" cy="492" r="3" fill="#4541A4"/>
<circle cx="1049" cy="492" r="3" fill="#4541A4"/>
<circle cx="1063" cy="492" r="3" fill="#4541A4"/>
<circle cx="1077" cy="492" r="3" fill="#4541A4"/>
<circle cx="1091" cy="492" r="3" fill="#4541A4"/>
<circle cx="1105" cy="492" r="3" fill="#4541A4"/>
<circle cx="1119" cy="492" r="3" fill="#4541A4"/>
<circle cx="1035" cy="506" r="3" fill="#4541A4"/>
<circle cx="1049" cy="506" r="3" fill="#4541A4"/>
<circle cx="1063" cy="506" r="3" fill="#4541A4"/>
<circle cx="1077" cy="506" r="3" fill="#4541A4"/>
<circle cx="1091" cy="506" r="3" fill="#4541A4"/>
<circle cx="1105" cy="506" r="3" fill="#4541A4"/>
<circle cx="1119" cy="506" r="3" fill="#4541A4"/>
<circle cx="1035" cy="520" r="3" fill="#4541A4"/>
<circle cx="1049" cy="520" r="3" fill="#4541A4"/>
<circle cx="1063" cy="520" r="3" fill="#4541A4"/>
<circle cx="1077" cy="520" r="3" fill="#4541A4"/>
<circle cx="1091" cy="520" r="3" fill="#4541A4"/>
<circle cx="1105" cy="520" r="3" fill="#4541A4"/>
<circle cx="1119" cy="520" r="3" fill="#4541A4"/>
<circle cx="1035" cy="534" r="3" fill="#4541A4"/>
<circle cx="1049" cy="534" r="3" fill="#4541A4"/>
<circle cx="1063" cy="534" r="3" fill="#4541A4"/>
<circle cx="1077" cy="534" r="3" fill="#4541A4"/>
<circle cx="1091" cy="534" r="3" fill="#4541A4"/>
<circle cx="1105" cy="534" r="3" fill="#4541A4"/>
<circle cx="1119" cy="534" r="3" fill="#4541A4"/>
<circle cx="1035" cy="548" r="3" fill="#4541A4"/>
<circle cx="1049" cy="548" r="3" fill="#4541A4"/>
<circle cx="1063" cy="548" r="3" fill="#4541A4"/>
<circle cx="1077" cy="548" r="3" fill="#4541A4"/>
<circle cx="1091" cy="548" r="3" fill="#4541A4"/>
<circle cx="1105" cy="548" r="3" fill="#4541A4"/>
<circle cx="1119" cy="548" r="3" fill="#4541A4"/>
<circle cx="1035" cy="562" r="3" fill="#4541A4"/>
<circle cx="1049" cy="562" r="3" fill="#4541A4"/>
<circle cx="1063" cy="562" r="3" fill="#4541A4"/>
<circle cx="1077" cy="562" r="3" fill="#4541A4"/>
<circle cx="1091" cy="562" r="3" fill="#4541A4"/>
<circle cx="1105" cy="562" r="3" fill="#4541A4"/>
<circle cx="1119" cy="562" r="3" fill="#4541A4"/>
<circle cx="1035" cy="576" r="3" fill="#4541A4"/>
<circle cx="1049" cy="576" r="3" fill="#4541A4"/>
<circle cx="1063" cy="576" r="3" fill="#4541A4"/>
<circle cx="1077" cy="576" r="3" fill="#4541A4"/>
<circle cx="1091" cy="576" r="3" fill="#4541A4"/>
<circle cx="1105" cy="576" r="3" fill="#4541A4"/>
<circle cx="1119" cy="576" r="3" fill="#4541A4"/>
<circle cx="1035" cy="590" r="3" fill="#4541A4"/>
<circle cx="1049" cy="590" r="3" fill="#4541A4"/>
<circle cx="1063" cy="590" r="3" fill="#4541A4"/>
<circle cx="1077" cy="590" r="3" fill="#4541A4"/>
<circle cx="1091" cy="590" r="3" fill="#4541A4"/>
<circle cx="1105" cy="590" r="3" fill="#4541A4"/>
<circle cx="1119" cy="590" r="3" fill="#4541A4"/>
<circle cx="1035" cy="604" r="3" fill="#4541A4"/>
<circle cx="1049" cy="604" r="3" fill="#4541A4"/>
<circle cx="1063" cy="604" r="3" fill="#4541A4"/>
<circle cx="1077" cy="604" r="3" fill="#4541A4"/>
<circle cx="1091" cy="604" r="3" fill="#4541A4"/>
<circle cx="1105" cy="604" r="3" fill="#4541A4"/>
<circle cx="1119" cy="604" r="3" fill="#4541A4"/>
<circle cx="1035" cy="618" r="3" fill="#4541A4"/>
<circle cx="1049" cy="618" r="3" fill="#4541A4"/>
<circle cx="1063" cy="618" r="3" fill="#4541A4"/>
<circle cx="1077" cy="618" r="3" fill="#4541A4"/>
<circle cx="1091" cy="618" r="3" fill="#4541A4"/>
<circle cx="1105" cy="618" r="3" fill="#4541A4"/>
<circle cx="1119" cy="618" r="3" fill="#4541A4"/>
<circle cx="1035" cy="632" r="3" fill="#4541A4"/>
<circle cx="1049" cy="632" r="3" fill="#4541A4"/>
<circle cx="1063" cy="632" r="3" fill="#4541A4"/>
<circle cx="1077" cy="632" r="3" fill="#4541A4"/>
<circle cx="1091" cy="632" r="3" fill="#4541A4"/>
<circle cx="1105" cy="632" r="3" fill="#4541A4"/>
<circle cx="1119" cy="632" r="3" fill="#4541A4"/>
<circle cx="1035" cy="646" r="3" fill="#4541A4"/>
<circle cx="1049" cy="646" r="3" fill="#4541A4"/>
<circle cx="1063" cy="646" r="3" fill="#4541A4"/>
<circle cx="1077" cy="646" r="3" fill="#4541A4"/>
<circle cx="1091" cy="646" r="3" fill="#4541A4"/>
<circle cx="1105" cy="646" r="3" fill="#4541A4"/>
<circle cx="1119" cy="646" r="3" fill="#4541A4"/>
<circle cx="105" cy="189" r="3" fill="#4541A4"/>
<circle cx="119" cy="189" r="3" fill="#4541A4"/>
<circle cx="133" cy="189" r="3" fill="#4541A4"/>
<circle cx="147" cy="189" r="3" fill="#4541A4"/>
<circle cx="161" cy="189" r="3" fill="#4541A4"/>
<circle cx="175" cy="189" r="3" fill="#4541A4"/>
<circle cx="189" cy="189" r="3" fill="#4541A4"/>
<circle cx="105" cy="203" r="3" fill="#4541A4"/>
<circle cx="119" cy="203" r="3" fill="#4541A4"/>
<circle cx="133" cy="203" r="3" fill="#4541A4"/>
<circle cx="147" cy="203" r="3" fill="#4541A4"/>
<circle cx="161" cy="203" r="3" fill="#4541A4"/>
<circle cx="175" cy="203" r="3" fill="#4541A4"/>
<circle cx="189" cy="203" r="3" fill="#4541A4"/>
<circle cx="105" cy="217" r="3" fill="#4541A4"/>
<circle cx="119" cy="217" r="3" fill="#4541A4"/>
<circle cx="133" cy="217" r="3" fill="#4541A4"/>
<circle cx="147" cy="217" r="3" fill="#4541A4"/>
<circle cx="161" cy="217" r="3" fill="#4541A4"/>
<circle cx="175" cy="217" r="3" fill="#4541A4"/>
<circle cx="189" cy="217" r="3" fill="#4541A4"/>
<circle cx="105" cy="231" r="3" fill="#4541A4"/>
<circle cx="119" cy="231" r="3" fill="#4541A4"/>
<circle cx="133" cy="231" r="3" fill="#4541A4"/>
<circle cx="147" cy="231" r="3" fill="#4541A4"/>
<circle cx="161" cy="231" r="3" fill="#4541A4"/>
<circle cx="175" cy="231" r="3" fill="#4541A4"/>
<circle cx="189" cy="231" r="3" fill="#4541A4"/>
<circle cx="105" cy="245" r="3" fill="#4541A4"/>
<circle cx="119" cy="245" r="3" fill="#4541A4"/>
<circle cx="133" cy="245" r="3" fill="#4541A4"/>
<circle cx="147" cy="245" r="3" fill="#4541A4"/>
<circle cx="161" cy="245" r="3" fill="#4541A4"/>
<circle cx="175" cy="245" r="3" fill="#4541A4"/>
<circle cx="189" cy="245" r="3" fill="#4541A4"/>
<circle cx="105" cy="259" r="3" fill="#4541A4"/>
<circle cx="119" cy="259" r="3" fill="#4541A4"/>
<circle cx="133" cy="259" r="3" fill="#4541A4"/>
<circle cx="147" cy="259" r="3" fill="#4541A4"/>
<circle cx="161" cy="259" r="3" fill="#4541A4"/>
<circle cx="175" cy="259" r="3" fill="#4541A4"/>
<circle cx="189" cy="259" r="3" fill="#4541A4"/>
<circle cx="105" cy="273" r="3" fill="#4541A4"/>
<circle cx="119" cy="273" r="3" fill="#4541A4"/>
<circle cx="133" cy="273" r="3" fill="#4541A4"/>
<circle cx="147" cy="273" r="3" fill="#4541A4"/>
<circle cx="161" cy="273" r="3" fill="#4541A4"/>
<circle cx="175" cy="273" r="3" fill="#4541A4"/>
<circle cx="189" cy="273" r="3" fill="#4541A4"/>
<circle cx="105" cy="287" r="3" fill="#4541A4"/>
<circle cx="119" cy="287" r="3" fill="#4541A4"/>
<circle cx="133" cy="287" r="3" fill="#4541A4"/>
<circle cx="147" cy="287" r="3" fill="#4541A4"/>
<circle cx="161" cy="287" r="3" fill="#4541A4"/>
<circle cx="175" cy="287" r="3" fill="#4541A4"/>
<circle cx="189" cy="287" r="3" fill="#4541A4"/>
<circle cx="105" cy="301" r="3" fill="#4541A4"/>
<circle cx="119" cy="301" r="3" fill="#4541A4"/>
<circle cx="133" cy="301" r="3" fill="#4541A4"/>
<circle cx="147" cy="301" r="3" fill="#4541A4"/>
<circle cx="161" cy="301" r="3" fill="#4541A4"/>
<circle cx="175" cy="301" r="3" fill="#4541A4"/>
<circle cx="189" cy="301" r="3" fill="#4541A4"/>
<circle cx="105" cy="315" r="3" fill="#4541A4"/>
<circle cx="119" cy="315" r="3" fill="#4541A4"/>
<circle cx="133" cy="315" r="3" fill="#4541A4"/>
<circle cx="147" cy="315" r="3" fill="#4541A4"/>
<circle cx="161" cy="315" r="3" fill="#4541A4"/>
<circle cx="175" cy="315" r="3" fill="#4541A4"/>
<circle cx="189" cy="315" r="3" fill="#4541A4"/>
<circle cx="105" cy="329" r="3" fill="#4541A4"/>
<circle cx="119" cy="329" r="3" fill="#4541A4"/>
<circle cx="133" cy="329" r="3" fill="#4541A4"/>
<circle cx="147" cy="329" r="3" fill="#4541A4"/>
<circle cx="161" cy="329" r="3" fill="#4541A4"/>
<circle cx="175" cy="329" r="3" fill="#4541A4"/>
<circle cx="189" cy="329" r="3" fill="#4541A4"/>
<circle cx="105" cy="343" r="3" fill="#4541A4"/>
<circle cx="119" cy="343" r="3" fill="#4541A4"/>
<circle cx="133" cy="343" r="3" fill="#4541A4"/>
<circle cx="147" cy="343" r="3" fill="#4541A4"/>
<circle cx="161" cy="343" r="3" fill="#4541A4"/>
<circle cx="175" cy="343" r="3" fill="#4541A4"/>
<circle cx="189" cy="343" r="3" fill="#4541A4"/>
<circle cx="203" cy="189" r="3" fill="#4541A4"/>
<circle cx="217" cy="189" r="3" fill="#4541A4"/>
<circle cx="231" cy="189" r="3" fill="#4541A4"/>
<circle cx="245" cy="189" r="3" fill="#4541A4"/>
<circle cx="259" cy="189" r="3" fill="#4541A4"/>
<circle cx="273" cy="189" r="3" fill="#4541A4"/>
<circle cx="287" cy="189" r="3" fill="#4541A4"/>
<circle cx="203" cy="203" r="3" fill="#4541A4"/>
<circle cx="217" cy="203" r="3" fill="#4541A4"/>
<circle cx="231" cy="203" r="3" fill="#4541A4"/>
<circle cx="245" cy="203" r="3" fill="#4541A4"/>
<circle cx="259" cy="203" r="3" fill="#4541A4"/>
<circle cx="273" cy="203" r="3" fill="#4541A4"/>
<circle cx="287" cy="203" r="3" fill="#4541A4"/>
<circle cx="203" cy="217" r="3" fill="#4541A4"/>
<circle cx="217" cy="217" r="3" fill="#4541A4"/>
<circle cx="231" cy="217" r="3" fill="#4541A4"/>
<circle cx="245" cy="217" r="3" fill="#4541A4"/>
<circle cx="259" cy="217" r="3" fill="#4541A4"/>
<circle cx="273" cy="217" r="3" fill="#4541A4"/>
<circle cx="287" cy="217" r="3" fill="#4541A4"/>
<circle cx="203" cy="231" r="3" fill="#4541A4"/>
<circle cx="217" cy="231" r="3" fill="#4541A4"/>
<circle cx="231" cy="231" r="3" fill="#4541A4"/>
<circle cx="245" cy="231" r="3" fill="#4541A4"/>
<circle cx="259" cy="231" r="3" fill="#4541A4"/>
<circle cx="273" cy="231" r="3" fill="#4541A4"/>
<circle cx="287" cy="231" r="3" fill="#4541A4"/>
<circle cx="203" cy="245" r="3" fill="#4541A4"/>
<circle cx="217" cy="245" r="3" fill="#4541A4"/>
<circle cx="231" cy="245" r="3" fill="#4541A4"/>
<circle cx="245" cy="245" r="3" fill="#4541A4"/>
<circle cx="259" cy="245" r="3" fill="#4541A4"/>
<circle cx="273" cy="245" r="3" fill="#4541A4"/>
<circle cx="287" cy="245" r="3" fill="#4541A4"/>
<circle cx="203" cy="259" r="3" fill="#4541A4"/>
<circle cx="217" cy="259" r="3" fill="#4541A4"/>
<circle cx="231" cy="259" r="3" fill="#4541A4"/>
<circle cx="245" cy="259" r="3" fill="#4541A4"/>
<circle cx="259" cy="259" r="3" fill="#4541A4"/>
<circle cx="273" cy="259" r="3" fill="#4541A4"/>
<circle cx="287" cy="259" r="3" fill="#4541A4"/>
<circle cx="203" cy="273" r="3" fill="#4541A4"/>
<circle cx="217" cy="273" r="3" fill="#4541A4"/>
<circle cx="231" cy="273" r="3" fill="#4541A4"/>
<circle cx="245" cy="273" r="3" fill="#4541A4"/>
<circle cx="259" cy="273" r="3" fill="#4541A4"/>
<circle cx="273" cy="273" r="3" fill="#4541A4"/>
<circle cx="287" cy="273" r="3" fill="#4541A4"/>
<circle cx="203" cy="287" r="3" fill="#4541A4"/>
<circle cx="217" cy="287" r="3" fill="#4541A4"/>
<circle cx="231" cy="287" r="3" fill="#4541A4"/>
<circle cx="245" cy="287" r="3" fill="#4541A4"/>
<circle cx="259" cy="287" r="3" fill="#4541A4"/>
<circle cx="273" cy="287" r="3" fill="#4541A4"/>
<circle cx="287" cy="287" r="3" fill="#4541A4"/>
<circle cx="203" cy="301" r="3" fill="#4541A4"/>
<circle cx="217" cy="301" r="3" fill="#4541A4"/>
<circle cx="231" cy="301" r="3" fill="#4541A4"/>
<circle cx="245" cy="301" r="3" fill="#4541A4"/>
<circle cx="259" cy="301" r="3" fill="#4541A4"/>
<circle cx="273" cy="301" r="3" fill="#4541A4"/>
<circle cx="287" cy="301" r="3" fill="#4541A4"/>
<circle cx="203" cy="315" r="3" fill="#4541A4"/>
<circle cx="217" cy="315" r="3" fill="#4541A4"/>
<circle cx="231" cy="315" r="3" fill="#4541A4"/>
<circle cx="245" cy="315" r="3" fill="#4541A4"/>
<circle cx="259" cy="315" r="3" fill="#4541A4"/>
<circle cx="273" cy="315" r="3" fill="#4541A4"/>
<circle cx="287" cy="315" r="3" fill="#4541A4"/>
<circle cx="203" cy="329" r="3" fill="#4541A4"/>
<circle cx="217" cy="329" r="3" fill="#4541A4"/>
<circle cx="231" cy="329" r="3" fill="#4541A4"/>
<circle cx="245" cy="329" r="3" fill="#4541A4"/>
<circle cx="259" cy="329" r="3" fill="#4541A4"/>
<circle cx="273" cy="329" r="3" fill="#4541A4"/>
<circle cx="287" cy="329" r="3" fill="#4541A4"/>
<circle cx="203" cy="343" r="3" fill="#4541A4"/>
<circle cx="217" cy="343" r="3" fill="#4541A4"/>
<circle cx="231" cy="343" r="3" fill="#4541A4"/>
<circle cx="245" cy="343" r="3" fill="#4541A4"/>
<circle cx="259" cy="343" r="3" fill="#4541A4"/>
<circle cx="273" cy="343" r="3" fill="#4541A4"/>
<circle cx="287" cy="343" r="3" fill="#4541A4"/>
<path d="M614 848H900L614 553V848Z" fill="url(#paint5_linear)"/>
<path d="M1493 478H1207L1493 773V478Z" fill="url(#paint6_linear)"/>
<path d="M1526 380H1240L1526 675V380Z" fill="url(#paint7_linear)"/>
</g>
<defs>
<linearGradient id="paint0_linear" x1="720" y1="0" x2="720" y2="1088.35" gradientUnits="userSpaceOnUse">
<stop stop-color="#1C1B7E"/>
<stop offset="1" stop-color="#1E1079"/>
</linearGradient>
<linearGradient id="paint1_linear" x1="720" y1="0" x2="720" y2="1088.35" gradientUnits="userSpaceOnUse">
<stop stop-color="#1C1B7E"/>
<stop offset="1" stop-color="#1E1079"/>
</linearGradient>
<linearGradient id="paint2_linear" x1="97.5" y1="474" x2="97.5" y2="703" gradientUnits="userSpaceOnUse">
<stop stop-color="#5652CC"/>
<stop offset="1" stop-color="#32279B"/>
</linearGradient>
<linearGradient id="paint3_linear" x1="167" y1="411" x2="167" y2="640" gradientUnits="userSpaceOnUse">
<stop stop-color="#282599"/>
<stop offset="1" stop-color="#261B86"/>
</linearGradient>
<linearGradient id="paint4_linear" x1="1245" y1="0" x2="1245" y2="661" gradientUnits="userSpaceOnUse">
<stop stop-color="#2D29A3"/>
<stop offset="1" stop-color="#261B86" stop-opacity="0"/>
</linearGradient>
<linearGradient id="paint5_linear" x1="757" y1="553" x2="757" y2="848" gradientUnits="userSpaceOnUse">
<stop stop-color="#282599"/>
<stop offset="1" stop-color="#261B86"/>
</linearGradient>
<linearGradient id="paint6_linear" x1="1350" y1="773" x2="1350" y2="478" gradientUnits="userSpaceOnUse">
<stop stop-color="#282599"/>
<stop offset="1" stop-color="#261B86"/>
</linearGradient>
<linearGradient id="paint7_linear" x1="1383" y1="675" x2="1383" y2="380" gradientUnits="userSpaceOnUse">
<stop stop-color="#413EB4"/>
<stop offset="1" stop-color="#453BA4"/>
</linearGradient>
</defs>
</svg>
