<svg width="1220" height="404" viewBox="0 0 1220 404" fill="none" xmlns="http://www.w3.org/2000/svg">
<rect width="1220" height="404" fill="url(#paint0_linear)"/>
<mask id="mask0" mask-type="alpha" maskUnits="userSpaceOnUse" x="0" y="0" width="1220" height="404">
<rect width="1220" height="404" fill="url(#paint1_linear)"/>
</mask>
<g mask="url(#mask0)">
<rect x="-69.5" y="72.0234" width="285" height="295" fill="url(#paint2_linear)"/>
<rect x="499.5" y="-181.023" width="285" height="295" fill="url(#paint3_linear)"/>
<circle cx="-1" cy="212" r="3" fill="#4541A4"/>
<circle cx="13" cy="212" r="3" fill="#4541A4"/>
<circle cx="27" cy="212" r="3" fill="#4541A4"/>
<circle cx="41" cy="212" r="3" fill="#4541A4"/>
<circle cx="55" cy="212" r="3" fill="#4541A4"/>
<circle cx="69" cy="212" r="3" fill="#4541A4"/>
<circle cx="-1" cy="226" r="3" fill="#4541A4"/>
<circle cx="13" cy="226" r="3" fill="#4541A4"/>
<circle cx="27" cy="226" r="3" fill="#4541A4"/>
<circle cx="41" cy="226" r="3" fill="#4541A4"/>
<circle cx="55" cy="226" r="3" fill="#4541A4"/>
<circle cx="69" cy="226" r="3" fill="#4541A4"/>
<circle cx="-1" cy="240" r="3" fill="#4541A4"/>
<circle cx="13" cy="240" r="3" fill="#4541A4"/>
<circle cx="27" cy="240" r="3" fill="#4541A4"/>
<circle cx="41" cy="240" r="3" fill="#4541A4"/>
<circle cx="55" cy="240" r="3" fill="#4541A4"/>
<circle cx="69" cy="240" r="3" fill="#4541A4"/>
<circle cx="-1" cy="254" r="3" fill="#4541A4"/>
<circle cx="13" cy="254" r="3" fill="#4541A4"/>
<circle cx="27" cy="254" r="3" fill="#4541A4"/>
<circle cx="41" cy="254" r="3" fill="#4541A4"/>
<circle cx="55" cy="254" r="3" fill="#4541A4"/>
<circle cx="69" cy="254" r="3" fill="#4541A4"/>
<circle cx="-1" cy="268" r="3" fill="#4541A4"/>
<circle cx="13" cy="268" r="3" fill="#4541A4"/>
<circle cx="27" cy="268" r="3" fill="#4541A4"/>
<circle cx="41" cy="268" r="3" fill="#4541A4"/>
<circle cx="55" cy="268" r="3" fill="#4541A4"/>
<circle cx="69" cy="268" r="3" fill="#4541A4"/>
<circle cx="-1" cy="282" r="3" fill="#4541A4"/>
<circle cx="13" cy="282" r="3" fill="#4541A4"/>
<circle cx="27" cy="282" r="3" fill="#4541A4"/>
<circle cx="41" cy="282" r="3" fill="#4541A4"/>
<circle cx="55" cy="282" r="3" fill="#4541A4"/>
<circle cx="69" cy="282" r="3" fill="#4541A4"/>
<circle cx="-1" cy="296" r="3" fill="#4541A4"/>
<circle cx="13" cy="296" r="3" fill="#4541A4"/>
<circle cx="27" cy="296" r="3" fill="#4541A4"/>
<circle cx="41" cy="296" r="3" fill="#4541A4"/>
<circle cx="55" cy="296" r="3" fill="#4541A4"/>
<circle cx="69" cy="296" r="3" fill="#4541A4"/>
<circle cx="-1" cy="310" r="3" fill="#4541A4"/>
<circle cx="13" cy="310" r="3" fill="#4541A4"/>
<circle cx="27" cy="310" r="3" fill="#4541A4"/>
<circle cx="41" cy="310" r="3" fill="#4541A4"/>
<circle cx="55" cy="310" r="3" fill="#4541A4"/>
<circle cx="69" cy="310" r="3" fill="#4541A4"/>
<circle cx="-1" cy="324" r="3" fill="#4541A4"/>
<circle cx="13" cy="324" r="3" fill="#4541A4"/>
<circle cx="27" cy="324" r="3" fill="#4541A4"/>
<circle cx="41" cy="324" r="3" fill="#4541A4"/>
<circle cx="55" cy="324" r="3" fill="#4541A4"/>
<circle cx="69" cy="324" r="3" fill="#4541A4"/>
<circle cx="-1" cy="338" r="3" fill="#4541A4"/>
<circle cx="13" cy="338" r="3" fill="#4541A4"/>
<circle cx="27" cy="338" r="3" fill="#4541A4"/>
<circle cx="41" cy="338" r="3" fill="#4541A4"/>
<circle cx="55" cy="338" r="3" fill="#4541A4"/>
<circle cx="69" cy="338" r="3" fill="#4541A4"/>
<circle cx="-1" cy="352" r="3" fill="#4541A4"/>
<circle cx="13" cy="352" r="3" fill="#4541A4"/>
<circle cx="27" cy="352" r="3" fill="#4541A4"/>
<circle cx="41" cy="352" r="3" fill="#4541A4"/>
<circle cx="55" cy="352" r="3" fill="#4541A4"/>
<circle cx="69" cy="352" r="3" fill="#4541A4"/>
<circle cx="-1" cy="366" r="3" fill="#4541A4"/>
<circle cx="13" cy="366" r="3" fill="#4541A4"/>
<circle cx="27" cy="366" r="3" fill="#4541A4"/>
<circle cx="41" cy="366" r="3" fill="#4541A4"/>
<circle cx="55" cy="366" r="3" fill="#4541A4"/>
<circle cx="69" cy="366" r="3" fill="#4541A4"/>
<circle cx="83" cy="212" r="3" fill="#4541A4"/>
<circle cx="97" cy="212" r="3" fill="#4541A4"/>
<circle cx="111" cy="212" r="3" fill="#4541A4"/>
<circle cx="125" cy="212" r="3" fill="#4541A4"/>
<circle cx="139" cy="212" r="3" fill="#4541A4"/>
<circle cx="153" cy="212" r="3" fill="#4541A4"/>
<circle cx="167" cy="212" r="3" fill="#4541A4"/>
<circle cx="83" cy="226" r="3" fill="#4541A4"/>
<circle cx="97" cy="226" r="3" fill="#4541A4"/>
<circle cx="111" cy="226" r="3" fill="#4541A4"/>
<circle cx="125" cy="226" r="3" fill="#4541A4"/>
<circle cx="139" cy="226" r="3" fill="#4541A4"/>
<circle cx="153" cy="226" r="3" fill="#4541A4"/>
<circle cx="167" cy="226" r="3" fill="#4541A4"/>
<circle cx="83" cy="240" r="3" fill="#4541A4"/>
<circle cx="97" cy="240" r="3" fill="#4541A4"/>
<circle cx="111" cy="240" r="3" fill="#4541A4"/>
<circle cx="125" cy="240" r="3" fill="#4541A4"/>
<circle cx="139" cy="240" r="3" fill="#4541A4"/>
<circle cx="153" cy="240" r="3" fill="#4541A4"/>
<circle cx="167" cy="240" r="3" fill="#4541A4"/>
<circle cx="83" cy="254" r="3" fill="#4541A4"/>
<circle cx="97" cy="254" r="3" fill="#4541A4"/>
<circle cx="111" cy="254" r="3" fill="#4541A4"/>
<circle cx="125" cy="254" r="3" fill="#4541A4"/>
<circle cx="139" cy="254" r="3" fill="#4541A4"/>
<circle cx="153" cy="254" r="3" fill="#4541A4"/>
<circle cx="167" cy="254" r="3" fill="#4541A4"/>
<circle cx="83" cy="268" r="3" fill="#4541A4"/>
<circle cx="97" cy="268" r="3" fill="#4541A4"/>
<circle cx="111" cy="268" r="3" fill="#4541A4"/>
<circle cx="125" cy="268" r="3" fill="#4541A4"/>
<circle cx="139" cy="268" r="3" fill="#4541A4"/>
<circle cx="153" cy="268" r="3" fill="#4541A4"/>
<circle cx="167" cy="268" r="3" fill="#4541A4"/>
<circle cx="83" cy="282" r="3" fill="#4541A4"/>
<circle cx="97" cy="282" r="3" fill="#4541A4"/>
<circle cx="111" cy="282" r="3" fill="#4541A4"/>
<circle cx="125" cy="282" r="3" fill="#4541A4"/>
<circle cx="139" cy="282" r="3" fill="#4541A4"/>
<circle cx="153" cy="282" r="3" fill="#4541A4"/>
<circle cx="167" cy="282" r="3" fill="#4541A4"/>
<circle cx="83" cy="296" r="3" fill="#4541A4"/>
<circle cx="97" cy="296" r="3" fill="#4541A4"/>
<circle cx="111" cy="296" r="3" fill="#4541A4"/>
<circle cx="125" cy="296" r="3" fill="#4541A4"/>
<circle cx="139" cy="296" r="3" fill="#4541A4"/>
<circle cx="153" cy="296" r="3" fill="#4541A4"/>
<circle cx="167" cy="296" r="3" fill="#4541A4"/>
<circle cx="83" cy="310" r="3" fill="#4541A4"/>
<circle cx="97" cy="310" r="3" fill="#4541A4"/>
<circle cx="111" cy="310" r="3" fill="#4541A4"/>
<circle cx="125" cy="310" r="3" fill="#4541A4"/>
<circle cx="139" cy="310" r="3" fill="#4541A4"/>
<circle cx="153" cy="310" r="3" fill="#4541A4"/>
<circle cx="167" cy="310" r="3" fill="#4541A4"/>
<circle cx="83" cy="324" r="3" fill="#4541A4"/>
<circle cx="97" cy="324" r="3" fill="#4541A4"/>
<circle cx="111" cy="324" r="3" fill="#4541A4"/>
<circle cx="125" cy="324" r="3" fill="#4541A4"/>
<circle cx="139" cy="324" r="3" fill="#4541A4"/>
<circle cx="153" cy="324" r="3" fill="#4541A4"/>
<circle cx="167" cy="324" r="3" fill="#4541A4"/>
<circle cx="83" cy="338" r="3" fill="#4541A4"/>
<circle cx="97" cy="338" r="3" fill="#4541A4"/>
<circle cx="111" cy="338" r="3" fill="#4541A4"/>
<circle cx="125" cy="338" r="3" fill="#4541A4"/>
<circle cx="139" cy="338" r="3" fill="#4541A4"/>
<circle cx="153" cy="338" r="3" fill="#4541A4"/>
<circle cx="167" cy="338" r="3" fill="#4541A4"/>
<circle cx="83" cy="352" r="3" fill="#4541A4"/>
<circle cx="97" cy="352" r="3" fill="#4541A4"/>
<circle cx="111" cy="352" r="3" fill="#4541A4"/>
<circle cx="125" cy="352" r="3" fill="#4541A4"/>
<circle cx="139" cy="352" r="3" fill="#4541A4"/>
<circle cx="153" cy="352" r="3" fill="#4541A4"/>
<circle cx="167" cy="352" r="3" fill="#4541A4"/>
<circle cx="83" cy="366" r="3" fill="#4541A4"/>
<circle cx="97" cy="366" r="3" fill="#4541A4"/>
<circle cx="111" cy="366" r="3" fill="#4541A4"/>
<circle cx="125" cy="366" r="3" fill="#4541A4"/>
<circle cx="139" cy="366" r="3" fill="#4541A4"/>
<circle cx="153" cy="366" r="3" fill="#4541A4"/>
<circle cx="167" cy="366" r="3" fill="#4541A4"/>
<rect x="978" y="124" width="285" height="295" fill="url(#paint4_linear)"/>
<path d="M902.5 219H1157.5L902.5 482V219Z" fill="url(#paint5_linear)"/>
<path d="M658.653 431H403.653L658.653 168V431Z" fill="url(#paint6_linear)"/>
<circle cx="849.807" cy="265" r="3" fill="#BDA6FF"/>
<circle cx="863.807" cy="265" r="3" fill="#BDA6FF"/>
<circle cx="877.807" cy="265" r="3" fill="#BDA6FF"/>
<circle cx="849.807" cy="279" r="3" fill="#BDA6FF"/>
<circle cx="863.807" cy="279" r="3" fill="#BDA6FF"/>
<circle cx="877.807" cy="279" r="3" fill="#BDA6FF"/>
<circle cx="891.807" cy="279" r="3" fill="#BDA6FF"/>
<circle cx="905.807" cy="279" r="3" fill="#BDA6FF"/>
<circle cx="849.807" cy="293" r="3" fill="#BDA6FF"/>
<circle cx="863.807" cy="293" r="3" fill="#BDA6FF"/>
<circle cx="877.807" cy="293" r="3" fill="#BDA6FF"/>
<circle cx="891.807" cy="293" r="3" fill="#BDA6FF"/>
<circle cx="905.807" cy="293" r="3" fill="#BDA6FF"/>
<circle cx="919.807" cy="293" r="3" fill="#BDA6FF"/>
<circle cx="933.807" cy="293" r="3" fill="#BDA6FF"/>
</g>
<defs>
<linearGradient id="paint0_linear" x1="610" y1="0" x2="610" y2="389.462" gradientUnits="userSpaceOnUse">
<stop stop-color="#1C1B7E"/>
<stop offset="1" stop-color="#1E1079"/>
</linearGradient>
<linearGradient id="paint1_linear" x1="610" y1="0" x2="610" y2="389.462" gradientUnits="userSpaceOnUse">
<stop stop-color="#1C1B7E"/>
<stop offset="1" stop-color="#1E1079"/>
</linearGradient>
<linearGradient id="paint2_linear" x1="73" y1="72.0234" x2="73" y2="367.023" gradientUnits="userSpaceOnUse">
<stop stop-color="#282599"/>
<stop offset="1" stop-color="#261B86"/>
</linearGradient>
<linearGradient id="paint3_linear" x1="642" y1="-181.023" x2="642" y2="113.977" gradientUnits="userSpaceOnUse">
<stop stop-color="#282599"/>
<stop offset="1" stop-color="#261B86"/>
</linearGradient>
<linearGradient id="paint4_linear" x1="1120.5" y1="124" x2="1120.5" y2="419" gradientUnits="userSpaceOnUse">
<stop stop-color="#282599"/>
<stop offset="1" stop-color="#261B86"/>
</linearGradient>
<linearGradient id="paint5_linear" x1="1030" y1="482" x2="1030" y2="219" gradientUnits="userSpaceOnUse">
<stop stop-color="#262397"/>
<stop offset="1" stop-color="#4538B9"/>
</linearGradient>
<linearGradient id="paint6_linear" x1="531.153" y1="168" x2="531.153" y2="431" gradientUnits="userSpaceOnUse">
<stop stop-color="#2A1B8F"/>
<stop offset="1" stop-color="#271885"/>
</linearGradient>
</defs>
</svg>
