<svg width="140" height="140" viewBox="0 0 140 140" fill="none" xmlns="http://www.w3.org/2000/svg">
<rect width="140" height="140" fill="#F0EBFE"/>
<path d="M108.819 77.2824C108.82 74.2737 107.887 71.3389 106.149 68.883C104.411 66.4272 101.953 64.5713 99.1157 63.5715V61.1101C99.1157 53.3896 96.0488 45.9854 90.5896 40.5262C85.1304 35.0669 77.7261 32 70.0056 32C62.2851 32 54.8809 35.0669 49.4217 40.5262C43.9625 45.9854 40.8955 53.3896 40.8955 61.1101V63.5715C38.0547 64.573 35.5946 66.4312 33.8544 68.8898C32.1142 71.3484 31.1797 74.2864 31.1797 77.2985C31.1797 80.3107 32.1142 83.2487 33.8544 85.7073C35.5946 88.1659 38.0547 90.0241 40.8955 91.0256C41.6288 91.2848 42.4136 91.364 43.1839 91.2564C43.9542 91.1488 44.6873 90.8576 45.3215 90.4074C45.9557 89.9571 46.4723 89.361 46.8279 88.6692C47.1834 87.9775 47.3674 87.2104 47.3644 86.4327V61.1101C47.3644 58.1368 47.95 55.1926 49.0879 52.4457C50.2257 49.6987 51.8934 47.2028 53.9959 45.1004C56.0983 42.9979 58.5942 41.3302 61.3412 40.1924C64.0882 39.0545 67.0323 38.4689 70.0056 38.4689C72.9789 38.4689 75.9231 39.0545 78.67 40.1924C81.417 41.3302 83.9129 42.9979 86.0153 45.1004C88.1178 47.2028 89.7855 49.6987 90.9233 52.4457C92.0612 55.1926 92.6468 58.1368 92.6468 61.1101V86.4327C92.6537 87.1056 92.8012 87.7697 93.0797 88.3824C93.3582 88.9951 93.7616 89.5428 94.264 89.9906V91.8277C94.264 96.5953 90.0883 98.2966 86.1779 98.2966H80.427C79.715 97.0634 78.616 96.0996 77.3003 95.5546C75.9847 95.0096 74.526 94.914 73.1505 95.2826C71.775 95.6512 70.5595 96.4633 69.6926 97.5931C68.8258 98.7228 68.3559 100.107 68.3559 101.531C68.3559 102.955 68.8258 104.339 69.6926 105.469C70.5595 106.599 71.775 107.411 73.1505 107.78C74.526 108.148 75.9847 108.053 77.3003 107.508C78.616 106.963 79.715 105.999 80.427 104.766H86.1779C94.746 104.766 100.733 99.4449 100.733 91.8277V90.2817C103.155 89.0799 105.195 87.2271 106.623 84.931C108.051 82.6349 108.812 79.9864 108.819 77.2824V77.2824Z" fill="#7545FF"/>
</svg>
