<svg width="140" height="140" viewBox="0 0 140 140" fill="none" xmlns="http://www.w3.org/2000/svg">
<rect width="140" height="140" fill="#F0EBFE"/>
<path d="M60.1156 47.1738H50.2243C48.1232 47.1738 46.4199 48.8771 46.4199 50.9782V65.4347C46.4199 67.5358 48.1232 69.239 50.2243 69.239H60.1156C62.2167 69.239 63.9199 67.5358 63.9199 65.4347V50.9782C63.9199 48.8771 62.2167 47.1738 60.1156 47.1738Z" fill="#7545FF"/>
<path d="M106.522 63.913C106.522 61.4915 105.56 59.1691 103.848 57.4569C102.135 55.7446 99.8131 54.7826 97.3916 54.7826H91.3046V41.087C91.3046 39.4726 90.6633 37.9244 89.5218 36.7828C88.3802 35.6413 86.832 35 85.2176 35H39.5655C37.9511 35 36.4029 35.6413 35.2613 36.7828C34.1198 37.9244 33.4785 39.4726 33.4785 41.087V94.3478C33.4785 97.173 34.6008 99.8824 36.5985 101.88C38.5961 103.878 41.3056 105 44.1307 105H95.8698C98.6949 105 101.404 103.878 103.402 101.88C105.4 99.8824 106.522 97.173 106.522 94.3478V63.913ZM44.1307 98.913C42.9199 98.913 41.7587 98.4321 40.9026 97.5759C40.0464 96.7198 39.5655 95.5586 39.5655 94.3478V42.6087C39.5655 42.2051 39.7258 41.818 40.0112 41.5327C40.2966 41.2473 40.6836 41.087 41.0872 41.087H83.6959C84.0995 41.087 84.4866 41.2473 84.7719 41.5327C85.0573 41.818 85.2176 42.2051 85.2176 42.6087V94.3478C85.2166 95.2451 85.3291 96.1388 85.5524 97.0078C85.6105 97.2327 85.6163 97.4678 85.5695 97.6952C85.5226 97.9227 85.4243 98.1364 85.2822 98.32C85.14 98.5036 84.9577 98.6522 84.7492 98.7545C84.5407 98.8567 84.3116 98.9099 84.0794 98.91L44.1307 98.913ZM100.435 94.3478C100.435 95.5586 99.9541 96.7198 99.0979 97.5759C98.2418 98.4321 97.0806 98.913 95.8698 98.913C94.659 98.913 93.4979 98.4321 92.6417 97.5759C91.7856 96.7198 91.3046 95.5586 91.3046 94.3478V62.3913C91.3046 61.9877 91.4649 61.6007 91.7503 61.3153C92.0357 61.0299 92.4227 60.8696 92.8263 60.8696H97.3916C98.1987 60.8696 98.9729 61.1902 99.5436 61.761C100.114 62.3317 100.435 63.1059 100.435 63.913V94.3478Z" fill="#7545FF"/>
<path d="M72.2857 51.8818H78.3726C78.978 51.8818 79.5586 52.1223 79.9867 52.5504C80.4147 52.9785 80.6552 53.5591 80.6552 54.1644V55.6862C80.6552 56.2916 80.4147 56.8722 79.9867 57.3002C79.5586 57.7283 78.978 57.9688 78.3726 57.9688H72.2857C71.9863 57.9696 71.6897 57.9114 71.4128 57.7976C71.136 57.6838 70.8842 57.5165 70.672 57.3054C70.4597 57.0943 70.2912 56.8435 70.1759 56.5672C70.0606 56.2909 70.0008 55.9947 70 55.6953V54.1736C69.9992 53.8729 70.0577 53.575 70.1722 53.297C70.2867 53.019 70.455 52.7663 70.6673 52.5534C70.8796 52.3406 71.1319 52.1716 71.4096 52.0564C71.6873 51.9412 71.985 51.8818 72.2857 51.8818V51.8818Z" fill="#7545FF"/>
<path d="M72.2857 64.0557H78.3726C78.978 64.0557 79.5586 64.2962 79.9867 64.7242C80.4147 65.1523 80.6552 65.7329 80.6552 66.3383V67.86C80.6552 68.4654 80.4147 69.046 79.9867 69.4741C79.5586 69.9021 78.978 70.1426 78.3726 70.1426H72.2857C71.6813 70.1434 71.1013 69.9046 70.6729 69.4784C70.2444 69.0522 70.0024 68.4735 70 67.8691V66.3474C69.9992 66.0467 70.0577 65.7489 70.1722 65.4709C70.2867 65.1928 70.455 64.9402 70.6673 64.7273C70.8796 64.5144 71.1319 64.3455 71.4096 64.2302C71.6873 64.115 71.985 64.0557 72.2857 64.0557V64.0557Z" fill="#7545FF"/>
<path d="M47.938 76.2305H78.3728C78.9782 76.2305 79.5588 76.471 79.9868 76.899C80.4149 77.3271 80.6554 77.9077 80.6554 78.5131V80.0348C80.6554 80.6402 80.4149 81.2208 79.9868 81.6489C79.5588 82.0769 78.9782 82.3174 78.3728 82.3174H47.938C47.3337 82.3182 46.7537 82.0794 46.3252 81.6532C45.8967 81.227 45.6548 80.6483 45.6524 80.0439V78.5222C45.6516 78.2215 45.7101 77.9237 45.8246 77.6457C45.9391 77.3676 46.1073 77.115 46.3196 76.9021C46.532 76.6892 46.7842 76.5203 47.0619 76.405C47.3396 76.2898 47.6373 76.2305 47.938 76.2305V76.2305Z" fill="#7545FF"/>
<path d="M47.935 88.4043H70.7611C71.3664 88.4043 71.947 88.6448 72.3751 89.0729C72.8032 89.5009 73.0437 90.0815 73.0437 90.6869V92.2086C73.0437 92.814 72.8032 93.3946 72.3751 93.8227C71.947 94.2508 71.3664 94.4913 70.7611 94.4913H47.935C47.3309 94.4921 46.7512 94.2531 46.3233 93.8268C45.8953 93.4005 45.654 92.8218 45.6524 92.2178V90.696C45.6512 90.3955 45.7093 90.0977 45.8235 89.8197C45.9377 89.5417 46.1056 89.289 46.3177 89.0761C46.5298 88.8631 46.7818 88.6942 47.0593 88.5789C47.3369 88.4636 47.6344 88.4043 47.935 88.4043V88.4043Z" fill="#7545FF"/>
</svg>
