<svg xmlns="http://www.w3.org/2000/svg" width="64" height="64" viewBox="0 0 64 64">
  <g id="Group_16" data-name="Group 16" transform="translate(-6496 -4008)">
    <rect id="Rectangle_13" data-name="Rectangle 13" width="64" height="64" transform="translate(6496 4008)" fill="#dbeefd"/>
    <g id="_003-witness" data-name="003-witness" transform="translate(6510 4022)">
      <path id="Path_24" data-name="Path 24" d="M36.753,131.985c-3.363-4.1-10.483-8.878-18.253-8.878-7.8,0-14.918,4.814-18.253,8.878a1.088,1.088,0,0,0,0,1.38c3.443,4.2,10.579,8.879,18.253,8.879,7.947,0,15.036-4.959,18.253-8.878A1.088,1.088,0,0,0,36.753,131.985Zm-10.861.69a7.392,7.392,0,1,1-7.392-7.392A7.4,7.4,0,0,1,25.892,132.676Zm-23.334,0a26.284,26.284,0,0,1,8.324-5.784,9.544,9.544,0,0,0,0,11.565,25.8,25.8,0,0,1-8.323-5.781Zm23.56,5.783a9.544,9.544,0,0,0,0-11.565,25.809,25.809,0,0,1,8.323,5.781A26.283,26.283,0,0,1,26.117,138.459Z" transform="translate(0.001 -114.176)" fill="#108ef0"/>
      <path id="Path_25" data-name="Path 25" d="M204,207.7a3.7,3.7,0,1,0,3.7-3.7A3.7,3.7,0,0,0,204,207.7Zm5.224,0a1.524,1.524,0,1,1-1.524-1.524A1.525,1.525,0,0,1,209.224,207.7Z" transform="translate(-189.2 -189.2)" fill="#108ef0"/>
      <path id="Path_26" data-name="Path 26" d="M241.088,4.716a1.088,1.088,0,0,0,1.088-1.088V1.088a1.088,1.088,0,1,0-2.176,0V3.627A1.088,1.088,0,0,0,241.088,4.716Z" transform="translate(-222.588)" fill="#108ef0"/>
      <path id="Path_27" data-name="Path 27" d="M337.478,26.6a1.088,1.088,0,0,0,1.484-.406l1.448-2.539a1.088,1.088,0,1,0-1.891-1.078l-1.448,2.539A1.088,1.088,0,0,0,337.478,26.6Z" transform="translate(-312.485 -20.431)" fill="#108ef0"/>
      <path id="Path_28" data-name="Path 28" d="M124.7,26.2a1.088,1.088,0,0,0,1.891-1.078l-1.448-2.539a1.088,1.088,0,1,0-1.891,1.078Z" transform="translate(-114.173 -20.431)" fill="#108ef0"/>
      <path id="Path_29" data-name="Path 29" d="M241.088,445A1.088,1.088,0,0,0,240,446.088v2.539a1.088,1.088,0,1,0,2.176,0v-2.539A1.088,1.088,0,0,0,241.088,445Z" transform="translate(-222.588 -412.716)" fill="#108ef0"/>
      <path id="Path_30" data-name="Path 30" d="M126.18,423.11a1.088,1.088,0,0,0-1.484.406l-1.448,2.539a1.088,1.088,0,1,0,1.891,1.078l1.448-2.539A1.088,1.088,0,0,0,126.18,423.11Z" transform="translate(-114.173 -392.281)" fill="#108ef0"/>
      <path id="Path_31" data-name="Path 31" d="M338.963,423.515a1.088,1.088,0,1,0-1.891,1.078l1.448,2.539a1.088,1.088,0,1,0,1.891-1.078Z" transform="translate(-312.485 -392.28)" fill="#108ef0"/>
    </g>
  </g>
</svg>
