<svg xmlns="http://www.w3.org/2000/svg" width="64" height="64" viewBox="0 0 64 64">
  <g id="Group_14" data-name="Group 14" transform="translate(-6314 -4008)">
    <rect id="Rectangle_9" data-name="Rectangle 9" width="64" height="64" transform="translate(6314 4008)" fill="#dbeefd"/>
    <path id="_001-success" data-name="001-success" d="M36.425,15.464h-1.1V1.1a1.1,1.1,0,0,0-1.1-1.1h-6.6a1.1,1.1,0,0,0-1.1,1.1V2.2h-6.6a1.1,1.1,0,0,0-.915,1.709L20.812,6.6,19.02,9.284a1.1,1.1,0,0,0,.915,1.709h7.7a1.1,1.1,0,0,0,1.1-1.1v-1.1h4.4v6.669h-5.5a1.1,1.1,0,0,0-1.1,1.1v5.5h-7.7a1.1,1.1,0,0,0-1.1,1.1v3.3H9.967a1.1,1.1,0,0,0-1.1,1.1v3.3H1.1a1.1,1.1,0,0,0-1.1,1.1v4.471a1.1,1.1,0,0,0,1.1,1.1H36.425a1.1,1.1,0,0,0,1.1-1.1V16.564A1.1,1.1,0,0,0,36.425,15.464ZM26.531,8.795H21.989l1.059-1.589a1.1,1.1,0,0,0,0-1.22L21.989,4.4h4.542Zm2.2-6.6h4.4V6.6h-4.4ZM2.2,33.054H8.868v2.272H2.2Zm8.868-4.4h6.669v6.669H11.067Zm8.868-4.4h6.6V35.326h-6.6ZM35.326,35.326h-6.6V17.663h6.6Z" transform="translate(6327 4021)" fill="#108ef0"/>
  </g>
</svg>
