<svg xmlns="http://www.w3.org/2000/svg" xmlns:xlink="http://www.w3.org/1999/xlink" width="673.495" height="515" viewBox="0 0 673.495 515">
  <defs>
    <filter id="Stroke-1" x="70.494" y="0" width="278.288" height="205.142" filterUnits="userSpaceOnUse">
      <feOffset dy="3" input="SourceAlpha"/>
      <feGaussianBlur stdDeviation="3" result="blur"/>
      <feFlood flood-opacity="0.161"/>
      <feComposite operator="in" in2="blur"/>
      <feComposite in="SourceGraphic"/>
    </filter>
    <filter id="Rectangle-Copy" x="0" y="118.079" width="241.848" height="182.601" filterUnits="userSpaceOnUse">
      <feOffset dy="3" input="SourceAlpha"/>
      <feGaussianBlur stdDeviation="3" result="blur-2"/>
      <feFlood flood-opacity="0.161"/>
      <feComposite operator="in" in2="blur-2"/>
      <feComposite in="SourceGraphic"/>
    </filter>
  </defs>
  <g id="performance-reviews" transform="translate(-944.505 -135)">
    <g id="Group_30" data-name="Group 30">
      <g id="Ellipse_51" data-name="Ellipse 51" transform="translate(1109 141)" fill="#efeeff" stroke="#b8b4eb" stroke-width="1">
        <circle cx="254.5" cy="254.5" r="254.5" stroke="none"/>
        <circle cx="254.5" cy="254.5" r="254" fill="none"/>
      </g>
      <g id="Backdrop" transform="translate(1135.609 174)">
        <g id="Backdrop_Circle" data-name="Backdrop/Circle" transform="translate(76.091 71.091)">
          <path id="Background" d="M23,201.318c0,106.214,86.105,192.32,192.319,192.32s192.319-86.105,192.319-192.32S321.532,9,215.319,9,23,95.1,23,201.318" transform="translate(-23 -9)" fill="#9292c8" fill-rule="evenodd" opacity="0.197"/>
        </g>
      </g>
      <g id="Master_Scenes_Working_Remotely" data-name="Master/Scenes/Working Remotely" transform="translate(848.079 -22.764)">
        <g id="Background-2" data-name="Background" transform="translate(340.621 436.476)">
          <g id="Master_Composition_Graphs" data-name="Master/Composition/Graphs" transform="translate(9.938 -267.985)">
            <g id="Head_Front" data-name="Head/Front" transform="translate(170.589 124.369)">
              <g id="Head_Front_Short_1" data-name="Head/Front/Short 1">
                <g id="Head" transform="translate(3.801 4.015)">
                  <path id="SKIN" d="M4.248,10.087C-2.135,22.016-1.376,52.274,6.873,54.406c3.29.85,10.3-1.232,17.432-5.543L19.828,80.62H46.266l-9.1-42.531c5.076-5.973,8.511-13.293,7.937-21.5C43.448-7.041,10.632-1.841,4.248,10.087Z" transform="translate(0 0)" fill="#eac7a8" fill-rule="evenodd"/>
                </g>
                <path id="Hair" d="M107.217,45.814c-5.448-26.291-40.8-10.394-47.6-14.641C58.128,40.3,63,47.633,80.134,46c3.133,2.237,5.518,5.96,8.379,10.7a6.626,6.626,0,0,1,6.88,10.922c1.51,2.188,3.2,4.473,5.135,6.83,6.911-4.265,12.152-16.229,6.862-28.25Z" transform="translate(-59.362 -30.221)" fill="#181658" fill-rule="evenodd"/>
              </g>
            </g>
            <g id="Bottom_Sitting" data-name="Bottom/Sitting" transform="translate(38.899 300.67)">
              <g id="Bottom_Sitting_Skinny_Jeans_1" data-name="Bottom/Sitting/Skinny Jeans 1" transform="translate(0 0)">
                <g id="Objects_Seat" data-name="Objects/Seat" transform="translate(133.289 46.385)">
                  <g id="Objects_Seat_Cube" data-name="Objects/Seat/Cube">
                    <g id="Seat">
                      <path id="Seat-Stuff" d="M96.251,0h-85.1L0,136.946H126.679Z" fill="#c5cfd6" fill-rule="evenodd"/>
                      <path id="Seat-Stuff-2" data-name="Seat-Stuff" d="M41.839,0H15.665L0,136.946H72.267Z" transform="translate(54.413)" fill="rgba(0,0,0,0.1)" fill-rule="evenodd"/>
                    </g>
                  </g>
                </g>
                <path id="LegBack" d="M233.666,22.924l-.317-.186c-9.107-5.115-23.978,1.831-23.968,9.553.031,23.374,21.307,133.536,22.419,140.5s13.011,8.8,13.7.022c1.1-13.971,3.152-62.337,1.1-84.723-.846-9.241-1.757-18.043-2.654-25.895q16.743,30.318,51.8,86.826l12.686-5.811q-14.942-49.36-24.505-69.694c-10.916-23.211-21.152-43.088-25.46-50.09C251.694,12.413,239.9,16.256,233.666,22.924Z" transform="translate(-186.248 0)" fill="#eac7a8" fill-rule="evenodd"/>
                <path id="LegLower" d="M.024.064,5.642,112.13C9.7,131.5,44.1,122.459,44.091,112.074,44.064,88.5,29.944,7.068,29.936.044Z" transform="matrix(-0.94, 0.341, -0.341, -0.94, 121.327, 124.987)" fill="#1820bf" fill-rule="evenodd"/>
                <path id="shoe" d="M247.727,136.689a23.682,23.682,0,0,1,5.293,5.485,55.451,55.451,0,0,1,3.488,8.048L202.7,181.367q-6.1-5.737-1.9-8.908t6.932-5.346L226.3,141.46a1.1,1.1,0,0,1,1.539-.245.215.215,0,0,0,.025.019l3.859,2.98h0a19.77,19.77,0,0,0,7.925-1.978,17.816,17.816,0,0,0,4.879-5.118h0a2.2,2.2,0,0,1,3.071-.523C247.645,136.624,247.687,136.656,247.727,136.689Z" transform="translate(-124.028 0)" fill="#cacae5" fill-rule="evenodd"/>
                <path id="shoe-2" data-name="shoe" d="M329.721,167.208a23.751,23.751,0,0,1,1.848,7.4,55.528,55.528,0,0,1-.993,8.718h-62.13q-2.422-8.026,2.8-8.667t8.669-1.155L308.79,160.6a1.1,1.1,0,0,1,1.455.559c0,.01.008.019.012.029l1.856,4.515h0a19.771,19.771,0,0,0,7.85,2.26,17.743,17.743,0,0,0,6.778-1.988h0a2.2,2.2,0,0,1,2.92,1.088C329.683,167.11,329.7,167.159,329.721,167.208Z" transform="translate(-267.679 0)" fill="#cacae5" fill-rule="evenodd"/>
                <path id="Leg-and-Butt" d="M123.375,40.237c0,29.341,13.9,97.78,13.906,104.241l29.9.023q-6.565-91.6-4.656-92.589c1.91-.987,78.267,7.643,101.168,7.643,33.023,0,46.684-20.878,47.792-59.555H246.071c-13.32,1.429-82.8,15.478-108.6,20.308C126.426,22.376,123.375,32.154,123.375,40.237Z" transform="translate(-103.293 0)" fill="#2b44ff" fill-rule="evenodd"/>
              </g>
            </g>
            <g id="Body" transform="translate(63.726 184.709)">
              <g id="Body_Pointing_Forward" data-name="Body/Pointing Forward" transform="translate(0 0)">
                <path id="SKIN-2" data-name="SKIN" d="M194.474,51.253c-4.773-.985-16.422-9.671-18.429-7.908-2.97,2.609-.322,10.621,2.8,14.606,5.831,7.449,10.658,10,22.591,13.331q9.357,2.616,20.236,10.487l.956-16.9-16.8-9.25q-3.534-13.485-8.45-13.57C194.862,40.878,199.246,52.238,194.474,51.253ZM223.38,12.746c3.084,5.488,6.082,11.4,4.511,13.089s-5.489-.671-7.364,2.138q-1.874,2.809,20.079,8.875l27.782,25.5,14.12-15.194-38.235-21Q234.736,14.808,225.48,8.526C223.594,7.737,220.3,7.259,223.38,12.746Z" transform="translate(-174.749 0)" fill="#dcae92" fill-rule="evenodd"/>
                <g id="Group-3" transform="translate(66.057 26.627)">
                  <path id="Mask" d="M6.064,26.955a93.769,93.769,0,0,1,52.047,7.069l4.781-17.695C47.868,5.462,27.936-2.267,12.045.7-.478,3.046-4.5,19.316,6.064,26.955Z" transform="translate(62.106 43.425) rotate(-171.022)" fill="#c21b15" fill-rule="evenodd"/>
                </g>
                <g id="Group-27" transform="translate(25.243)">
                  <path id="Mask-2" data-name="Mask" d="M100.492,0C98.805,21.722,90.317,45.662,83.351,69.313Q62.025,74.647,11.825,56.737-.627,82.563.312,93.562c28.713,15.037,53.322,21.74,73.6,22.182-.653,12.056.811,23.533,5.731,34.02,10.111,21.556,69.32,1.593,89.228,5.522,12.467-40.592-11.638-57.088-11.657-83.061C157.188,43.781,134.408,0,131.057,0H100.492Z" transform="translate(-0.247 0)" fill="#ff4133" fill-rule="evenodd"/>
                </g>
              </g>
            </g>
            <g id="Pie-Chart" transform="translate(104.447 29)">
              <path id="Value" d="M29,29.517C29,13.285,15.947,0,0,0V29.517L19.819,51A29.316,29.316,0,0,0,29,29.517Z" transform="translate(29)" fill="#f2f2f2" fill-rule="evenodd"/>
              <path id="Value-2" data-name="Value" d="M29.108,0H0A29.114,29.114,0,0,0,7.922,19.819,29.254,29.254,0,0,0,29.108,29,29.654,29.654,0,0,0,49,21.108Z" transform="translate(1 29)" fill="#afb9c5" fill-rule="evenodd"/>
              <path id="Value-3" data-name="Value" d="M0,29A29.089,29.089,0,0,1,29,0V29ZM43.5,0,31.9,26.1,58,14.5C55.419,7.734,49.623,2.581,43.5,0Z" fill="#8991dc" fill-rule="evenodd"/>
            </g>
          </g>
          <g id="Plant-Right" transform="translate(268.354 47.114)" opacity="0.7">
            <path id="Leaf-Me-Alone_" data-name="Leaf-Me-Alone!" d="M28.143,99.675c-5.743-.3-12.455-4.38-12.412-10.652.032-4.557.641-9.041.43-13.617a36.669,36.669,0,0,0-2.2-10.679C12.773,61.414,9.9,58.4,9.438,54.944a14.53,14.53,0,0,1,1.254-7.214c1.144-2.46.658-2.308-.863-4.633A58.45,58.45,0,0,1,2.569,28.671C.191,21.121-.979,12.465,1.016,4.683,1.269,3.695,1.824.112,3.232.005c1.573-.119.635,1.865.483,2.522-.971,4.19-1.828,7.853-1.648,12.231.7,16.895,11.479,29.111,17.767,44.048.351.773,1.07,2.6,1.577,3.811.8,1.91,1.434,5.452,2.634,6.931,2.259,2.788.471-2.528.081-3.547-.493-1.29-1.04-2.664-1.565-3.8-2.393-5.281-5.077-11.053-7.549-16.5,13.336-1.6,20.863,15.023,23.276,25.685,1.988,8.784,3.35,28.975-10.145,28.291" transform="matrix(-0.995, 0.105, -0.105, -0.995, 50.616, 145.109)" fill="#56919c" fill-rule="evenodd"/>
            <path id="Leaf-Me-Alone_2" data-name="Leaf-Me-Alone!" d="M151.823,78.051c-9.6.762-15.763,7.1-18.632,15.957-1.546,4.775-1.724,9.68-2.583,14.587a31.162,31.162,0,0,1-9.509,18.237,18.347,18.347,0,0,0-3.806,5.091,21.685,21.685,0,0,0-4.394,6.28c-1.43,3.157-1.835,6.944-.184,10.091a10.343,10.343,0,0,0,2.7,3.316,64.99,64.99,0,0,0-6.395,29.19c.161,6.043.456,12.09.8,18.126.093,1.621.62,4.3,1.413,1.579.726-2.486-.184-6.39-.268-8.987-.41-12.653-.76-24.158,4.449-35.98.546-1.239,1.126-2.468,1.728-3.687a1.211,1.211,0,0,0,.1-.069c.023.018.044.037.067.054.038-.069.091-.151.153-.242a3.29,3.29,0,0,0,.468-.656,4.76,4.76,0,0,0,.988-1.8s0-.008,0-.011a170.374,170.374,0,0,1,10.69-15.113c-.028.036,4.092-5.574,3.455-2.472-.307,1.5-3.338,4.342-4.562,5.926a147.566,147.566,0,0,0-8.529,12.3,6.214,6.214,0,0,0-1.221,1.955c-.2.379-.388.76-.572,1.093,9.362,3.093,16.645-3.138,21.611-10.384l.017-.026a31.5,31.5,0,0,1,4.993-5.574c3.226-2.642,6.682-3.108,10.486-4.408,10.375-3.545,14.786-16.99,16.186-26.967,1.581-11.255-6.151-28.514-19.649-27.4" transform="translate(-62.645 -44.966)" fill="#89c5cc" fill-rule="evenodd"/>
            <path id="Leaf-Me-Alone_3" data-name="Leaf-Me-Alone!" d="M41.26.96C30.075,9.744,23.382,23.166,17.788,35.883c-6.247,14.2-11.111,28.834-13.378,44.2C2.921,90.171,1.218,100.3.389,110.472A108.43,108.43,0,0,0,.017,121.35c.006.3.164,8.392,1.639,6.719.839-.952-.149-8.394-.132-9.609a155.665,155.665,0,0,1,1.844-20.4C5,86.93,6.232,75.8,8.921,64.855a37.962,37.962,0,0,1,1.4-4.922c.66-1.665.022-.988,1.48-1.479,1.416-.478,3.038-.153,4.528-.792,5.91-2.537,9.887-10.627,12.837-15.887a107.641,107.641,0,0,0,7.98-19.118A141.436,141.436,0,0,0,41.1,8.124a38.848,38.848,0,0,1,1.1-4.7,10.839,10.839,0,0,0,.7-1.454C42.973,1.187,42.567.662,42.62,0q-.69.465-1.361.96" transform="translate(29.223 6.358) rotate(-8)" fill="#89c5cc" fill-rule="evenodd"/>
            <path id="Base" d="M38,328a30.707,30.707,0,0,0,61.414,0" transform="translate(-21.511 -189.805)" fill="#89c5cc" fill-rule="evenodd"/>
            <path id="Leaf-Me-Alone_4" data-name="Leaf-Me-Alone!" d="M133.2,264.036c7.6-.56,16.087,5.571,19.753,11.951,2.955,5.144,2.457,11.9.632,17.365-1.222,3.659-3.89,8.876-8.339,8.926-5.566.064-5.834-6.816-5.942-10.837-.143-5.347-.819-10-5.032-13.649-.982-.849-2.055-1.6-3.047-2.433-1.553-1.31-3.269-2.652-3.469-4.82-.276-2.991,1.412-3.529,3.99-2.974.44.095,4.866,2.081,4.211.511a2.919,2.919,0,0,0-1.853-1.145,34.7,34.7,0,0,0-6.052-.381c-8.831,1.938-12.27,14.171-13.183,21.944-.1.839-.178,1.681-.248,2.524H113a54.47,54.47,0,0,1,.6-6.081c1.3-7.7,5.372-19.007,14.3-20.256a23.053,23.053,0,0,1,3.008.032A5.418,5.418,0,0,1,133.2,264.036Z" transform="translate(-64.963 -152.726)" fill="#56919c" fill-rule="evenodd"/>
          </g>
        </g>
      </g>
      <g id="UI_Elements" data-name="UI Elements" transform="translate(1023.256 140.256)">
        <g id="UI_Elements_UI_Card_1" data-name="UI Elements/UI Card 1" transform="translate(0)">
          <g id="userinterface" transform="translate(0)">
            <g transform="matrix(1, 0, 0, 1, -78.75, -5.26)" filter="url(#Stroke-1)">
              <path id="Stroke-1-2" data-name="Stroke-1" d="M257.559,190.142H8.729A5.729,5.729,0,0,1,3,184.413V8.73A5.73,5.73,0,0,1,8.729,3h248.83a5.73,5.73,0,0,1,5.729,5.73V184.413A5.729,5.729,0,0,1,257.559,190.142Z" transform="translate(76.49 3)" fill="#fff" fill-rule="evenodd"/>
            </g>
            <path id="Stroke-7" d="M812.964,287.381h0A25.866,25.866,0,1,0,787.1,261.514,25.867,25.867,0,0,0,812.964,287.381Z" transform="translate(-768.748 -211.233)" fill="#b8b4eb" fill-rule="evenodd"/>
            <path id="Stroke-13" d="M134.96,457.5a4.462,4.462,0,0,0-.082,8.923h143.55a4.462,4.462,0,0,0,.082-8.923H134.96Z" transform="translate(-45.416 -420.971)" fill="#cacae5"/>
            <path id="Stroke-15" d="M134.96,564.5a4.462,4.462,0,0,0-.082,8.923H216.9a4.462,4.462,0,0,0,.082-8.923H134.96Z" transform="translate(-45.416 -509.392)" fill="#cacae5"/>
            <path id="Fill-48" d="M24.949,13.7,22.86,17.931a1.6,1.6,0,0,1-1.2.872l-4.672.68A1.6,1.6,0,0,0,16.1,22.2l3.381,3.3a1.592,1.592,0,0,1,.459,1.411l-.8,4.653a1.6,1.6,0,0,0,2.316,1.682l4.179-2.2a1.6,1.6,0,0,1,1.485,0l4.179,2.2a1.6,1.6,0,0,0,2.316-1.682l-.8-4.653a1.592,1.592,0,0,1,.459-1.411l3.382-3.3a1.6,1.6,0,0,0-.885-2.722L31.1,18.8a1.6,1.6,0,0,1-1.2-.872L27.811,13.7a1.6,1.6,0,0,0-2.862,0" transform="translate(69.465 63.88)" fill="#9292c8" fill-rule="evenodd"/>
            <path id="Fill-48-2" data-name="Fill-48" d="M24.949,13.7,22.86,17.931a1.6,1.6,0,0,1-1.2.872l-4.672.68A1.6,1.6,0,0,0,16.1,22.2l3.381,3.3a1.592,1.592,0,0,1,.459,1.411l-.8,4.653a1.6,1.6,0,0,0,2.316,1.682l4.179-2.2a1.6,1.6,0,0,1,1.485,0l4.179,2.2a1.6,1.6,0,0,0,2.316-1.682l-.8-4.653a1.592,1.592,0,0,1,.459-1.411l3.382-3.3a1.6,1.6,0,0,0-.885-2.722L31.1,18.8a1.6,1.6,0,0,1-1.2-.872L27.811,13.7a1.6,1.6,0,0,0-2.862,0" transform="translate(94.744 63.88)" fill="#9292c8" fill-rule="evenodd"/>
            <path id="Fill-48-3" data-name="Fill-48" d="M24.949,13.7,22.86,17.931a1.6,1.6,0,0,1-1.2.872l-4.672.68A1.6,1.6,0,0,0,16.1,22.2l3.381,3.3a1.592,1.592,0,0,1,.459,1.411l-.8,4.653a1.6,1.6,0,0,0,2.316,1.682l4.179-2.2a1.6,1.6,0,0,1,1.485,0l4.179,2.2a1.6,1.6,0,0,0,2.316-1.682l-.8-4.653a1.592,1.592,0,0,1,.459-1.411l3.382-3.3a1.6,1.6,0,0,0-.885-2.722L31.1,18.8a1.6,1.6,0,0,1-1.2-.872L27.811,13.7a1.6,1.6,0,0,0-2.862,0" transform="translate(120.024 63.88)" fill="#9292c8" fill-rule="evenodd"/>
            <path id="Fill-48-4" data-name="Fill-48" d="M24.949,13.7,22.86,17.931a1.6,1.6,0,0,1-1.2.872l-4.672.68A1.6,1.6,0,0,0,16.1,22.2l3.381,3.3a1.592,1.592,0,0,1,.459,1.411l-.8,4.653a1.6,1.6,0,0,0,2.316,1.682l4.179-2.2a1.6,1.6,0,0,1,1.485,0l4.179,2.2a1.6,1.6,0,0,0,2.316-1.682l-.8-4.653a1.592,1.592,0,0,1,.459-1.411l3.382-3.3a1.6,1.6,0,0,0-.885-2.722L31.1,18.8a1.6,1.6,0,0,1-1.2-.872L27.811,13.7a1.6,1.6,0,0,0-2.862,0" transform="translate(145.303 63.88)" fill="#9292c8" fill-rule="evenodd"/>
            <path id="Fill-48-5" data-name="Fill-48" d="M24.949,13.7,22.86,17.931a1.6,1.6,0,0,1-1.2.872l-4.672.68A1.6,1.6,0,0,0,16.1,22.2l3.381,3.3a1.592,1.592,0,0,1,.459,1.411l-.8,4.653a1.6,1.6,0,0,0,2.316,1.682l4.179-2.2a1.6,1.6,0,0,1,1.485,0l4.179,2.2a1.6,1.6,0,0,0,2.316-1.682l-.8-4.653a1.592,1.592,0,0,1,.459-1.411l3.382-3.3a1.6,1.6,0,0,0-.885-2.722L31.1,18.8a1.6,1.6,0,0,1-1.2-.872L27.811,13.7a1.6,1.6,0,0,0-2.862,0" transform="translate(170.582 63.88)" fill="#9292c8" fill-rule="evenodd"/>
          </g>
        </g>
      </g>
      <g id="UI_Elements-2" data-name="UI Elements" transform="translate(952.762 258.335)">
        <g id="UI_Elements_Graph_1" data-name="UI Elements/Graph 1" transform="translate(0 0)">
          <g id="Interfae-Box-2">
            <g transform="matrix(1, 0, 0, 1, -8.26, -123.34)" filter="url(#Rectangle-Copy)">
              <rect id="Rectangle-Copy-2" data-name="Rectangle-Copy" width="223.848" height="164.601" rx="10" transform="translate(9 124.08)" fill="#fff"/>
            </g>
            <rect id="Rectangle" width="175.756" height="0.496" transform="translate(23.054 135.35)" fill="#c7d2f2"/>
            <g id="meter" transform="translate(23.479 27.865)">
              <path id="Path_563" data-name="Path 563" d="M2252.422,1199.179c.912-36.081,28.45-65.03,62.288-65.03s61.376,28.949,62.288,65.03h19.819a5.6,5.6,0,0,0,5.356-6.142c-3.144-48.9-41.1-87.526-87.465-87.526-46.214,0-84.075,38.375-87.433,87.052a5.987,5.987,0,0,0,5.7,6.616Z" transform="translate(-2227.27 -1100.955)" fill="#9292c8"/>
              <path id="Path_564" data-name="Path 564" d="M2866.955,1108.137a2.065,2.065,0,0,1-2.065-2.064v-32.138a2.065,2.065,0,1,1,4.13,0v32.138A2.064,2.064,0,0,1,2866.955,1108.137Z" transform="translate(-2779.515 -1071.82)" fill="#fff"/>
              <path id="Path_565" data-name="Path 565" d="M3114.247,1214.238a2.066,2.066,0,0,1-1.785-3.1l15.515-26.81a2.065,2.065,0,1,1,3.574,2.068l-15.515,26.811A2.063,2.063,0,0,1,3114.247,1214.238Z" transform="translate(-2993.695 -1168.326)" fill="#fff"/>
              <path id="Path_566" data-name="Path 566" d="M3273.01,1489.165a2.065,2.065,0,0,1-.953-3.9l25.869-13.423a2.065,2.065,0,1,1,1.9,3.666l-25.868,13.428a2.052,2.052,0,0,1-.949.226Z" transform="translate(-3131.195 -1418.033)" fill="#fff"/>
              <path id="Path_567" data-name="Path 567" d="M2505.743,1232.258a2.062,2.062,0,0,1-1.636-.8l-18.769-24.352a2.065,2.065,0,1,1,3.27-2.52l18.769,24.35a2.064,2.064,0,0,1-1.634,3.325Z" transform="translate(-2450.389 -1186.029)" fill="#fff"/>
              <path id="Path_568" data-name="Path 568" d="M2287.254,1493.557a2.054,2.054,0,0,1-.817-.17l-28.523-12.289a2.065,2.065,0,1,1,1.634-3.793l28.523,12.291a2.065,2.065,0,0,1-.817,3.961Z" transform="translate(-2252.739 -1422.817)" fill="#fff"/>
              <path id="Path_569" data-name="Path 569" d="M2794.855,1169.948l-6.453-85.167a.272.272,0,1,1,.536-.08l17.274,82.113Z" transform="translate(-2713.268 -1082.715)" fill="#3c34b5"/>
              <circle id="Ellipse_85" data-name="Ellipse 85" cx="9.019" cy="9.019" r="9.019" transform="translate(79.589 80.59)" fill="#3c34b5"/>
              <path id="Path_570" data-name="Path 570" d="M2842.432,1705.215a6.872,6.872,0,1,1,6.872-6.872A6.872,6.872,0,0,1,2842.432,1705.215Zm0-13.449a6.578,6.578,0,1,0,6.578,6.577A6.578,6.578,0,0,0,2842.432,1691.766Z" transform="translate(-2754.112 -1608.449)" fill="#f0eff3"/>
            </g>
          </g>
        </g>
      </g>
    </g>
  </g>
</svg>
