<svg xmlns="http://www.w3.org/2000/svg" xmlns:xlink="http://www.w3.org/1999/xlink" width="590" height="598.13" viewBox="0 0 590 598.13">
  <defs>
    <filter id="Rectangle_13" x="0" y="13.104" width="334.343" height="334.342" filterUnits="userSpaceOnUse">
      <feOffset dy="3" input="SourceAlpha"/>
      <feGaussianBlur stdDeviation="3" result="blur"/>
      <feFlood flood-opacity="0.161"/>
      <feComposite operator="in" in2="blur"/>
      <feComposite in="SourceGraphic"/>
    </filter>
  </defs>
  <g id="plan-and-tasks" transform="translate(-1028 -140.4)">
    <g id="Ellipse_51" data-name="Ellipse 51" transform="translate(1109 141)" fill="#efeeff" stroke="#b8b4eb" stroke-width="1">
      <circle cx="254.5" cy="254.5" r="254.5" stroke="none"/>
      <circle cx="254.5" cy="254.5" r="254" fill="none"/>
    </g>
    <g id="Background" transform="translate(1178.995 140.4)" opacity="0.2">
      <circle id="Oval" cx="184.41" cy="184.41" r="184.41" transform="translate(-4.159 141)" fill="#ffa434"/>
      <circle id="Oval-2" data-name="Oval" cx="32.873" cy="32.873" r="32.873" transform="translate(263.787 532.384)" fill="#89c5cc"/>
      <path id="Polygon" d="M40.787,465.554,60.03,484.8,40.787,504.04,21.545,484.8Z" transform="translate(4.113 37.164)" fill="#ffa434" fill-rule="evenodd"/>
      <path id="Polygon-2" data-name="Polygon" d="M272.869,43.416l9.621,9.621-9.621,9.622-9.621-9.622Z" transform="translate(50.25 -43.416)" fill="#2026a2" fill-rule="evenodd"/>
    </g>
    <g id="Character" transform="translate(1610.546 662.06) rotate(180)">
      <g id="Head_Front" data-name="Head/Front" transform="matrix(0.891, 0.454, -0.454, 0.891, 78.656, 242.06)">
        <g id="Head_Front_Curly" data-name="Head/Front/Curly" transform="translate(0 0)">
          <g id="Head" transform="translate(19.243 0)">
            <path id="SKIN" d="M30.582,51.207c4.646-8.66,4.094-30.628-1.911-32.175-2.395-.617-7.5.895-12.688,4.024L19.243,0H0L6.624,30.877C2.93,35.214.429,40.528.847,46.483,2.051,63.642,25.936,59.867,30.582,51.207Z" transform="translate(0)" fill="#d4a181" fill-rule="evenodd"/>
          </g>
          <path id="hair" d="M58.35,40.763a4.163,4.163,0,0,1-2.915,2.956,3.841,3.841,0,0,1-1.072.107c-.129-.005-.165-.042-.226.048a1.189,1.189,0,0,0-.064.31,5.837,5.837,0,0,1-.218.722,5.9,5.9,0,0,1-1.422,2.114,7.159,7.159,0,0,1-4.3,2.034,6.269,6.269,0,0,1-2.585-.353,10.236,10.236,0,0,1-1.255-.537c-.122-.061-.52-.362-.643-.343s-.409.359-.519.443a7.6,7.6,0,0,1-4.748,1.446c-1.918-.014-3.765-.11-5.364-1.279a10.741,10.741,0,0,1-.968-.8c-.162-.15-.318-.306-.468-.468-.09-.1-.178-.2-.262-.3-.143-.175-.12-.232-.321-.11a3.987,3.987,0,0,1-2.56.576,5.729,5.729,0,0,1-1.546-.437c-.168-.072-.556-.358-.735-.361s-.56.263-.743.33a6.093,6.093,0,0,1-3.089.286A7.976,7.976,0,0,1,19.3,45.952a4.07,4.07,0,0,1-1.122-1.02c-.132-.182-.251-.375-.4-.544-.088-.1-.261-.2-.308-.326a6.654,6.654,0,0,1-1.284.567,3.162,3.162,0,0,1-1.806-.069,7.183,7.183,0,0,1-2.848-2.024,8.088,8.088,0,0,1-1.054-1.416q-.215-.365-.394-.749a2.8,2.8,0,0,0-.173-.39c-.1-.144-.165-.146-.344-.209A5.556,5.556,0,0,1,7.2,38.188a5.454,5.454,0,0,1-1.225-2.6,1.321,1.321,0,0,0-.049-.32c-.045-.042-.228-.023-.3-.032a6.245,6.245,0,0,1-.711-.125,5.874,5.874,0,0,1-1.25-.45,6.533,6.533,0,0,1-3.2-3.824,7.758,7.758,0,0,1,.121-5.311,5.188,5.188,0,0,1,.394-.778c.094-.152.125-.152.064-.311-.068-.177-.193-.349-.274-.522A7.5,7.5,0,0,1,.2,22.141a8.328,8.328,0,0,1-.1-3.07,4.43,4.43,0,0,1,.474-1.347,3.864,3.864,0,0,1,.415-.6c.082-.1.168-.19.259-.279a1.719,1.719,0,0,0,.164-.152c.108-.138.13-.025.075-.228a9.106,9.106,0,0,0-.361-.84c-.111-.285-.211-.573-.3-.865a12.757,12.757,0,0,1-.441-1.8,5.658,5.658,0,0,1,.4-3.5,3.5,3.5,0,0,1,.99-1.179,3.685,3.685,0,0,1,.651-.4c.118-.056.269-.08.322-.194s-.028-.366-.048-.5A8.392,8.392,0,0,1,2.8,3.57,4.994,4.994,0,0,1,4.778.913,6.159,6.159,0,0,1,10.935.738a6.465,6.465,0,0,1,1.375.945C13.364.263,15.534.308,17.076.712a6.846,6.846,0,0,1,4.349,3.593,2.9,2.9,0,0,1,4.6.6,3.834,3.834,0,0,1,.388,1.262c.032.23.011.462.035.691a3.565,3.565,0,0,0,.336.855,4.719,4.719,0,0,1,.358,1.7,8.66,8.66,0,0,1-.065.915,3.144,3.144,0,0,0,.093.8,3.675,3.675,0,0,0-1.556.195,3.072,3.072,0,0,0-1.2.846,7.019,7.019,0,0,0-1.514,2.83c-.684,2.241-.4,4.93,1.85,6.16,1.05.573,4.2.571,5.447.288,1.315-.3,2.806-3.2,2.879-3.472.045-.169.023-.378.178-.49.341-.247.9.182,1.154.394a4.551,4.551,0,0,1,1.011,1.345,16.641,16.641,0,0,1,1.387,3.4c.256.907.42,1.842.755,2.725a4.169,4.169,0,0,0,1.676,2.163,14.765,14.765,0,0,0,2.884,1.168,7.157,7.157,0,0,1,2.668,1.466,3.682,3.682,0,0,1,.458.51c.1.146.208.426.368.519.248.144.61-.231.825-.367A9.535,9.535,0,0,0,49.1,28.186a16.391,16.391,0,0,0,1.762-3.137,9.071,9.071,0,0,1,1.185-2.616,5,5,0,0,1,2.982-.226,3.767,3.767,0,0,1,1.627,1.408,2.189,2.189,0,0,1,.185,1.434c-.058.289-.174.559-.238.843a2.622,2.622,0,0,1-.219.683,1.682,1.682,0,0,1-1.049.836,4.937,4.937,0,0,1,1.134,1.537,6.606,6.606,0,0,1,.587,2,2.434,2.434,0,0,1-.325,1.56,4.109,4.109,0,0,1-1.332,1.106,8.651,8.651,0,0,1,1.854,2.02A6.3,6.3,0,0,1,58.35,40.763Z" transform="translate(0 22.45)" fill="#4a312c" fill-rule="evenodd"/>
        </g>
      </g>
      <g id="Bottom_Standing" data-name="Bottom/Standing" transform="translate(17.483 0)">
        <g id="Bottom_Standing_Baggy_Pants" data-name="Bottom/Standing/Baggy Pants" transform="translate(0)">
          <path id="SKIN-2" data-name="SKIN" d="M0,183.81l39.353-99.6L65.747,0H76.17L34.215,183.81Z" transform="translate(93.635 7.817)" fill="#d4a181" fill-rule="evenodd"/>
          <path id="SKIN-3" data-name="SKIN" d="M74.92,147.48c-.419-35-6.531-82.125-7.507-84.307Q66.436,60.991,0,7.682L7.179,0Q85.568,45.707,89.195,51.8c3.627,6.1,15.437,62.193,24.919,95.678Z" transform="translate(10.791 44.147)" fill="#d4a181" fill-rule="evenodd"/>
          <g id="Left" transform="matrix(0.643, -0.766, 0.766, 0.643, 0, 47.901)">
            <path id="shoe" d="M1.345,11.7A17.216,17.216,0,0,1,0,6.33,40.231,40.231,0,0,1,.723,0H45.945q1.763,5.828-2.035,6.292t-6.31.839L16.581,16.5a.8.8,0,0,1-1.059-.406l-.009-.021L14.162,12.8h0a14.419,14.419,0,0,0-5.714-1.64A12.94,12.94,0,0,0,3.515,12.6h0a1.6,1.6,0,0,1-2.126-.789Q1.366,11.758,1.345,11.7Z" transform="translate(0 0)" fill="#e4e4e4" fill-rule="evenodd"/>
          </g>
          <g id="Right-_Shoe_" data-name="Right-{Shoe]" transform="translate(153.769 0)">
            <path id="shoe-2" data-name="shoe" d="M1.346,11.7A17.216,17.216,0,0,1,0,6.33,40.231,40.231,0,0,1,.723,0H45.945q1.763,5.828-2.035,6.292t-6.31.839L16.581,16.5a.8.8,0,0,1-1.059-.406l-.009-.021L14.162,12.8h0a14.419,14.419,0,0,0-5.714-1.64A12.94,12.94,0,0,0,3.515,12.6h0a1.6,1.6,0,0,1-2.126-.789Q1.366,11.758,1.346,11.7Z" transform="translate(0 0)" fill="#e4e4e4" fill-rule="evenodd"/>
          </g>
          <path id="Pant" d="M31.555,0,81.109,5.378,41.177,175.137H0Z" transform="translate(88.539 16.49)" fill="#56919c" fill-rule="evenodd"/>
          <path id="Pant-2" data-name="Pant" d="M0,38.475,32.5,0q51.354,56.088,59.88,73.2t15.327,92.683H57.743Q54.028,99.39,52.734,96.3T0,38.475Z" transform="translate(21.041 25.749)" fill="#89c5cc" fill-rule="evenodd"/>
        </g>
      </g>
      <g id="Body" transform="translate(32.393 115.865) rotate(14)">
        <g id="Body_Jacket_2" data-name="Body/Jacket 2" transform="translate(0 0)">
          <path id="SKIN-4" data-name="SKIN" d="M39.7,68.152l16.43-3.26Q31.34,18.7,29.542,15.931c-2.7-4.157-.181-11.776.749-15.788-5.833-1.358-3.533,7.421-10.914,5.588C12.639,4.059,6.927-.235.645,5.556c-.772.712-1.338,2.938,1.3,4.079C8.5,12.478,18.194,17.8,19.766,19.87Q22.981,24.1,39.7,68.152ZM202.2,92.8l-.3-.437c-2.477-3.647-4.794-7.472-3.8-8.744,1.033-1.322,4.023.137,5.2-2.013q1.182-2.15-15.121-5.145L166.427,59.782,157.15,71.666,186.2,84.425a68.818,68.818,0,0,0,14.743,11.564C202.363,96.439,204.784,96.576,202.2,92.8Z" fill="#d4a181" fill-rule="evenodd"/>
          <path id="Coat-Back" d="M0,79.217l6.8,1.789c16.32-13.277,25.526-47.8,35.958-51.562,9.862-3.558,22.928,1.863,38.4,8.993l5.847-10.5C73.868,10.967,44.113-5,30.919,1.474,9.825,11.827,1.417,54.663,0,79.217Z" transform="translate(93.875 50.708) rotate(-5)" fill="#56919c" fill-rule="evenodd"/>
          <path id="Shirt" d="M0,0H61.345c2.8,0,2.275,4.047,1.87,6.09C58.539,29.663,40.283,55.073,40.283,88.629L22.588,91.4C7.952,67.864,2.89,38.883,0,0Z" transform="translate(70.557 42.495)" fill="#c7d1d9" fill-rule="evenodd"/>
          <path id="Coat-Front" d="M78.965,116.259Q102.793,35.034,92.1,8.018H36.882a201.588,201.588,0,0,0,7.512,40.706Q25.636,14.885,12.859,0L0,2.518q12.424,77.054,71.959,113.74Z" transform="translate(20.045 17.639)" fill="#89c5cc" fill-rule="evenodd"/>
        </g>
      </g>
    </g>
    <g id="Object" transform="matrix(0.866, 0.5, -0.5, 0.866, 1554.28, 187.404)">
      <g id="Object_Idea" data-name="Object/Idea" transform="translate(0 0)">
        <g id="Rectangle-_-Path-117-Mask" data-name="Rectangle-+-Path-117-Mask" transform="translate(0)">
          <path id="Mask" d="M22.872,58.636c12.038,0,11.63,0,11.85-9.775.188-8.36,11.022-8.36,11.022-25.89C45.745,7.858,32.845,0,22.872,0S0,7.858,0,22.971C0,40.5,10.232,40.5,10.558,48.861,10.939,58.632,10.834,58.636,22.872,58.636Z" fill="#9292c8" fill-rule="evenodd"/>
          <path id="Path-117" d="M6.317,1.236a2.869,2.869,0,0,1,5.124.872l.031.122.079.345a.39.39,0,0,0,.683.159l.03-.043.5-.826a3.307,3.307,0,0,1,5.864.416l.052.127a1.089,1.089,0,0,0,1.83.339l.055-.067.445-.584A2.325,2.325,0,0,1,25.15,3.917l-.02.1-4.9,21.795a1.248,1.248,0,0,1-2.448-.475l.014-.072L22.524,4.228l-.061.077a3.585,3.585,0,0,1-1.356,1.014l-.133.054A3.584,3.584,0,0,1,16.35,3.3a.812.812,0,0,0-1.415-.189l-.037.055-.5.826a2.885,2.885,0,0,1-5.253-.762l-.024-.1L9.04,2.786A.374.374,0,0,0,8.4,2.619l-.029.037-.275.4A4.087,4.087,0,0,1,2.712,4.279l-.025-.015L8.249,25.216a1.247,1.247,0,0,1-.815,1.5l-.07.021a1.248,1.248,0,0,1-1.505-.816l-.021-.07L.075,4.145A2.214,2.214,0,0,1,3.6,1.851l.081.068a1.59,1.59,0,0,0,2.245-.138l.06-.072.056-.076Z" transform="translate(9.936 22.287)" fill="#fff"/>
          <rect id="Rectangle" width="24.536" height="1.248" transform="translate(10.396 51.151)" fill="#fff"/>
          <rect id="Rectangle-Copy" width="24.536" height="1.248" transform="translate(10.396 47.824)" fill="#fff"/>
          <rect id="Rectangle-2" data-name="Rectangle" width="24.536" height="1.248" transform="translate(10.396 54.894)" fill="#fff"/>
        </g>
      </g>
    </g>
    <g id="_4782108" data-name="4782108" transform="translate(1013.26 209.79)">
      <g id="Floor">
        <path id="Path_535" data-name="Path 535" d="M447.54,478.19c0,.15-88.45.26-197.53.26s-197.55-.11-197.55-.26,88.43-.26,197.55-.26S447.54,478.05,447.54,478.19Z" transform="translate(-28.38 -25.1)" fill="#263238"/>
      </g>
      <g id="Plant-Right" transform="translate(59.794 283.928)" opacity="0.7">
        <path id="Leaf-Me-Alone_" data-name="Leaf-Me-Alone!" d="M28.143,99.675c-5.743-.3-12.455-4.38-12.412-10.652.032-4.557.641-9.041.43-13.617a36.669,36.669,0,0,0-2.2-10.679C12.773,61.414,9.9,58.4,9.438,54.944a14.53,14.53,0,0,1,1.254-7.214c1.144-2.46.658-2.308-.863-4.633A58.45,58.45,0,0,1,2.569,28.671C.191,21.121-.979,12.465,1.016,4.683,1.269,3.695,1.824.112,3.232.005c1.573-.119.635,1.865.483,2.522-.971,4.19-1.828,7.853-1.648,12.231.7,16.895,11.479,29.111,17.767,44.048.351.773,1.07,2.6,1.577,3.811.8,1.91,1.434,5.452,2.634,6.931,2.259,2.788.471-2.528.081-3.547-.493-1.29-1.04-2.664-1.565-3.8-2.393-5.281-5.077-11.053-7.549-16.5,13.336-1.6,20.863,15.023,23.276,25.685,1.988,8.784,3.35,28.975-10.145,28.291" transform="matrix(-0.995, 0.105, -0.105, -0.995, 50.616, 145.109)" fill="#56919c" fill-rule="evenodd"/>
        <path id="Leaf-Me-Alone_2" data-name="Leaf-Me-Alone!" d="M151.823,78.051c-9.6.762-15.763,7.1-18.632,15.957-1.546,4.775-1.724,9.68-2.583,14.587a31.162,31.162,0,0,1-9.509,18.237,18.347,18.347,0,0,0-3.806,5.091,21.685,21.685,0,0,0-4.394,6.28c-1.43,3.157-1.835,6.944-.184,10.091a10.343,10.343,0,0,0,2.7,3.316,64.99,64.99,0,0,0-6.395,29.19c.161,6.043.456,12.09.8,18.126.093,1.621.62,4.3,1.413,1.579.726-2.486-.184-6.39-.268-8.987-.41-12.653-.76-24.158,4.449-35.98.546-1.239,1.126-2.468,1.728-3.687a1.211,1.211,0,0,0,.1-.069c.023.018.044.037.067.054.038-.069.091-.151.153-.242a3.29,3.29,0,0,0,.468-.656,4.76,4.76,0,0,0,.988-1.8s0-.008,0-.011a170.374,170.374,0,0,1,10.69-15.113c-.028.036,4.092-5.574,3.455-2.472-.307,1.5-3.338,4.342-4.562,5.926a147.566,147.566,0,0,0-8.529,12.3,6.214,6.214,0,0,0-1.221,1.955c-.2.379-.388.76-.572,1.093,9.362,3.093,16.645-3.138,21.611-10.384l.017-.026a31.5,31.5,0,0,1,4.993-5.574c3.226-2.642,6.682-3.108,10.486-4.408,10.375-3.545,14.786-16.99,16.186-26.967,1.581-11.255-6.151-28.514-19.649-27.4" transform="translate(-62.645 -44.966)" fill="#89c5cc" fill-rule="evenodd"/>
        <path id="Leaf-Me-Alone_3" data-name="Leaf-Me-Alone!" d="M41.26.96C30.075,9.744,23.382,23.166,17.788,35.883c-6.247,14.2-11.111,28.834-13.378,44.2C2.921,90.171,1.218,100.3.389,110.472A108.43,108.43,0,0,0,.017,121.35c.006.3.164,8.392,1.639,6.719.839-.952-.149-8.394-.132-9.609a155.665,155.665,0,0,1,1.844-20.4C5,86.93,6.232,75.8,8.921,64.855a37.962,37.962,0,0,1,1.4-4.922c.66-1.665.022-.988,1.48-1.479,1.416-.478,3.038-.153,4.528-.792,5.91-2.537,9.887-10.627,12.837-15.887a107.641,107.641,0,0,0,7.98-19.118A141.436,141.436,0,0,0,41.1,8.124a38.848,38.848,0,0,1,1.1-4.7,10.839,10.839,0,0,0,.7-1.454C42.973,1.187,42.567.662,42.62,0q-.69.465-1.361.96" transform="translate(29.223 6.358) rotate(-8)" fill="#89c5cc" fill-rule="evenodd"/>
        <path id="Base" d="M38,328a30.707,30.707,0,0,0,61.414,0" transform="translate(-21.511 -189.805)" fill="#89c5cc" fill-rule="evenodd"/>
        <path id="Leaf-Me-Alone_4" data-name="Leaf-Me-Alone!" d="M133.2,264.036c7.6-.56,16.087,5.571,19.753,11.951,2.955,5.144,2.457,11.9.632,17.365-1.222,3.659-3.89,8.876-8.339,8.926-5.566.064-5.834-6.816-5.942-10.837-.143-5.347-.819-10-5.032-13.649-.982-.849-2.055-1.6-3.047-2.433-1.553-1.31-3.269-2.652-3.469-4.82-.276-2.991,1.412-3.529,3.99-2.974.44.095,4.866,2.081,4.211.511a2.919,2.919,0,0,0-1.853-1.145,34.7,34.7,0,0,0-6.052-.381c-8.831,1.938-12.27,14.171-13.183,21.944-.1.839-.178,1.681-.248,2.524H113a54.47,54.47,0,0,1,.6-6.081c1.3-7.7,5.372-19.007,14.3-20.256a23.053,23.053,0,0,1,3.008.032A5.418,5.418,0,0,1,133.2,264.036Z" transform="translate(-64.963 -152.726)" fill="#56919c" fill-rule="evenodd"/>
      </g>
    </g>
    <g id="Calendar" transform="translate(934.369 129.764)">
      <g transform="matrix(1, 0, 0, 1, 93.63, 10.64)" filter="url(#Rectangle_13)">
        <rect id="Rectangle_13-2" data-name="Rectangle 13" width="316.342" height="316.342" rx="10" transform="translate(9 19.1)" fill="#fff"/>
      </g>
      <path id="Path_413" data-name="Path 413" d="M155.373,88.849a.745.745,0,0,1-.473-.172l-3.826-3.425a.7.7,0,0,1-.244-.487.717.717,0,0,1,.2-.53l3.812-4.113a.714.714,0,0,1,1,1.018l-3.339,3.54,3.282,2.866a.831.831,0,0,1-.416,1.3Z" transform="translate(-19.943 -14.239)" fill="#263238"/>
      <path id="Path_414" data-name="Path 414" d="M331.211,88.844a.674.674,0,0,1-.487-.186.716.716,0,0,1,0-1.017l3.353-3.568-3.267-2.866a.717.717,0,1,1,.96-1.06l3.74,3.339a.731.731,0,0,1,.244.5.759.759,0,0,1-.186.516l-3.783,4.127a.659.659,0,0,1-.573.215Z" transform="translate(57.877 -14.233)" fill="#263238"/>
      <path id="Path_415" data-name="Path 415" d="M240.692,89.452V82.473l-3.425,5.732h-1.2l-3.411-5.589v6.822H230.13V77.83h2.236l4.3,7.165,4.3-7.165h2.207V89.452Z" transform="translate(14.402 -15.143)" fill="#263238"/>
      <path id="Path_416" data-name="Path 416" d="M249.125,83.589v5.1H246.7V87.573a2.866,2.866,0,0,1-2.694,1.2c-2.092,0-3.339-1.161-3.339-2.709s1.118-2.666,3.841-2.666h2.064c0-1.118-.674-1.763-2.064-1.763a4.3,4.3,0,0,0-2.58.831l-.917-1.806a6.793,6.793,0,0,1,3.841-1.075C247.549,79.634,249.125,80.895,249.125,83.589Zm-2.58,2.322v-.917h-1.777c-1.218,0-1.591.459-1.591,1.046s.545,1.089,1.433,1.089A1.92,1.92,0,0,0,246.546,85.911Z" transform="translate(18.966 -14.381)" fill="#263238"/>
      <path id="Path_417" data-name="Path 417" d="M257.385,79.71l-4.041,9.473a3.683,3.683,0,0,1-3.7,2.866,3.97,3.97,0,0,1-2.494-.817L248.1,89.4a2.322,2.322,0,0,0,1.433.559c.717,0,1.118-.315,1.433-1.118v-.072l-3.855-9h2.709l2.508,6.062,2.522-6.062Z" transform="translate(21.756 -14.329)" fill="#263238"/>
      <path id="Path_418" data-name="Path 418" d="M441.766,104.033c0,.2-68.431.373-152.84.373S136,104.233,136,104.033s68.431-.373,152.869-.373S441.766,103.818,441.766,104.033Z" transform="translate(-26.366 -3.956)" fill="#e0e0e0"/>
      <path id="Path_419" data-name="Path 419" d="M158.07,126.7V121.91l-2.336,3.941H154.9L152.524,122v4.686H150.79V118.7h1.519l3,4.959,2.866-4.959h1.519v7.982Z" transform="translate(-19.961 2.558)" fill="#263238"/>
      <path id="Path_420" data-name="Path 420" d="M158,123.231a3.382,3.382,0,1,1,3.368,3.153A3.153,3.153,0,0,1,158,123.231Zm4.93,0a1.548,1.548,0,1,0-.4,1.194A1.562,1.562,0,0,0,162.932,123.231Z" transform="translate(-16.84 2.956)" fill="#263238"/>
      <path id="Path_421" data-name="Path 421" d="M169.78,122.649v3.511H168v-3.267c0-.989-.444-1.433-1.232-1.433s-1.433.516-1.433,1.648v3.038H163.56v-6.119h1.705v.717a2.637,2.637,0,0,1,2.021-.8,2.393,2.393,0,0,1,2.494,2.709Z" transform="translate(-14.43 3.094)" fill="#263238"/>
      <path id="Path_422" data-name="Path 422" d="M181.608,120.215H179v-1.5h6.951v1.5H183.4v6.478h-1.849Z" transform="translate(-7.743 2.562)" fill="#263238"/>
      <path id="Path_423" data-name="Path 423" d="M190.592,120v6.134H188.9V125.4a2.465,2.465,0,0,1-1.892.817,2.436,2.436,0,0,1-2.623-2.752V120h1.777v3.2c0,1.032.459,1.433,1.232,1.433s1.433-.53,1.433-1.662V120Z" transform="translate(-5.419 3.121)" fill="#263238"/>
      <path id="Path_424" data-name="Path 424" d="M195.927,123.6h-4.586a1.634,1.634,0,0,0,1.748,1.232,2.092,2.092,0,0,0,1.548-.6l.946,1.032a3.253,3.253,0,0,1-2.537.989,3.182,3.182,0,0,1-3.5-3.153,3.124,3.124,0,0,1,3.267-3.167,3.038,3.038,0,0,1,3.2,3.181C196.013,123.256,195.927,123.442,195.927,123.6Zm-4.658-1.046h3.024a1.533,1.533,0,0,0-3.024,0Z" transform="translate(-3.174 3.089)" fill="#263238"/>
      <path id="Path_425" data-name="Path 425" d="M188.819,145.5v7.982H188v-7.266H186.11v-.731Z" transform="translate(-4.663 14.161)"/>
      <path id="Path_426" data-name="Path 426" d="M218.113,152.758v.731h-5.589V152.9l3.31-3.239c.9-.889,1.075-1.433,1.075-1.978,0-.917-.645-1.433-1.863-1.433a2.709,2.709,0,0,0-2.178.888l-.588-.5a3.6,3.6,0,0,1,2.866-1.146c1.605,0,2.637.831,2.637,2.164a3.311,3.311,0,0,1-1.3,2.494l-2.723,2.666Z" transform="translate(6.671 14.158)"/>
      <path id="Path_427" data-name="Path 427" d="M244.952,151.189c0,1.333-.96,2.35-2.866,2.35a4.127,4.127,0,0,1-2.866-1.018l.4-.645a3.482,3.482,0,0,0,2.465.917c1.318,0,2.049-.616,2.049-1.605s-.674-1.591-2.15-1.591h-.573V149l2.207-2.766h-4.07V145.5h5.087v.588l-2.264,2.866C244.092,149.083,244.952,149.914,244.952,151.189Z" transform="translate(18.339 14.165)" fill="#fff"/>
      <path id="Path_428" data-name="Path 428" d="M272.965,151.376H271.36v2.107h-.817v-2.107H266v-.588l4.3-5.288h.9l-4.07,5.145H270.6V148.81h.788v1.834h1.605Z" transform="translate(29.937 14.165)"/>
      <path id="Path_429" data-name="Path 429" d="M163.03,172.6v.6l-3.267,7.38h-.889l3.282-7.251h-4.1v1.433h-.817V172.54Z" transform="translate(-17.167 25.876)"/>
      <path id="Path_430" data-name="Path 430" d="M190.6,178.358c0,1.433-1.2,2.293-3.11,2.293s-3.067-.889-3.067-2.293a1.992,1.992,0,0,1,1.533-1.963,1.791,1.791,0,0,1-1.247-1.748c0-1.3,1.1-2.107,2.78-2.107s2.866.8,2.866,2.107a1.806,1.806,0,0,1-1.275,1.748,2.006,2.006,0,0,1,1.519,1.963Zm-.846,0c0-.975-.846-1.591-2.264-1.591s-2.236.616-2.236,1.591.831,1.605,2.236,1.605,2.264-.631,2.264-1.619Zm-2.264-2.293c1.247,0,1.992-.545,1.992-1.433s-.788-1.433-1.992-1.433-1.963.545-1.963,1.433S186.254,176.065,187.487,176.065Z" transform="translate(-5.395 25.876)"/>
      <path id="Path_431" data-name="Path 431" d="M217.659,176.51c0,2.709-1.433,4.127-3.64,4.127a3.6,3.6,0,0,1-1.892-.444l.33-.659a2.766,2.766,0,0,0,1.548.387c1.72,0,2.866-1.1,2.866-3.282v-.645a2.565,2.565,0,0,1-2.451,1.433,2.422,2.422,0,0,1-2.68-2.393,2.479,2.479,0,0,1,2.723-2.451C216.512,172.526,217.659,173.988,217.659,176.51Zm-1.132-1.591c0-.874-.731-1.705-2.107-1.705a1.748,1.748,0,0,0-1.949,1.734c0,1.046.774,1.72,2.006,1.72a1.849,1.849,0,0,0,2.049-1.748Z" transform="translate(6.437 25.89)"/>
      <path id="Path_432" data-name="Path 432" d="M239.814,172.58v7.982H239v-7.251H237.12v-.731Z" transform="translate(17.429 25.893)"/>
      <path id="Path_433" data-name="Path 433" d="M240.37,176.6c0-2.551,1.333-4.056,3.181-4.056s3.2,1.5,3.2,4.056-1.347,4.056-3.2,4.056S240.37,179.132,240.37,176.6Zm5.532,0c0-2.135-.96-3.31-2.35-3.31s-2.35,1.175-2.35,3.31.96,3.3,2.35,3.3S245.9,178.717,245.9,176.6Z" transform="translate(18.837 25.876)"/>
      <path id="Path_434" data-name="Path 434" d="M268.327,172.58v7.982h-.76v-7.251H265.69v-.731Z" transform="translate(29.803 25.893)"/>
      <path id="Path_435" data-name="Path 435" d="M271.214,172.58v7.982H270.4v-7.251H268.52v-.731Z" transform="translate(31.028 25.893)"/>
      <path id="Path_436" data-name="Path 436" d="M294.814,172.58v7.982H294v-7.251H292.12v-.731Z" transform="translate(41.249 25.893)" fill="#fff"/>
      <path id="Path_437" data-name="Path 437" d="M300.893,179.834v.731H295.3v-.588l3.31-3.239c.9-.889,1.075-1.433,1.075-1.978,0-.917-.659-1.433-1.877-1.433a2.737,2.737,0,0,0-2.178.889l-.573-.5a3.569,3.569,0,0,1,2.866-1.132c1.619,0,2.637.817,2.637,2.15a3.253,3.253,0,0,1-1.3,2.494l-2.709,2.666Z" transform="translate(42.523 25.89)" fill="#fff"/>
      <path id="Path_438" data-name="Path 438" d="M322.129,172.58v7.982H321.3v-7.251H319.42v-.731Z" transform="translate(53.073 25.893)"/>
      <path id="Path_439" data-name="Path 439" d="M328.052,178.282c0,1.333-.975,2.365-2.866,2.365a4.1,4.1,0,0,1-2.866-1.032l.387-.645a3.526,3.526,0,0,0,2.479.917c1.318,0,2.049-.616,2.049-1.605s-.674-1.576-2.15-1.576h-.573v-.645l2.207-2.78h-4.07v-.731h5.116v.645l-2.25,2.866C327.193,176.061,328.052,177.007,328.052,178.282Z" transform="translate(54.329 25.88)"/>
      <path id="Path_440" data-name="Path 440" d="M159.709,199.519V207.5h-.817v-7.28H157v-.731Z" transform="translate(-17.271 37.548)"/>
      <path id="Path_441" data-name="Path 441" d="M167.088,205.4H165.5v2.092h-.817V205.4h-4.5v-.6l4.3-5.288h.9l-4.07,5.159h3.454V202.82h.8v1.849h1.519Z" transform="translate(-15.894 37.557)"/>
      <path id="Path_442" data-name="Path 442" d="M187.3,199.519V207.5h-.831v-7.28H184.59v-.731Z" transform="translate(-5.322 37.548)"/>
      <path id="Path_443" data-name="Path 443" d="M193.312,205.142c0,1.361-.946,2.422-2.866,2.422a4.085,4.085,0,0,1-2.866-1.032l.4-.645a3.439,3.439,0,0,0,2.436.917c1.361,0,2.078-.659,2.078-1.619s-.631-1.677-2.666-1.677h-1.648l.4-4h4.3v.7h-3.654l-.272,2.551h1.032C192.481,202.792,193.312,203.738,193.312,205.142Z" transform="translate(-4.027 37.557)"/>
      <path id="Path_444" data-name="Path 444" d="M214.324,199.519V207.5h-.817v-7.28H211.63v-.731Z" transform="translate(6.389 37.548)"/>
      <path id="Path_445" data-name="Path 445" d="M220.81,205.132a2.494,2.494,0,0,1-2.723,2.451c-2.121,0-3.267-1.433-3.267-4s1.433-4.113,3.64-4.113a3.583,3.583,0,0,1,1.892.43l-.33.659a2.866,2.866,0,0,0-1.548-.373c-1.72,0-2.866,1.1-2.866,3.267v.645a2.551,2.551,0,0,1,2.436-1.361,2.408,2.408,0,0,1,2.766,2.393Zm-.8,0c0-1.046-.774-1.72-2.006-1.72a1.849,1.849,0,0,0-2.049,1.748c0,.874.717,1.705,2.107,1.705a1.748,1.748,0,0,0,1.978-1.72Z" transform="translate(7.771 37.538)"/>
      <path id="Path_446" data-name="Path 446" d="M241.6,199.519V207.5h-.817v-7.28H238.91v-.731Z" transform="translate(18.204 37.548)"/>
      <path id="Path_447" data-name="Path 447" d="M247.8,199.527v.588l-3.339,7.395h-.889l3.282-7.251h-4.1v1.433H242V199.47Z" transform="translate(19.543 37.539)"/>
      <path id="Path_448" data-name="Path 448" d="M268.614,199.519V207.5H267.8v-7.28H265.92v-.731Z" transform="translate(29.902 37.548)"/>
      <path id="Path_449" data-name="Path 449" d="M275.277,205.288c0,1.433-1.2,2.293-3.1,2.293s-3.081-.888-3.081-2.293a1.992,1.992,0,0,1,1.533-1.963,1.791,1.791,0,0,1-1.247-1.748c0-1.3,1.1-2.107,2.795-2.107s2.866.8,2.866,2.107a1.806,1.806,0,0,1-1.275,1.748A2.006,2.006,0,0,1,275.277,205.288Zm-.846,0c0-.974-.846-1.591-2.25-1.591s-2.25.616-2.25,1.591.831,1.605,2.25,1.605,2.25-.631,2.25-1.619Zm-2.25-2.193c1.232,0,1.978-.559,1.978-1.433s-.788-1.433-1.978-1.433-1.978.545-1.978,1.433S270.934,203.1,272.181,203.1Z" transform="translate(31.279 37.539)"/>
      <path id="Path_450" data-name="Path 450" d="M295.934,199.519V207.5h-.817v-7.28H293.24v-.731Z" transform="translate(41.735 37.548)"/>
      <path id="Path_451" data-name="Path 451" d="M302.263,203.44c0,2.709-1.433,4.127-3.654,4.127a3.6,3.6,0,0,1-1.892-.444l.33-.659a2.866,2.866,0,0,0,1.548.387c1.72,0,2.866-1.118,2.866-3.282a5.784,5.784,0,0,0,0-.645,2.565,2.565,0,0,1-2.436,1.433,2.436,2.436,0,0,1-2.694-2.393,2.479,2.479,0,0,1,2.723-2.451C301.1,199.456,302.263,200.918,302.263,203.44Zm-1.132-1.591c0-.874-.731-1.705-2.107-1.705a1.748,1.748,0,0,0-1.949,1.734c0,1.046.774,1.72,2.006,1.72a1.849,1.849,0,0,0,2.049-1.748Z" transform="translate(43.073 37.553)"/>
      <path id="Path_452" data-name="Path 452" d="M325.337,206.764v.731h-5.6v-.588l3.325-3.239c.889-.889,1.06-1.433,1.06-1.978,0-.917-.645-1.433-1.863-1.433a2.737,2.737,0,0,0-2.178.889l-.588-.5a3.6,3.6,0,0,1,2.866-1.132c1.619,0,2.637.817,2.637,2.15a3.311,3.311,0,0,1-1.3,2.494l-2.723,2.666Z" transform="translate(53.103 37.554)"/>
      <path id="Path_453" data-name="Path 453" d="M324.25,203.526c0-2.551,1.333-4.056,3.181-4.056s3.2,1.5,3.2,4.056-1.347,4.056-3.2,4.056S324.25,206.062,324.25,203.526Zm5.532,0c0-2.135-.96-3.31-2.35-3.31s-2.35,1.175-2.35,3.31.96,3.3,2.35,3.3S329.782,205.647,329.782,203.526Z" transform="translate(55.165 37.539)"/>
      <path id="Path_454" data-name="Path 454" d="M162.913,231.609v.731h-5.589v-.573l3.31-3.253c.9-.889,1.075-1.433,1.075-1.963,0-.932-.645-1.433-1.863-1.433a2.694,2.694,0,0,0-2.178.889l-.588-.487a3.583,3.583,0,0,1,2.866-1.146c1.619,0,2.651.817,2.651,2.15a3.282,3.282,0,0,1-1.318,2.494l-2.709,2.666Z" transform="translate(-17.236 48.321)"/>
      <path id="Path_455" data-name="Path 455" d="M164.224,224.37v7.968h-.817V225.1H161.53v-.731Z" transform="translate(-15.309 48.323)"/>
      <path id="Path_456" data-name="Path 456" d="M189.317,231.609v.731h-5.6v-.573l3.325-3.253c.889-.889,1.06-1.433,1.06-1.963,0-.932-.645-1.433-1.863-1.433a2.737,2.737,0,0,0-2.178.889l-.588-.487a3.611,3.611,0,0,1,2.866-1.147c1.619,0,2.637.817,2.637,2.15a3.31,3.31,0,0,1-1.3,2.494l-2.723,2.666Z" transform="translate(-5.807 48.321)"/>
      <path id="Path_457" data-name="Path 457" d="M193.823,231.609v.731h-5.589v-.573l3.31-3.253c.9-.889,1.075-1.433,1.075-1.963,0-.932-.645-1.433-1.863-1.433a2.709,2.709,0,0,0-2.178.889l-.588-.487a3.6,3.6,0,0,1,2.866-1.146c1.605,0,2.637.817,2.637,2.15a3.31,3.31,0,0,1-1.3,2.494l-2.723,2.666Z" transform="translate(-3.849 48.321)"/>
      <path id="Path_458" data-name="Path 458" d="M216.543,231.609v.731h-5.589v-.573l3.31-3.253c.9-.889,1.075-1.433,1.075-1.963,0-.932-.659-1.433-1.877-1.433a2.737,2.737,0,0,0-2.178.889l-.573-.487a3.583,3.583,0,0,1,2.866-1.146c1.619,0,2.637.817,2.637,2.15a3.253,3.253,0,0,1-1.3,2.494l-2.709,2.666Z" transform="translate(5.991 48.321)"/>
      <path id="Path_459" data-name="Path 459" d="M220.912,230.045c0,1.333-.974,2.365-2.866,2.365a4.127,4.127,0,0,1-2.866-1.032l.387-.645a3.5,3.5,0,0,0,2.479.932c1.318,0,2.049-.616,2.049-1.619s-.674-1.576-2.15-1.576h-.573v-.6l2.207-2.766h-4.07v-.731h5.145v.573l-2.25,2.866C220.053,227.881,220.912,228.77,220.912,230.045Z" transform="translate(7.927 48.323)"/>
      <path id="Path_460" data-name="Path 460" d="M243.463,231.614v.731h-5.589v-.573l3.31-3.253c.9-.889,1.075-1.433,1.075-1.963,0-.932-.645-1.433-1.877-1.433a2.637,2.637,0,0,0-2.164.888l-.588-.5a3.583,3.583,0,0,1,2.866-1.146c1.619,0,2.651.817,2.651,2.15a3.267,3.267,0,0,1-1.318,2.494l-2.709,2.666Z" transform="translate(17.65 48.317)"/>
      <path id="Path_461" data-name="Path 461" d="M249.092,230.246h-1.605v2.092h-.817v-2.092h-4.5v-.588l4.3-5.288h.917l-4.2,5.2h3.468v-1.849h.788v1.849h1.648Z" transform="translate(19.616 48.323)"/>
      <path id="Path_462" data-name="Path 462" d="M270.973,231.61v.731h-5.6v-.573l3.325-3.253c.888-.889,1.06-1.433,1.06-1.963,0-.932-.645-1.433-1.863-1.433a2.737,2.737,0,0,0-2.178.889l-.573-.487a3.554,3.554,0,0,1,2.866-1.146c1.619,0,2.637.817,2.637,2.15a3.311,3.311,0,0,1-1.3,2.494l-2.709,2.666Z" transform="translate(29.564 48.321)"/>
      <path id="Path_463" data-name="Path 463" d="M275.432,229.988c0,1.433-.946,2.422-2.866,2.422a4.07,4.07,0,0,1-2.866-1.032l.387-.645a3.439,3.439,0,0,0,2.451.932c1.361,0,2.078-.674,2.078-1.634s-.631-1.662-2.666-1.662h-1.691l.4-4h4.371v.731h-3.654l-.272,2.537h1.032C274.53,227.637,275.432,228.583,275.432,229.988Z" transform="translate(31.539 48.323)"/>
      <path id="Path_464" data-name="Path 464" d="M298.033,231.609v.731h-5.6v-.573l3.325-3.253c.9-.889,1.075-1.433,1.075-1.963,0-.932-.659-1.433-1.877-1.433a2.737,2.737,0,0,0-2.178.889l-.573-.487a3.583,3.583,0,0,1,2.866-1.146c1.619,0,2.637.817,2.637,2.15a3.253,3.253,0,0,1-1.3,2.494l-2.709,2.666Z" transform="translate(41.284 48.321)"/>
      <path id="Path_465" data-name="Path 465" d="M302.95,229.982a2.494,2.494,0,0,1-2.723,2.451c-2.121,0-3.267-1.433-3.267-3.984s1.433-4.127,3.64-4.127a3.727,3.727,0,0,1,1.892.43l-.33.659a2.866,2.866,0,0,0-1.548-.373c-1.72,0-2.866,1.1-2.866,3.267a5.55,5.55,0,0,0,0,.659,2.537,2.537,0,0,1,2.436-1.433,2.408,2.408,0,0,1,2.766,2.451Zm-.817,0c0-1.046-.774-1.72-2.006-1.72A1.834,1.834,0,0,0,298.078,230c0,.874.731,1.72,2.107,1.72a1.748,1.748,0,0,0,1.949-1.705Z" transform="translate(43.346 48.301)"/>
      <path id="Path_466" data-name="Path 466" d="M325.337,231.609v.731h-5.6v-.573l3.325-3.253c.889-.889,1.06-1.433,1.06-1.963,0-.932-.645-1.433-1.863-1.433a2.737,2.737,0,0,0-2.178.889l-.588-.487a3.612,3.612,0,0,1,2.866-1.147c1.619,0,2.637.817,2.637,2.15a3.311,3.311,0,0,1-1.3,2.494l-2.723,2.666Z" transform="translate(53.103 48.321)"/>
      <path id="Path_467" data-name="Path 467" d="M329.951,224.387v.573l-3.339,7.395h-.888l3.282-7.237h-4.1v1.433h-.817V224.33Z" transform="translate(55.096 48.306)"/>
      <path id="Path_468" data-name="Path 468" d="M162.913,255.428v.731h-5.589v-.588l3.31-3.239c.9-.889,1.075-1.433,1.075-1.978,0-.917-.645-1.433-1.863-1.433a2.694,2.694,0,0,0-2.178.889l-.588-.5a3.583,3.583,0,0,1,2.866-1.146c1.619,0,2.651.831,2.651,2.164a3.282,3.282,0,0,1-1.318,2.494l-2.709,2.666Z" transform="translate(-17.236 58.625)"/>
      <path id="Path_469" data-name="Path 469" d="M168.017,253.953c0,1.433-1.2,2.279-3.11,2.279s-3.067-.874-3.067-2.279a1.992,1.992,0,0,1,1.533-1.963,1.791,1.791,0,0,1-1.247-1.748c0-1.3,1.1-2.121,2.78-2.121s2.866.817,2.866,2.121a1.806,1.806,0,0,1-1.275,1.748,2.006,2.006,0,0,1,1.519,1.963Zm-.846,0c0-.989-.846-1.591-2.264-1.591s-2.236.6-2.236,1.591.831,1.605,2.236,1.605,2.264-.631,2.264-1.619Zm-2.236-2.264c1.247,0,1.992-.559,1.992-1.433s-.788-1.433-1.992-1.433-1.963.545-1.963,1.433S163.674,251.688,164.936,251.688Z" transform="translate(-15.175 58.61)"/>
      <path id="Path_470" data-name="Path 470" d="M190.763,255.428v.731h-5.589v-.588l3.31-3.239c.9-.889,1.075-1.433,1.075-1.978,0-.917-.645-1.433-1.863-1.433a2.694,2.694,0,0,0-2.178.889l-.588-.5a3.583,3.583,0,0,1,2.866-1.146c1.619,0,2.651.831,2.651,2.164a3.282,3.282,0,0,1-1.318,2.494l-2.666,2.608Z" transform="translate(-5.175 58.625)"/>
      <path id="Path_471" data-name="Path 471" d="M195.553,252.122c0,2.709-1.433,4.113-3.654,4.113a3.583,3.583,0,0,1-1.892-.43l.33-.659a2.866,2.866,0,0,0,1.548.373c1.72,0,2.866-1.1,2.866-3.267a5.606,5.606,0,0,0,0-.645,2.551,2.551,0,0,1-2.436,1.361,2.422,2.422,0,0,1-2.694-2.393,2.494,2.494,0,0,1,2.723-2.451C194.464,248.123,195.553,249.6,195.553,252.122Zm-1.089-1.591c0-.874-.731-1.705-2.107-1.705a1.748,1.748,0,0,0-1.949,1.734c0,1.046.774,1.72,2.006,1.72a1.849,1.849,0,0,0,2.049-1.748Z" transform="translate(-3.143 58.606)"/>
      <path id="Path_476" data-name="Path 476" d="M298.982,151.132c0,1.361-.946,2.408-2.866,2.408a4.127,4.127,0,0,1-2.866-1.018l.4-.645a3.5,3.5,0,0,0,2.451.917c1.361,0,2.078-.659,2.078-1.634s-.645-1.662-2.666-1.662h-1.705l.416-4h4.3v.717h-3.654l-.272,2.537h1.032C298.065,148.767,298.982,149.713,298.982,151.132Z" transform="translate(41.739 14.165)"/>
      <path id="Path_477" data-name="Path 477" d="M326.26,151.112a2.465,2.465,0,0,1-2.709,2.451c-2.121,0-3.282-1.433-3.282-3.984s1.433-4.127,3.654-4.127a3.6,3.6,0,0,1,1.892.444l-.33.659a2.866,2.866,0,0,0-1.548-.387c-1.734,0-2.866,1.118-2.866,3.282a5.8,5.8,0,0,0,0,.645,2.551,2.551,0,0,1,2.436-1.361,2.408,2.408,0,0,1,2.752,2.379Zm-.8,0c0-1.046-.774-1.72-2.006-1.72a1.849,1.849,0,0,0-2.049,1.748c0,.874.731,1.705,2.107,1.705a1.748,1.748,0,0,0,1.949-1.705Z" transform="translate(53.441 14.142)"/>
      <path id="Path_478" data-name="Path 478" d="M217.266,118.71l-2.608,7.982H212.68l-1.748-5.4-1.806,5.4h-1.978l-2.608-7.982h1.906l1.806,5.6,1.877-5.6h1.705l1.82,5.646,1.863-5.646Z" transform="translate(3.319 2.562)" fill="#263238"/>
      <path id="Path_479" data-name="Path 479" d="M219.84,123.6h-4.629a1.634,1.634,0,0,0,1.748,1.232,2.092,2.092,0,0,0,1.548-.6l.946,1.032a3.253,3.253,0,0,1-2.537.989,3.181,3.181,0,0,1-3.5-3.153,3.124,3.124,0,0,1,3.267-3.153,3.024,3.024,0,0,1,3.2,3.167C219.883,123.252,219.855,123.438,219.84,123.6Zm-4.658-1.046h3.024a1.533,1.533,0,0,0-3.024,0Z" transform="translate(7.164 3.093)" fill="#263238"/>
      <path id="Path_480" data-name="Path 480" d="M225.164,118.38v8.455h-1.705v-.717a2.322,2.322,0,0,1-1.906.8,3.153,3.153,0,0,1,0-6.306,2.35,2.35,0,0,1,1.834.731V118.38Zm-1.748,5.388a1.562,1.562,0,1,0-.409,1.189,1.576,1.576,0,0,0,.409-1.189Z" transform="translate(9.321 2.419)" fill="#263238"/>
      <path id="Path_481" data-name="Path 481" d="M236.021,120.215H233.47v-1.5h6.951v1.5H237.87v6.478h-1.849Z" transform="translate(15.848 2.562)" fill="#263238"/>
      <path id="Path_482" data-name="Path 482" d="M245.18,123.329v3.511H243.4v-3.267c0-.989-.459-1.433-1.232-1.433s-1.433.516-1.433,1.648v3.038H238.96V118.37h1.777v2.952a2.694,2.694,0,0,1,1.949-.717,2.393,2.393,0,0,1,2.494,2.723Z" transform="translate(18.226 2.415)" fill="#263238"/>
      <path id="Path_483" data-name="Path 483" d="M250.626,120v6.134h-1.691V125.4a2.494,2.494,0,0,1-1.906.817,2.436,2.436,0,0,1-2.623-2.752V120h1.777v3.2c0,1.032.459,1.433,1.247,1.433s1.433-.53,1.433-1.662V120Z" transform="translate(20.575 3.121)" fill="#263238"/>
      <path id="Path_484" data-name="Path 484" d="M265.849,120.212v2.121h3.7v1.433h-3.7v2.866H264V118.65h6.033v1.433Z" transform="translate(29.071 2.536)" fill="#263238"/>
      <path id="Path_485" data-name="Path 485" d="M272.718,119.942v1.634h-.387a1.519,1.519,0,0,0-1.634,1.72v2.866H268.92v-6.134h1.691v.8A2.494,2.494,0,0,1,272.718,119.942Z" transform="translate(31.202 3.093)" fill="#263238"/>
      <path id="Path_486" data-name="Path 486" d="M272.17,119.01a1.017,1.017,0,0,1,1.1-.989,1,1,0,0,1,1.1.96,1.1,1.1,0,1,1-2.207,0Zm.215,1.849h1.777v6.134h-1.777Z" transform="translate(32.609 2.262)" fill="#263238"/>
      <path id="Path_487" data-name="Path 487" d="M289.6,125.957l.631-1.433a4.715,4.715,0,0,0,2.623.831c1.1,0,1.548-.373,1.548-.86,0-1.433-4.643-.459-4.643-3.425,0-1.361,1.089-2.479,3.368-2.479a5.288,5.288,0,0,1,2.766.7l-.573,1.433a4.442,4.442,0,0,0-2.207-.631c-1.1,0-1.519.416-1.519.917,0,1.433,4.643.444,4.643,3.382,0,1.333-1.118,2.465-3.4,2.465a5.732,5.732,0,0,1-3.239-.9Z" transform="translate(40.158 2.51)" fill="#263238"/>
      <path id="Path_488" data-name="Path 488" d="M300.568,122.663v3.5h-1.662v-.774a2.021,2.021,0,0,1-1.863.86c-1.433,0-2.293-.8-2.293-1.863s.76-1.834,2.623-1.834h1.433c0-.76-.459-1.2-1.433-1.2a2.866,2.866,0,0,0-1.763.573l-.631-1.247a4.744,4.744,0,0,1,2.637-.731C299.479,119.94,300.568,120.8,300.568,122.663Zm-1.777,1.548v-.616h-1.218c-.831,0-1.089.3-1.089.717s.373.745.989.745A1.318,1.318,0,0,0,298.791,124.211Z" transform="translate(42.389 3.094)" fill="#263238"/>
      <path id="Path_489" data-name="Path 489" d="M304.1,126.244a2.537,2.537,0,0,1-1.433.387,2.006,2.006,0,0,1-2.279-2.193v-2.522h-.946v-1.433h.946V119.05h1.763v1.433h1.533v1.433h-1.533v2.494a.717.717,0,0,0,.774.8,1.247,1.247,0,0,0,.717-.215Z" transform="translate(44.42 2.709)" fill="#263238"/>
      <path id="Path_490" data-name="Path 490" d="M315.66,125.957l.631-1.433a4.729,4.729,0,0,0,2.637.831c1.089,0,1.533-.373,1.533-.86,0-1.433-4.643-.459-4.643-3.425,0-1.361,1.1-2.479,3.368-2.479a5.288,5.288,0,0,1,2.766.7l-.573,1.433a4.4,4.4,0,0,0-2.207-.631c-1.089,0-1.519.4-1.519.9,0,1.433,4.643.459,4.643,3.4,0,1.333-1.1,2.465-3.382,2.465A5.732,5.732,0,0,1,315.66,125.957Z" transform="translate(51.445 2.51)" fill="#263238"/>
      <path id="Path_491" data-name="Path 491" d="M327.286,120v6.134H325.6V125.4a2.494,2.494,0,0,1-1.906.817,2.436,2.436,0,0,1-2.623-2.752V120h1.777v3.2c0,1.032.459,1.433,1.247,1.433s1.433-.53,1.433-1.662V120Z" transform="translate(53.777 3.121)" fill="#263238"/>
      <path id="Path_492" data-name="Path 492" d="M332.814,122.654v3.511h-1.777V122.9c0-.989-.459-1.433-1.247-1.433s-1.433.516-1.433,1.648v3.038H326.58v-6.119h1.705v.717a2.637,2.637,0,0,1,2.021-.817,2.408,2.408,0,0,1,2.508,2.723Z" transform="translate(56.174 3.09)" fill="#263238"/>
      <circle id="Ellipse_83" data-name="Ellipse 83" cx="10.5" cy="10.5" r="10.5" transform="translate(210.631 299.236)" fill="#cacae5"/>
      <circle id="Ellipse_84" data-name="Ellipse 84" cx="10.5" cy="10.5" r="10.5" transform="translate(249.631 299.236)" fill="#cacae5"/>
      <rect id="Rectangle_26" data-name="Rectangle 26" width="86.986" height="20" rx="10" transform="translate(216.631 59.875)" fill="#cacae5"/>
    </g>
    <g id="Window" transform="translate(1398.189 250.056)">
      <g id="Window_Checkmark_3" data-name="Window/Checkmark 3" transform="translate(10 11)">
        <path id="Fill-141" d="M77.071,66.3H39.69l-12,12.778V66.3H24.341A14.341,14.341,0,0,1,10,51.956V25.34A14.34,14.34,0,0,1,24.341,11h52.73A14.34,14.34,0,0,1,91.412,25.34V51.956A14.341,14.341,0,0,1,77.071,66.3" transform="translate(-10 -11)" fill="#9292c8" fill-rule="evenodd"/>
        <path id="Fill-144" d="M65.974,36.92a20.3,20.3,0,1,1-20.3-20.3,20.3,20.3,0,0,1,20.3,20.3" transform="translate(-4.965 -9.16)" fill="#eff2f9" fill-rule="evenodd"/>
        <path id="Fill-146" d="M44.017,45.263,31.3,35.4l4.426-5.71,7.22,5.6,9.36-11.168,5.536,4.641Z" transform="translate(-3.021 -6.7)" fill="#3c34b5" fill-rule="evenodd"/>
      </g>
    </g>
    <circle id="Ellipse_54" data-name="Ellipse 54" cx="10.5" cy="10.5" r="10.5" transform="translate(1106 282)" fill="#cacae5"/>
    <circle id="Ellipse_65" data-name="Ellipse 65" cx="10.5" cy="10.5" r="10.5" transform="translate(1106 322)" fill="#3c34b5"/>
    <circle id="Ellipse_68" data-name="Ellipse 68" cx="10.5" cy="10.5" r="10.5" transform="translate(1106 359)" fill="#cacae5"/>
    <circle id="Ellipse_75" data-name="Ellipse 75" cx="10.5" cy="10.5" r="10.5" transform="translate(1106 394)" fill="#cacae5"/>
    <circle id="Ellipse_82" data-name="Ellipse 82" cx="10.5" cy="10.5" r="10.5" transform="translate(1106 429)" fill="#cacae5"/>
    <circle id="Ellipse_66" data-name="Ellipse 66" cx="10.5" cy="10.5" r="10.5" transform="translate(1067 322)" fill="#cacae5"/>
    <circle id="Ellipse_67" data-name="Ellipse 67" cx="10.5" cy="10.5" r="10.5" transform="translate(1067 359)" fill="#cacae5"/>
    <circle id="Ellipse_74" data-name="Ellipse 74" cx="10.5" cy="10.5" r="10.5" transform="translate(1067 394)" fill="#cacae5"/>
    <circle id="Ellipse_81" data-name="Ellipse 81" cx="10.5" cy="10.5" r="10.5" transform="translate(1067 429)" fill="#3c34b5"/>
    <circle id="Ellipse_55" data-name="Ellipse 55" cx="10.5" cy="10.5" r="10.5" transform="translate(1145 282)" fill="#cacae5"/>
    <circle id="Ellipse_64" data-name="Ellipse 64" cx="10.5" cy="10.5" r="10.5" transform="translate(1145 322)" fill="#cacae5"/>
    <circle id="Ellipse_69" data-name="Ellipse 69" cx="10.5" cy="10.5" r="10.5" transform="translate(1145 359)" fill="#cacae5"/>
    <circle id="Ellipse_76" data-name="Ellipse 76" cx="10.5" cy="10.5" r="10.5" transform="translate(1145 394)" fill="#cacae5"/>
    <circle id="Ellipse_56" data-name="Ellipse 56" cx="10.5" cy="10.5" r="10.5" transform="translate(1224 282)" fill="#cacae5"/>
    <circle id="Ellipse_62" data-name="Ellipse 62" cx="10.5" cy="10.5" r="10.5" transform="translate(1224 322)" fill="#cacae5"/>
    <circle id="Ellipse_71" data-name="Ellipse 71" cx="10.5" cy="10.5" r="10.5" transform="translate(1224 359)" fill="#cacae5"/>
    <circle id="Ellipse_78" data-name="Ellipse 78" cx="10.5" cy="10.5" r="10.5" transform="translate(1224 394)" fill="#cacae5"/>
    <circle id="Ellipse_58" data-name="Ellipse 58" cx="10.5" cy="10.5" r="10.5" transform="translate(1263 282)" fill="#cacae5"/>
    <circle id="Ellipse_61" data-name="Ellipse 61" cx="10.5" cy="10.5" r="10.5" transform="translate(1263 322)" fill="#9292c8"/>
    <circle id="Ellipse_72" data-name="Ellipse 72" cx="10.5" cy="10.5" r="10.5" transform="translate(1263 359)" fill="#cacae5"/>
    <circle id="Ellipse_79" data-name="Ellipse 79" cx="10.5" cy="10.5" r="10.5" transform="translate(1263 394)" fill="#cacae5"/>
    <circle id="Ellipse_59" data-name="Ellipse 59" cx="10.5" cy="10.5" r="10.5" transform="translate(1302 282)" fill="#cacae5"/>
    <circle id="Ellipse_60" data-name="Ellipse 60" cx="10.5" cy="10.5" r="10.5" transform="translate(1302 322)" fill="#cacae5"/>
    <circle id="Ellipse_73" data-name="Ellipse 73" cx="10.5" cy="10.5" r="10.5" transform="translate(1302 359)" fill="#cacae5"/>
    <circle id="Ellipse_80" data-name="Ellipse 80" cx="10.5" cy="10.5" r="10.5" transform="translate(1302 394)" fill="#9292c8"/>
    <circle id="Ellipse_57" data-name="Ellipse 57" cx="10.5" cy="10.5" r="10.5" transform="translate(1184 282)" fill="#cacae5"/>
    <circle id="Ellipse_63" data-name="Ellipse 63" cx="10.5" cy="10.5" r="10.5" transform="translate(1184 322)" fill="#cacae5"/>
    <circle id="Ellipse_70" data-name="Ellipse 70" cx="10.5" cy="10.5" r="10.5" transform="translate(1184 359)" fill="#3c34b5"/>
    <circle id="Ellipse_77" data-name="Ellipse 77" cx="10.5" cy="10.5" r="10.5" transform="translate(1184 394)" fill="#cacae5"/>
    <path id="Union_3" data-name="Union 3" d="M-6632.706,345.282a.607.607,0,0,1-.176-.426V341.3h-3.552a.6.6,0,0,1-.6-.6.6.6,0,0,1,.6-.6h3.552v-3.553a.6.6,0,0,1,.6-.6.6.6,0,0,1,.6.6V340.1h3.555a.6.6,0,0,1,.6.6.6.6,0,0,1-.6.6h-3.555v3.551a.6.6,0,0,1-.6.6h0A.6.6,0,0,1-6632.706,345.282Z" transform="translate(7827.034 29.051)" fill="#fff"/>
    <path id="Union_4" data-name="Union 4" d="M-6632.706,345.282a.607.607,0,0,1-.176-.426V341.3h-3.552a.6.6,0,0,1-.6-.6.6.6,0,0,1,.6-.6h3.552v-3.553a.6.6,0,0,1,.6-.6.6.6,0,0,1,.6.6V340.1h3.555a.6.6,0,0,1,.6.6.6.6,0,0,1-.6.6h-3.555v3.551a.6.6,0,0,1-.6.6h0A.6.6,0,0,1-6632.706,345.282Z" transform="translate(7749.034 -7.949)" fill="#fff"/>
    <path id="Union_5" data-name="Union 5" d="M-6632.706,345.282a.607.607,0,0,1-.176-.426V341.3h-3.552a.6.6,0,0,1-.6-.6.6.6,0,0,1,.6-.6h3.552v-3.553a.6.6,0,0,1,.6-.6.6.6,0,0,1,.6.6V340.1h3.555a.6.6,0,0,1,.6.6.6.6,0,0,1-.6.6h-3.555v3.551a.6.6,0,0,1-.6.6h0A.6.6,0,0,1-6632.706,345.282Z" transform="translate(7710.034 99.051)" fill="#fff"/>
    <path id="Path_557" data-name="Path 557" d="M1075.365,721.619l-4.593-4.01a.906.906,0,0,1,1.19-1.366l3.253,2.836,4.634-5.173a.906.906,0,0,1,1.349,1.209Z" transform="translate(197.555 -385.111)" fill="#fff"/>
    <path id="Path_558" data-name="Path 558" d="M1075.365,721.619l-4.593-4.01a.906.906,0,0,1,1.19-1.366l3.253,2.836,4.634-5.173a.906.906,0,0,1,1.349,1.209Z" transform="translate(236.555 -313.111)" fill="#fff"/>
  </g>
</svg>
