<svg xmlns="http://www.w3.org/2000/svg" xmlns:xlink="http://www.w3.org/1999/xlink" width="778.203" height="509" viewBox="0 0 778.203 509">
  <defs>
    <filter id="Background" x="380.102" y="5.363" width="96.637" height="96.637" filterUnits="userSpaceOnUse">
      <feOffset dy="3" input="SourceAlpha"/>
      <feGaussianBlur stdDeviation="3" result="blur"/>
      <feFlood flood-opacity="0.161"/>
      <feComposite operator="in" in2="blur"/>
      <feComposite in="SourceGraphic"/>
    </filter>
    <filter id="Background-2" x="499.168" y="69.362" width="101.27" height="101.27" filterUnits="userSpaceOnUse">
      <feOffset dy="3" input="SourceAlpha"/>
      <feGaussianBlur stdDeviation="3" result="blur-2"/>
      <feFlood flood-opacity="0.161"/>
      <feComposite operator="in" in2="blur-2"/>
      <feComposite in="SourceGraphic"/>
    </filter>
  </defs>
  <g id="enagement-surveys" transform="translate(-915.332 -141)">
    <g id="Ellipse_51" data-name="Ellipse 51" transform="translate(1080.334 141)" fill="#efeeff" stroke="#b8b4eb" stroke-width="1">
      <circle cx="254.5" cy="254.5" r="254.5" stroke="none"/>
      <circle cx="254.5" cy="254.5" r="254" fill="none"/>
    </g>
    <path id="Background-3" data-name="Background" d="M23,201.318c0,106.214,86.105,192.32,192.319,192.32s192.319-86.105,192.319-192.32S321.532,9,215.319,9,23,95.1,23,201.318" transform="translate(1119.516 255.362)" fill="#fcfcfc" fill-rule="evenodd"/>
    <g transform="matrix(1, 0, 0, 1, 915.33, 141)" filter="url(#Background)">
      <path id="Background-4" data-name="Background" d="M23,48.318A39.319,39.319,0,1,0,62.319,9,39.319,39.319,0,0,0,23,48.318" transform="translate(366.1 2.36)" fill="#fcfcfc" fill-rule="evenodd"/>
    </g>
    <path id="Background-5" data-name="Background" d="M23,50.635A41.635,41.635,0,1,0,64.635,9,41.636,41.636,0,0,0,23,50.635" transform="translate(1214.164 250.427)" fill="#cacae5" fill-rule="evenodd"/>
    <g id="Master_Scene_3_Characters" data-name="Master/Scene/3 Characters" transform="translate(867.332 90.066)">
      <g id="Background-6" data-name="Background" transform="translate(48 155.996)">
        <g id="Background_Plants" data-name="Background/Plants" transform="translate(0 0)">
          <path id="Leaf-Bottom" d="M0,4.98A38.858,38.858,0,0,1,.83,0,14.9,14.9,0,0,0,0,4.98ZM141.32,219.41c4.143,4.2,6.57-2.307,6.185-5.656-.454-3.95-2.439-7.461-4.745-10.548-.247-.326-.181-.314-.215.162a.956.956,0,0,0-.255-.519,60.165,60.165,0,0,0-.1-6.079,140.968,140.968,0,0,0-2.635-15.726q-.426-1.886-.944-3.737a30.636,30.636,0,0,0,6.281,3.581c2.961,1.145,7.494,2.312,10.253-.036a4.841,4.841,0,0,0,.172-7.247c-2.455-2.472-6.685-2.155-9.833-1.737-1.424.189-9.027,1.2-7.152,2.356a6.167,6.167,0,0,1-.76-.315q-.3-.905-.622-1.8c.043-.028.081-.059.127-.087-.051.025-.086.051-.13.077a70.162,70.162,0,0,0-8.776-16.834,16.545,16.545,0,0,0,4.007.848c4.01.3,12.227-3.239,7.493-8.31-4.538-4.86-10.9.943-15.713,1.95a226.983,226.983,0,0,0-16.314-18.131,1.3,1.3,0,0,0,.758-.7c2.238.992,4.593,2.455,6.632,2.778,2.944.465,8.934.526,11-2.2,2.539-3.346-.5-5.8-3.728-6.244-4.684-.648-10.634,1.935-15.015,3.7a1.476,1.476,0,0,0-1.376.541l-.288.11c-5.82-5.763-11.84-11.314-17.819-16.739h.184a15.458,15.458,0,0,0,4.908,1.936c4.035.762,8.722.521,11.8-2.531s3.948-8.119.447-11.167c-7.008-6.1-16.063,9.123-19.394,9.913-6.073-5.451-12.456-10.508-18.931-15.451a11.078,11.078,0,0,0,2.2.329c6.108.263,19.984-7.936,12.14-14.876C74.328,74.975,67.45,87.665,62.437,92.24c-6.1-4.6-12.226-9.172-18.2-13.94a16.633,16.633,0,0,0,9.455-.555c3.4-1.226,8.834-4.126,6.407-8.673-2.469-4.625-9.047-2.116-12.452-.428-1.858.92-5.524,3.891-8.809,5.233C29.281,65.755,20.9,56.7,14.339,45.854A100.426,100.426,0,0,1,4.634,24.245C3.107,19.429.172,11.361.34,4.98-1.383,17.825,3.739,32.875,8.99,44A95.718,95.718,0,0,0,28.642,70.94C27.056,76.7,11.636,85.7,21.385,90.466c5.177,2.518,10.088-2.368,10.933-7.315.579-3.4-.793-7.56-2.185-10.757q3.739,3.592,7.726,6.927c3.664,3.073,7.408,6.048,11.185,8.981-5.66,5.9-10.455,22.186-2.337,24.382,11.988,3.233,5.17-18.277,4.133-22.321a.644.644,0,0,0-.539.237c.047-.378.1-.782.175-1.19,7.225,5.582,14.547,11.043,21.651,16.774a31.19,31.19,0,0,0-2.184,3.22,34.9,34.9,0,0,0-4.229,6.9c-1.7,3.93-3.219,10.135,1.946,12.123,5.617,2.167,7.863-4.879,7.686-9-.123-2.852-1.042-5.519-1.592-8.292-.172-.865.109-4.818-.99-3.066a8.325,8.325,0,0,0-.036-1.4q1.914,1.551,3.8,3.137a1.48,1.48,0,0,0-.081.479,1.426,1.426,0,0,0,2.11,1.235q2.5,2.135,4.936,4.341c3.439,3.124,6.932,6.339,10.4,9.629-.682.651-.354,1.486-.987,2.172s-1.927,1.113-2.68,1.757a18.993,18.993,0,0,0-4.48,6.162c-1.764,3.7-3.891,11.382,1.9,12.8,5.972,1.463,8.575-5.96,8.716-10.523a116.027,116.027,0,0,0-1.7-11.635c6.427,6.114,12.768,12.475,18.55,18.981-1.644.1-6.133,3.718-7.028,4.686-2.183,2.365-5.582,7.515-1.409,9.927,3.709,2.139,7.954-1.463,9.316-4.819a46.035,46.035,0,0,0,.8-7.876c2.4,2.761,4.691,5.546,6.837,8.347q2.146,2.794,4.045,5.744a2.7,2.7,0,0,0-.75.821c-5.929,1.329-13.068,11.063-5.871,13.943,3.427,1.369,6.888-2.009,8.39-4.705a34.807,34.807,0,0,0,1.042-5.4,112.123,112.123,0,0,1,8.95,20.682,1.308,1.308,0,0,0-.956,1.266c-2.818,1.808-5.04,3.307-6.9,6.6-1.156,2.043-3.187,6.681.571,7.585,4.892,1.176,7.532-6.339,7.736-9.984.024-.423-.042-1.647-.117-2.767a1.62,1.62,0,0,0,.5-.035c1.342,4.451,2.465,8.972,3.407,13.511C139.2,203.7,139.466,217.536,141.32,219.41Zm11.26-12.482c4.181,1.807,9.489-.822,6.944-6.044-2.727-5.592-11.7-5.192-16.767-4.813.509,0,2.417,5.159,3.018,5.922A17.2,17.2,0,0,0,152.58,206.928Z" transform="matrix(-0.999, -0.052, 0.052, -0.999, 590.445, 292.857)" fill="#f2f2f2" fill-rule="evenodd"/>
          <g id="Plant-Left" transform="translate(0 138.498)" opacity="0.5">
            <path id="Leaf" d="M145.229,99.585c2.076-2.961,5.93-10.481,8.852-11.539,1.883-.681,1.334,6.368,1.357,7.712a112.7,112.7,0,0,1-1.041,15.524c-1.127,9.3-4.809,17.582-9.861,25.5-2.6,4.073-5.648,8.2-9.871,10.736-1.943,1.171-4.282,1.366-6.2,2.375-2.236,1.174-1.018.225-2.026,2.554-1.4,3.235-1.847,7.408-2.494,10.859-2.972,15.843-10.169,99.595-8.921,115.71.111,1.429-1.881,1.77-1.98.026-.528-9.246,4.045-73.275,6.352-94.214s4.642-39.438,6.983-46.683c2.84-8.789,7.969-19.358,12.239-27.555A97.507,97.507,0,0,1,145.229,99.585Z" transform="translate(-57.162 -44.516)" fill="#56919c" fill-rule="evenodd"/>
            <path id="Leaf-2" data-name="Leaf" d="M158.618,318.126c5.4-3.967,11.252,3.52,6.363,7.487a4.9,4.9,0,0,1-7.12-.415c-1.033,1.259-2,2.575-2.928,3.687-2.83,3.388-5.5,6.857-8.06,10.406-5.31,7.374-9.861,15.165-14.619,22.813-4.7,7.548-9.353,15.135-13.609,22.875-3.605,6.557-8.411,14.271-9.645,21.46,1.873-15.246,8.979-29.9,17.442-43.34,8.394-13.33,18.027-27.888,31.023-38.408A4.6,4.6,0,0,1,158.618,318.126Z" transform="translate(-55.139 -160.358)" fill="#c1dee2" fill-rule="evenodd"/>
            <path id="Leaf-3" data-name="Leaf" d="M.945,244.015c3.024.591,7.965,7.431,10.457,10.037a97.612,97.612,0,0,1,8.183,9.857,166.719,166.719,0,0,1,14.478,23.614,219.489,219.489,0,0,1,16.108,41.922,172.875,172.875,0,0,1,4.888,27.5c.174,1.741,2,15.164-.631,15.526-2.365.326-1.635-10.192-1.749-11.623a185.827,185.827,0,0,0-10.53-47.06c-1.171-3.314-2.259-7.374-4.131-10.356-1.348-2.148-.01-1.4-2.379-2.212-2.035-.7-4.353-.528-6.437-1.383-4.527-1.856-8.151-5.46-11.328-9.085C11.7,283.7,6.806,276.084,4.256,267.057a114.055,114.055,0,0,1-3.436-15.2C.633,250.524-1,243.634.945,244.015Z" transform="translate(0 -123.43)" fill="#56919c" fill-rule="evenodd"/>
            <path id="Leaf-4" data-name="Leaf" d="M18.948,6.778A274.013,274.013,0,0,1,45.741,70.205c3.662,13.316,6.222,26.979,8.767,40.544,3.939,21,7.666,42.006,8.725,63.383,1.066,21.5,3.175,46.3-3.865,67.008,3.517-21.025.169-43.4-.424-64.559-.283-10.1-1.1-20.1-2.181-30.14-1.045-9.739-2.752-19.432-4.342-29.1q-1.162-7.059-2.416-14.1c-.247-1.4-.352-5.559-1.24-6.516s-5.459-1.356-6.892-2.064a36.985,36.985,0,0,1-8-5.583A63.92,63.92,0,0,1,22.1,74.354C14.782,62.145,11.858,47.244,12.005,33.1,12.034,30.359,16.449.8,14.676.388q.16-.188.3-.388Q16.992,3.372,18.948,6.778Z" transform="translate(-6.07)" fill="#89c5cc" fill-rule="evenodd"/>
            <path id="Leaf-5" data-name="Leaf" d="M191.457,155.921c.176-.253,1.32-2.016.744-1.9,1.173-.23-1.613,1.944,1.309.61-1.388,1.31-.587,3.013-.568,4.776a42.783,42.783,0,0,1-.988,8.5,58.323,58.323,0,0,1-3.964,12.854,57.6,57.6,0,0,1-18.93,23.231c-4,2.771-7.913,3.714-12.471,4.99-2.879.806-3.108,2.3-4.636,5.089-3.181,5.819-6.306,11.617-9.112,17.632-3.35,7.183-6.6,14.374-9.671,21.683-10.336,24.62-18.748,50.128-23.166,76.526-.108-15.556,3.491-31.578,8.03-46.405a276.992,276.992,0,0,1,12.2-31.526c1.112-2.5,2.8-5.71,3.271-8.467.331-1.932-.681-3.79-1.144-5.825a60.957,60.957,0,0,1-.091-24.77c1.748-8.785,6.8-12.863,15.355-14.107,3.127-.456,7.1-.289,9.97-1.622,3.124-1.452,4.413-6.225,6.19-9.289a126.323,126.323,0,0,1,16.952-23.059,55,55,0,0,1,5.8-5.334C187.833,158.474,190.573,157.2,191.457,155.921Z" transform="translate(-55.645 -77.903)" fill="#89c5cc" fill-rule="evenodd"/>
            <path id="Base" d="M78.262,476h30.349a2.471,2.471,0,0,1,2.471,2.471,2.44,2.44,0,0,1-.027.36l-2.346,15.906a9.883,9.883,0,0,1-9.777,8.441H87.94a9.883,9.883,0,0,1-9.777-8.441l-2.346-15.906a2.471,2.471,0,0,1,2.084-2.8A2.5,2.5,0,0,1,78.262,476Z" transform="translate(-38.34 -240.791)" fill="#c1dee2" fill-rule="evenodd"/>
          </g>
          <g id="Plant-Right" transform="translate(688.433 262.073)" opacity="0.7">
            <path id="Leaf-Me-Alone_" data-name="Leaf-Me-Alone!" d="M23.358,82.729c-4.766-.252-10.338-3.635-10.3-8.841.026-3.782.532-7.5.357-11.3a30.435,30.435,0,0,0-1.826-8.864C10.6,50.973,8.22,48.47,7.833,45.6a12.059,12.059,0,0,1,1.041-5.987c.95-2.042.546-1.915-.716-3.845A48.513,48.513,0,0,1,2.133,23.8C.158,17.53-.813,10.345.843,3.887,1.054,3.067,1.514.093,2.683,0c1.306-.1.527,1.548.4,2.093A36.306,36.306,0,0,0,1.715,12.249c.578,14.022,9.528,24.162,14.746,36.559.291.642.888,2.159,1.309,3.163.664,1.585,1.19,4.525,2.186,5.753,1.875,2.314.391-2.1.068-2.944-.409-1.071-.864-2.211-1.3-3.158-1.986-4.383-4.214-9.174-6.266-13.693C23.528,36.6,29.776,50.4,31.779,59.248c1.65,7.29,2.78,24.049-8.42,23.481" transform="matrix(-0.995, 0.105, -0.105, -0.995, 41.287, 120.117)" fill="#56919c" fill-rule="evenodd"/>
            <path id="Leaf-Me-Alone_2" data-name="Leaf-Me-Alone!" d="M144.543,78.042c-7.968.632-13.083,5.89-15.464,13.244-1.283,3.963-1.431,8.034-2.144,12.107a25.864,25.864,0,0,1-7.892,15.136,15.228,15.228,0,0,0-3.159,4.225,18,18,0,0,0-3.647,5.212,9.627,9.627,0,0,0-.153,8.375,8.584,8.584,0,0,0,2.241,2.752,53.941,53.941,0,0,0-5.307,24.227c.134,5.016.378,10.034.664,15.044.077,1.345.515,3.567,1.173,1.311.6-2.064-.153-5.3-.223-7.459-.34-10.5-.631-20.051,3.692-29.863.454-1.028.934-2.049,1.435-3.06a1,1,0,0,0,.084-.058l.055.045c.032-.057.076-.125.127-.2a2.732,2.732,0,0,0,.388-.544,3.951,3.951,0,0,0,.82-1.5s0-.007,0-.009a141.41,141.41,0,0,1,8.872-12.544c-.023.03,3.4-4.627,2.868-2.052-.255,1.241-2.77,3.6-3.786,4.919a122.476,122.476,0,0,0-7.079,10.212,5.157,5.157,0,0,0-1.014,1.622c-.167.314-.322.631-.474.907,7.771,2.567,13.815-2.6,17.937-8.619l.014-.022a26.142,26.142,0,0,1,4.144-4.626c2.678-2.193,5.546-2.579,8.7-3.658,8.611-2.942,12.272-14.1,13.434-22.382,1.312-9.342-5.1-23.666-16.308-22.745" transform="translate(-71.249 -50.903)" fill="#89c5cc" fill-rule="evenodd"/>
            <path id="Leaf-Me-Alone_3" data-name="Leaf-Me-Alone!" d="M34.245.8c-9.283,7.29-14.838,18.431-19.481,28.986C9.579,41.571,5.542,53.714,3.66,66.464,2.424,74.841,1.011,83.246.323,91.69a90,90,0,0,0-.309,9.029c0,.247.136,6.965,1.361,5.576.7-.79-.123-6.967-.109-7.975A129.2,129.2,0,0,1,2.8,81.391C4.152,72.15,5.172,62.911,7.4,53.828a31.508,31.508,0,0,1,1.163-4.085c.548-1.382.019-.82,1.228-1.227,1.176-.4,2.522-.127,3.758-.658,4.9-2.106,8.206-8.82,10.655-13.186A89.341,89.341,0,0,0,30.831,18.8,117.39,117.39,0,0,0,34.112,6.743a32.242,32.242,0,0,1,.91-3.9,9,9,0,0,0,.58-1.207C35.667.985,35.33.549,35.374,0Q34.8.386,34.245.8" transform="translate(23.532 4.956) rotate(-8)" fill="#89c5cc" fill-rule="evenodd"/>
            <path id="Base-2" data-name="Base" d="M38,328a25.486,25.486,0,0,0,50.973,0" transform="translate(-25.037 -213.621)" fill="#89c5cc" fill-rule="evenodd"/>
            <path id="Leaf-Me-Alone_4" data-name="Leaf-Me-Alone!" d="M129.768,264.03c6.308-.465,13.352,4.624,16.394,9.919,2.453,4.269,2.04,9.876.525,14.412-1.015,3.037-3.229,7.367-6.921,7.409-4.62.053-4.842-5.657-4.932-8.995-.119-4.438-.679-8.3-4.176-11.328-.815-.7-1.705-1.325-2.529-2.019-1.289-1.088-2.713-2.2-2.88-4-.229-2.482,1.172-2.929,3.311-2.468.365.079,4.039,1.727,3.495.424a2.423,2.423,0,0,0-1.538-.95,28.794,28.794,0,0,0-5.023-.316c-7.33,1.608-10.184,11.762-10.942,18.213-.082.7-.148,1.4-.206,2.095H113a45.208,45.208,0,0,1,.5-5.047c1.081-6.39,4.458-15.775,11.867-16.813a19.126,19.126,0,0,1,2.5.027A4.5,4.5,0,0,1,129.768,264.03Z" transform="translate(-73.853 -171.966)" fill="#56919c" fill-rule="evenodd"/>
          </g>
        </g>
      </g>
      <g id="Master_Pose_Standing" data-name="Master/Pose/Standing" transform="translate(754.315 557.712) rotate(180)">
        <g id="Master_Pose_Standing-2" data-name="Master/Pose/Standing" transform="translate(0 0)">
          <g id="Head_Front" data-name="Head/Front" transform="translate(60.263 267.255)">
            <g id="Head_Front_Pony" data-name="Head/Front/Pony" transform="translate(0 0)">
              <g id="Head" transform="translate(39.009 0)">
                <path id="SKIN" d="M31.658,53.008C36.468,44.043,35.9,21.3,29.68,19.7c-2.479-.639-7.76.926-13.134,4.166L19.92,0H0L6.857,31.963C3.033,36.452.445,41.954.877,48.118,2.123,65.88,26.849,61.973,31.658,53.008Z" fill="#eac7a8" fill-rule="evenodd"/>
              </g>
              <path id="hair" d="M64.739,44.819a8.3,8.3,0,0,0,.45-16.588A41.9,41.9,0,0,0,55.9,26.653a17.278,17.278,0,0,0,.535-4.452,25.174,25.174,0,0,0-.463-4.63,3.878,3.878,0,0,1-2.857,1.519,4.978,4.978,0,0,1-4.98-4.98c0-3.255,1.879-5.609,4.622-5.8C50.291,3.571,46.875,0,43.462,0,36.979,0,32.369,8.667,32.369,17.986q0,.491.019.975C25.531,14.256,20.246,4.98,11.172,4.98c-12.345,0-17.247,24.9,0,24.9,11.73,0,17.5-1.71,22.472-4.239a16.143,16.143,0,0,0,4.3,6.713,6.7,6.7,0,0,0,1.989,1.41l.183.1a9.132,9.132,0,0,0,1.454.6,41.344,41.344,0,0,0,12.2,2.051c.906.032,1.8.041,2.665.029A8.3,8.3,0,0,0,64.739,44.819Z" transform="translate(0 24.9)" fill="#4a312c" fill-rule="evenodd"/>
            </g>
          </g>
          <g id="Bottom_Standing" data-name="Bottom/Standing" transform="translate(4.302 0)">
            <g id="Bottom_Standing_Skinny_Jeans_Walk" data-name="Bottom/Standing/Skinny Jeans Walk" transform="translate(0)">
              <path id="Leg" d="M0,183.426,39.907,77.83,67.879,0h15.95L45.379,183.426Z" transform="translate(88.331 14.94)" fill="#191847" fill-rule="evenodd"/>
              <path id="Leg-2" data-name="Leg" d="M64.006,152.717c-.434-36.232-.12-85.013-1.131-87.272Q61.864,63.187,0,13.979L8.221,0q73.446,47.364,77.2,53.674c3.755,6.31,22.62,64.38,32.435,99.043Z" transform="translate(14.462 45.649)" fill="#393f82" fill-rule="evenodd"/>
              <path id="Shoe" d="M0,0,.83,17.43H18.26q12.4-8.715,32.369-14.11V0H19.09L8.3,1.66V0Z" transform="matrix(0.643, -0.766, 0.766, 0.643, 0, 50.221)" fill="#191847" fill-rule="evenodd"/>
              <path id="Shoe-2" data-name="Shoe" d="M0,0,.83,17.43H18.26q12.4-8.715,32.369-14.11V0H19.09L8.3,1.66V0Z" transform="translate(154.729)" fill="#191847" fill-rule="evenodd"/>
            </g>
          </g>
          <g id="Body" transform="translate(0 97.938)">
            <g id="Body_Trench_Coat" data-name="Body/Trench Coat">
              <path id="SKIN-2" data-name="SKIN" d="M47.547,71.49l14.4-3.66q-28.908-48.6-30.918-51.368C28.011,12.308,30.2,4.292,30.945.092,24.84-1,27.694,7.959,19.962,6.464,12.9,5.1,6.765.967.582,7.3c-.76.779-1.224,3.111,1.561,4.149,6.938,2.585,17.25,7.567,18.988,9.62q3.554,4.2,26.416,50.425ZM166.5,55.055l25.055-21.241A71.259,71.259,0,0,0,209,25.344c1.063-1.114,2.288-3.3-2.395-2.614s-9.639,1.208-10.4-.352,1.953-3.68.488-5.755q-1.464-2.075-11.648,11.733L159.651,41.031Z" transform="translate(4.987 50.384) rotate(4)" fill="#eac7a8" fill-rule="evenodd"/>
              <path id="Back-Arm" d="M8.877,95.09C21.251,69.512,38,44.974,62.874,24.012a28.439,28.439,0,0,0,11.083-1.657A3.735,3.735,0,0,0,74,15.29q1.139-.832,2.3-1.655L69.618,0C41.512,14.014,15.1,24.579,3.058,47.714-.982,55.479.386,81.854,0,91.45Z" transform="translate(110.535 90.792)" fill="#e87613" fill-rule="evenodd"/>
              <path id="Shirt" d="M0,2.149q39.14-4.3,61.615,0c1.857.355,1.775,8.358.914,10.543C49.123,46.726,40.3,71.641,40.3,95.28q-3.689-1.927-12.915-.578C10.861,70.341,3.264,42.39,0,2.149Z" transform="translate(79.353 90.883)" fill="#191847" fill-rule="evenodd"/>
              <path id="Coat-Front" d="M85.463,187.576C82.685,150.824,121.071,70.586,107.743,2.06,83.106-3.442,47.935,13.676,13.7,0c1.274,27.6,26.793,60.016,36.749,89.011a3.726,3.726,0,0,0-1.122,3.37l.432,2.453a3.736,3.736,0,0,0,3.234,3.06q.421,1.867.719,3.711c1.676,10.371-1.187,20.54-1.053,30.527Q32.639,115.052,16.741,73.146h0L1.065,77.759q.9,3.333,1.859,6.586C1.116,85.368-1,90.081.522,90.87A18.29,18.29,0,0,0,5.51,92.594q21.56,64.937,70.515,94.983h9.439Z" transform="translate(24.058)" fill="#ffa434" fill-rule="evenodd"/>
              <path id="Shade-Lapel" d="M7.654,63.079,3.372,49.911l8.623-9.871L4.2,32.282,23.055,0,0,32.217l7.654,7.822L0,48.763Z" transform="translate(95.856 123.668)" fill="rgba(0,0,0,0.1)" fill-rule="evenodd"/>
              <path id="Buttons" d="M8.3,6.64A3.32,3.32,0,1,0,4.98,3.32,3.32,3.32,0,0,0,8.3,6.64ZM7.47,25.73a3.32,3.32,0,1,0-3.32-3.32A3.32,3.32,0,0,0,7.47,25.73ZM3.32,44.819A3.32,3.32,0,1,0,0,41.5,3.32,3.32,0,0,0,3.32,44.819Z" transform="translate(110.062 73.039)" fill="rgba(0,0,0,0.4)" fill-rule="evenodd"/>
            </g>
          </g>
        </g>
      </g>
      <g id="Master_Pose_Sitting" data-name="Master/Pose/Sitting" transform="translate(311.564 273.027)">
        <g id="Master_Pose_Sitting-2" data-name="Master/Pose/Sitting" transform="translate(0 0)">
          <g id="Head_Front-2" data-name="Head/Front" transform="translate(65.436)">
            <g id="Head_Front_Bun_and_Mullet" data-name="Head/Front/Bun and Mullet">
              <g id="Head-2" data-name="Head" transform="translate(14.107 17.43)">
                <path id="SKIN-3" data-name="SKIN" d="M31.658,7.581c4.81,8.965,4.238,31.7-1.978,33.307-2.479.639-7.76-.926-13.134-4.166L19.92,60.589H0L6.857,28.626C3.033,24.137.445,18.635.877,12.471,2.123-5.291,26.849-1.384,31.658,7.581Z" transform="translate(0 0)" fill="#915b3c" fill-rule="evenodd"/>
              </g>
              <path id="hair-2" data-name="hair" d="M76.309,28.069C62.479,22.9,51.633,32.886,50.194,34.53a18.011,18.011,0,0,0-3.29,6.135A30.023,30.023,0,0,0,45.4,48.117a24.322,24.322,0,0,0,.374,7.347,7.962,7.962,0,0,0,3.56,5.184,17,17,0,0,0,2.741,1.287,18.038,18.038,0,0,0,2.823.905c1.835.379,3.949.314,5.362-1.146A10.07,10.07,0,0,0,61.7,59.862c.134-.231.214-.383.052-.609a4.353,4.353,0,0,0-.759-.69,7.152,7.152,0,0,1-2.529-4.736c-.226-1.944.3-4.453,2.187-5.3,2.333-1.047,4.9.155,6.976,1.275a11.407,11.407,0,0,1,5.528-7.338c3.139-1.579,6.741-1.763,9.966-3.118a5.945,5.945,0,0,0,2.315-1.473,2.992,2.992,0,0,0,.665-1.088,1.761,1.761,0,0,0-.461-1.367A18.285,18.285,0,0,0,76.309,28.069Z" transform="translate(-38.412 -12.822)" fill="#e8e1e1" fill-rule="evenodd"/>
              <circle id="Oval" cx="12.45" cy="12.45" r="12.45" transform="translate(2.487)" fill="#e8e1e1"/>
              <path id="Path-5" d="M49.395,66.13Q42.671,82.036,37,87.282q2.487,5.271,15.689,4.637l4.977-23.29Z" transform="translate(-37.003 -19.543)" fill="#e8e1e1" fill-rule="evenodd"/>
            </g>
          </g>
          <g id="Bottom_Sitting" data-name="Bottom/Sitting" transform="translate(20.615 146.907)">
            <g id="Bottom_Sitting_Skinny_Jeans_1" data-name="Bottom/Sitting/Skinny Jeans 1" transform="translate(0 0)">
              <g id="Objects_Seat" data-name="Objects/Seat" transform="translate(0 34.859)">
                <g id="Objects_Seat_Cube" data-name="Objects/Seat/Cube">
                  <g id="Seat">
                    <path id="Seat-Stuff" d="M22.926,0h64.12l8.4,102.918H0Z" fill="#c5cfd6" fill-rule="evenodd"/>
                    <path id="Seat-Stuff-2" data-name="Seat-Stuff" d="M22.926,0H42.647l11.8,102.918H0Z" fill="rgba(0,0,0,0.1)" fill-rule="evenodd"/>
                  </g>
                </g>
              </g>
              <path id="LegBack" d="M246.414,19.766l.239-.14c6.861-3.844,18.066,1.376,18.059,7.179-.023,17.566-16.054,100.356-16.892,105.589s-9.8,6.616-10.325.017c-.831-10.5-2.375-46.848-.83-63.672.637-6.945,1.324-13.56,2-19.46q-12.615,22.785-39.029,65.252l-9.558-4.367q11.258-37.1,18.464-52.377c8.225-17.444,15.937-32.382,19.183-37.644C232.83,11.866,241.718,14.755,246.414,19.766Z" transform="translate(-86.265 -2.538)" fill="#915b3c" fill-rule="evenodd"/>
              <path id="LegLower" d="M0,92.826,4.248,8.574C7.309-5.994,33.22.767,33.209,8.574,33.185,26.3,22.538,87.528,22.531,92.809Z" transform="matrix(0.94, 0.342, -0.342, 0.94, 136.243, 6.664)" fill="#1820bf" fill-rule="evenodd"/>
              <path id="shoe-3" data-name="shoe" d="M1.393,5.038A17.817,17.817,0,0,0,0,10.6a41.618,41.618,0,0,0,.748,6.552H47.561q1.825-6.032-2.106-6.514t-6.532-.868L17.164.072a.831.831,0,0,0-1.1.42.165.165,0,0,1-.009.022l-1.4,3.393h0A14.926,14.926,0,0,1,8.746,5.6,13.405,13.405,0,0,1,3.639,4.112h0a1.659,1.659,0,0,0-2.2.817C1.422,4.965,1.407,5,1.393,5.038Z" transform="translate(103.986 97.666) rotate(30)" fill="#e4e4e4" fill-rule="evenodd"/>
              <path id="shoe-4" data-name="shoe" d="M244.393,150.37A17.811,17.811,0,0,0,243,155.934a41.629,41.629,0,0,0,.748,6.552h46.813q1.825-6.032-2.107-6.514t-6.532-.868l-21.758-9.7a.831.831,0,0,0-1.1.42c0,.007-.006.014-.009.022l-1.4,3.393h0a14.926,14.926,0,0,1-5.914,1.7,13.394,13.394,0,0,1-5.107-1.494h0a1.66,1.66,0,0,0-2.2.818C244.422,150.3,244.407,150.333,244.393,150.37Z" transform="translate(-95.263 -24.709)" fill="#e4e4e4" fill-rule="evenodd"/>
              <path id="Leg-and-Butt" d="M253.736,30.239c0,22.05-10.471,73.484-10.478,78.34l-22.531.017q4.946-68.842,3.508-69.583c-1.439-.742-58.971,5.744-76.227,5.744C123.128,44.757,112.835,29.066,112,0h49.289c10.036,1.074,62.384,11.632,81.825,15.262C251.437,16.816,253.736,24.165,253.736,30.239Z" transform="translate(-72.991 0)" fill="#2b44ff" fill-rule="evenodd"/>
            </g>
          </g>
          <g id="Body-2" data-name="Body" transform="translate(0 59.759)">
            <g id="Body_Long_Sleeve" data-name="Body/Long Sleeve">
              <path id="SKIN-4" data-name="SKIN" d="M59.5,70.463l18.174.068Q47.783,137.8,46.5,140.975c-1.921,4.759,2.144,12.008,3.882,15.9-5.661,2.533-5.057-6.847-12.2-3.526-6.518,3.033-11.476,8.526-19.006,3.88-.926-.571-1.94-2.722.511-4.4,6.107-4.187,14.907-11.516,16.1-13.929Q38.22,133.968,59.5,70.463ZM213.649,54.582c-3.672,3.061-7.4,6.447-6.743,8.081s4.069,1.026,4.635,3.539q.565,2.513-16.626.817l-26.59,10.542-5.88-14.682,32.77-4.47A71.43,71.43,0,0,1,213.307,51C214.856,50.957,217.321,51.52,213.649,54.582Z" transform="translate(-18.163 -8.671)" fill="#784931" fill-rule="evenodd"/>
              <path id="Clothes-Back" d="M0,.3,14.258,0c6.255,31.28,27.017,49.567,69,39.088l9.215,40.18C53.131,87.893,16.837,75.015,5.911,32.5,3.083,21.5.6,10.006,0,.3Z" transform="translate(91.147 3.856) rotate(5)" fill="#e87613" fill-rule="evenodd"/>
              <path id="Clothes" d="M106.373,0l.012.013,21.561,4.938c0,36.712,11.577,60.268,17.688,87.19l.183.817H87.588c-.82,9.421-1.324,19.1-1.586,29.049H42.4Q57.222,43.156,104.961,0h1.412Z" transform="translate(-22.284)" fill="#ffa434" fill-rule="evenodd"/>
              <path id="Shade" d="M106.03,48.26q-2.251,34.661,2.648,52.9H96.844a286.969,286.969,0,0,1,8.88-51.807Z" transform="translate(-31.54 -8.205)" fill="rgba(0,0,0,0.1)" fill-rule="evenodd"/>
            </g>
          </g>
        </g>
      </g>
      <g id="Master_Pose_Standing-3" data-name="Master/Pose/Standing" transform="translate(179.461 228.208)">
        <g id="Master_Pose_Standing-4" data-name="Master/Pose/Standing" transform="translate(0)">
          <g id="Head_Front-3" data-name="Head/Front" transform="translate(41.499)">
            <g id="Head_Front_Caesar" data-name="Head/Front/Caesar" transform="translate(0)">
              <g id="Head-3" data-name="Head" transform="translate(1.66 1.66)">
                <path id="SKIN-5" data-name="SKIN" d="M31.658,7.581c4.81,8.965,4.238,31.7-1.978,33.307-2.479.639-7.76-.926-13.134-4.166L19.92,60.589H0L6.857,28.626C3.033,24.137.445,18.635.877,12.471,2.123-5.291,26.849-1.384,31.658,7.581Z" transform="translate(0 0)" fill="#eac7a8" fill-rule="evenodd"/>
              </g>
              <path id="Combined-Shape" d="M70.26,29c10.681,0,14.731,4.4,14.94,8.3-4.577,1.258-12.575,1.742-24.07,1.66v.83l9.96.83,1.66,4.98c-2.641-.2-4.528,1.614-6.034,4.04a3.992,3.992,0,0,0-2.266-.72,4.274,4.274,0,0,0-4.15,4.15,4.928,4.928,0,0,0,2.512,4.6c-.789,1.543-1.582,2.663-2.512,2.866-3.587-.363-8.3-9.279-8.3-16.6C52,35.927,58.376,29,70.26,29Z" transform="translate(-52 -29)" fill="#2c1b18" fill-rule="evenodd"/>
            </g>
          </g>
          <g id="Bottom_Standing-2" data-name="Bottom/Standing" transform="translate(0 131.137)">
            <g id="Bottom_Standing_Sweatpants" data-name="Bottom/Standing/Sweatpants">
              <path id="SKIN-6" data-name="SKIN" d="M128,0l30.4,104.766,14.3,78.66h14.353L172.729,0Z" transform="translate(-91.481 0)" fill="#eac7a8" fill-rule="evenodd"/>
              <path id="Shadow" d="M128,0l30.4,104.766,14.3,78.66h14.353L172.729,0Z" transform="translate(-91.481 0)" fill="rgba(0,0,0,0.1)" fill-rule="evenodd"/>
              <path id="SKIN-7" data-name="SKIN" d="M107.292,0c2.121,54.426,1.285,84.111.81,89.056s-3.171,38.061-21.538,96.031h14.928c24.325-55.611,32.817-88.729,35.606-96.031S148.128,52.068,160.158,0Z" transform="translate(-84.436)" fill="#eac7a8" fill-rule="evenodd"/>
              <path id="Pant" d="M127.214,0q11.862,54.076,41.034,172.637H189.24C190.791,91.509,184.195,38.113,172.773,0Z" transform="translate(-91.347 0)" fill="#191847" fill-rule="evenodd"/>
              <path id="Pant-2" data-name="Pant" d="M107.316,0c2.077,54.426-3.307,108.045-19.986,173.484h22.4C134.1,118.7,151.565,65.348,163.5,0Z" transform="translate(-84.566)" fill="#393f82" fill-rule="evenodd"/>
              <g id="Left" transform="translate(0 180.937)">
                <path id="Shoe-5" data-name="Shoe" d="M0,14.94.824,1.66Q8.058,3.776,18.945,0,30.652,8.292,48.419,11.324a1.66,1.66,0,0,1,1.318,2.089L48.6,17.43H1.647Z" fill="#191847" fill-rule="evenodd"/>
              </g>
              <g id="Right" transform="translate(78.019 180.937)">
                <path id="Shoe-6" data-name="Shoe" d="M0,14.94.824,1.66Q8.058,3.776,18.945,0,30.652,8.292,48.419,11.324a1.66,1.66,0,0,1,1.318,2.089L48.6,17.43H1.647Z" fill="#191847" fill-rule="evenodd"/>
              </g>
            </g>
          </g>
          <g id="Body-3" data-name="Body" transform="translate(12.636 43.989)">
            <g id="Body_Pointing_Forward" data-name="Body/Pointing Forward" transform="translate(0)">
              <path id="SKIN-8" data-name="SKIN" d="M224.969,39.757c3.6-.74,12.373-7.268,13.886-5.943,2.238,1.961.242,7.982-2.108,10.977-4.393,5.6-8.03,7.512-17.021,10.019a49.43,49.43,0,0,0-15.247,7.881l-.72-12.7,12.655-6.952q2.663-10.134,6.367-10.2C224.677,31.96,221.373,40.5,224.969,39.757Zm-21.78-28.938c-2.324,4.124-4.582,8.567-3.4,9.837s4.136-.5,5.548,1.607q1.412,2.111-15.129,6.67L169.277,48.1,158.638,36.68,187.447,20.9a71.266,71.266,0,0,1,14.16-13.255C203.028,7.053,205.512,6.694,203.189,10.818Z" transform="translate(-91.066 -1.239)" fill="#dcae92" fill-rule="evenodd"/>
              <g id="Group-3" transform="translate(48.203 20.011)">
                <path id="Mask" d="M4.569,5.282A70.786,70.786,0,0,0,43.782,0l3.6,13.3C36.065,21.46,21.048,27.257,9.076,25.014-.359,23.247-3.387,11.017,4.569,5.282Z" transform="translate(0 7.412) rotate(-9)" fill="#c21b15" fill-rule="evenodd"/>
              </g>
              <g id="Group-27">
                <path id="Mask-2" data-name="Mask" d="M54.438,0C55.709,16.325,62.1,34.316,67.353,52.09q16.068,4.009,53.893-9.451,9.382,19.409,8.674,27.675c-21.634,11.3-40.176,16.338-55.452,16.67.492,9.06-.611,17.685-4.318,25.567-7.619,16.2-52.23,1.2-67.23,4.15C-6.473,86.195,11.689,73.8,11.7,54.278,11.72,32.9,28.884,0,31.409,0H54.438Z" transform="translate(-0.224 0)" fill="#ff4133" fill-rule="evenodd"/>
              </g>
            </g>
          </g>
        </g>
      </g>
    </g>
    <g transform="matrix(1, 0, 0, 1, 915.33, 141)" filter="url(#Background-2)">
      <path id="Background-7" data-name="Background" d="M23,50.635A41.635,41.635,0,1,0,64.635,9,41.636,41.636,0,0,0,23,50.635" transform="translate(485.17 66.36)" fill="#fff" fill-rule="evenodd"/>
    </g>
    <g id="Untitled-2" transform="translate(1449.699 280.461)">
      <g id="Layer_1" data-name="Layer 1" transform="translate(-9 -59.461)">
        <g id="target" transform="translate(0 11.434)">
          <path id="Subtraction_1" data-name="Subtraction 1" d="M24.862,49.723A24.868,24.868,0,0,1,15.184,1.954,24.868,24.868,0,0,1,34.539,47.769,24.7,24.7,0,0,1,24.862,49.723Zm0-46.171a21.31,21.31,0,1,0,21.309,21.31A21.334,21.334,0,0,0,24.862,3.552Z" fill="#b8b4eb"/>
          <path id="Subtraction_2" data-name="Subtraction 2" d="M17.757,35.516A17.758,17.758,0,0,1,5.2,5.2,17.758,17.758,0,1,1,30.315,30.314,17.643,17.643,0,0,1,17.757,35.516Zm0-31.964A14.206,14.206,0,1,0,31.964,17.758,14.222,14.222,0,0,0,17.757,3.552Z" transform="translate(7.104 7.104)" fill="#b8b4eb"/>
          <path id="Subtraction_3" data-name="Subtraction 3" d="M10.654,21.308A10.654,10.654,0,0,1,3.12,3.12,10.654,10.654,0,0,1,18.187,18.187,10.585,10.585,0,0,1,10.654,21.308Zm0-17.757a7.1,7.1,0,1,0,7.1,7.1A7.112,7.112,0,0,0,10.654,3.55Z" transform="translate(14.208 14.208)" fill="#b8b4eb"/>
          <ellipse id="Ellipse_8" data-name="Ellipse 8" cx="3.552" cy="3.552" rx="3.552" ry="3.552" transform="translate(21.336 28.423) rotate(-90.27)" fill="#3c34b5"/>
        </g>
        <g id="arrow" transform="translate(23.504)">
          <g id="Group_1" data-name="Group 1" transform="translate(0 35.253)">
            <ellipse id="Ellipse_9" data-name="Ellipse 9" cx="1.426" cy="1.426" rx="1.426" ry="1.426" transform="translate(1.289 2.592)" fill="#fff" opacity="0"/>
            <ellipse id="Ellipse_10" data-name="Ellipse 10" cx="1.401" cy="1.401" rx="1.401" ry="1.401" transform="translate(2.801 2.813) rotate(-179.76)" fill="#fbfbfb" opacity="0.02"/>
            <ellipse id="Ellipse_11" data-name="Ellipse 11" cx="1.375" cy="1.375" rx="1.375" ry="1.375" transform="translate(2.776 2.787) rotate(-179.76)" fill="#f8f7f7" opacity="0.05"/>
            <ellipse id="Ellipse_12" data-name="Ellipse 12" cx="1.349" cy="1.349" rx="1.349" ry="1.349" transform="translate(2.75 2.761) rotate(-179.76)" fill="#f5f5f4" opacity="0.07"/>
            <ellipse id="Ellipse_13" data-name="Ellipse 13" cx="1.323" cy="1.323" rx="1.323" ry="1.323" transform="translate(2.724 2.733) rotate(-179.76)" fill="#f3f2f2" opacity="0.1"/>
            <ellipse id="Ellipse_14" data-name="Ellipse 14" cx="1.298" cy="1.298" rx="1.298" ry="1.298" transform="translate(2.699 2.707) rotate(-179.76)" fill="#f0f0f0" opacity="0.12"/>
            <ellipse id="Ellipse_15" data-name="Ellipse 15" cx="1.27" cy="1.27" rx="1.27" ry="1.27" transform="translate(2.671 2.679) rotate(-179.76)" fill="#eeeded" opacity="0.15"/>
            <ellipse id="Ellipse_16" data-name="Ellipse 16" cx="1.244" cy="1.244" rx="1.244" ry="1.244" transform="translate(2.645 2.654) rotate(-179.76)" fill="#ecebeb" opacity="0.17"/>
            <ellipse id="Ellipse_17" data-name="Ellipse 17" cx="1.218" cy="1.218" rx="1.218" ry="1.218" transform="translate(2.62 2.628) rotate(-179.76)" fill="#eae9e9" opacity="0.2"/>
            <ellipse id="Ellipse_18" data-name="Ellipse 18" cx="1.193" cy="1.193" rx="1.193" ry="1.193" transform="translate(2.594 2.602) rotate(-179.76)" fill="#e8e7e7" opacity="0.22"/>
            <ellipse id="Ellipse_19" data-name="Ellipse 19" cx="1.167" cy="1.167" rx="1.167" ry="1.167" transform="translate(2.568 2.576) rotate(-179.76)" fill="#e5e5e5" opacity="0.24"/>
            <ellipse id="Ellipse_20" data-name="Ellipse 20" cx="1.141" cy="1.141" rx="1.141" ry="1.141" transform="translate(2.543 2.55) rotate(-179.76)" fill="#e3e2e3" opacity="0.27"/>
            <ellipse id="Ellipse_21" data-name="Ellipse 21" cx="1.113" cy="1.113" rx="1.113" ry="1.113" transform="translate(2.515 2.522) rotate(-179.76)" fill="#e1e0e1" opacity="0.29"/>
            <ellipse id="Ellipse_22" data-name="Ellipse 22" cx="1.087" cy="1.087" rx="1.087" ry="1.087" transform="translate(2.489 2.496) rotate(-179.76)" fill="#dfdedf" opacity="0.32"/>
            <ellipse id="Ellipse_23" data-name="Ellipse 23" cx="1.062" cy="1.062" rx="1.062" ry="1.062" transform="translate(2.464 2.471) rotate(-179.76)" fill="#dddcdd" opacity="0.34"/>
            <ellipse id="Ellipse_24" data-name="Ellipse 24" cx="1.036" cy="1.036" rx="1.036" ry="1.036" transform="translate(2.438 2.445) rotate(-179.76)" fill="#dadadb" opacity="0.37"/>
            <ellipse id="Ellipse_26" data-name="Ellipse 26" cx="0.982" cy="0.982" rx="0.982" ry="0.982" transform="translate(2.385 2.391) rotate(-179.76)" fill="#d6d6d7" opacity="0.41"/>
            <ellipse id="Ellipse_27" data-name="Ellipse 27" cx="0.957" cy="0.957" rx="0.957" ry="0.957" transform="translate(2.359 2.365) rotate(-179.76)" fill="#d4d4d5" opacity="0.44"/>
            <ellipse id="Ellipse_28" data-name="Ellipse 28" cx="0.931" cy="0.931" rx="0.931" ry="0.931" transform="translate(2.333 2.339) rotate(-179.76)" fill="#d2d2d3" opacity="0.46"/>
            <ellipse id="Ellipse_29" data-name="Ellipse 29" cx="0.905" cy="0.905" rx="0.905" ry="0.905" transform="translate(2.306 2.313) rotate(-179.76)" fill="#d0d0d1" opacity="0.49"/>
            <ellipse id="Ellipse_30" data-name="Ellipse 30" cx="0.879" cy="0.879" rx="0.879" ry="0.879" transform="translate(2.28 2.287) rotate(-179.76)" fill="#cececf" opacity="0.51"/>
            <ellipse id="Ellipse_31" data-name="Ellipse 31" cx="0.854" cy="0.854" rx="0.854" ry="0.854" transform="translate(2.254 2.262) rotate(-179.76)" fill="#cccccd" opacity="0.54"/>
            <ellipse id="Ellipse_33" data-name="Ellipse 33" cx="0.8" cy="0.8" rx="0.8" ry="0.8" transform="translate(2.201 2.208) rotate(-179.76)" fill="#c8c8ca" opacity="0.59"/>
            <ellipse id="Ellipse_34" data-name="Ellipse 34" cx="0.774" cy="0.774" rx="0.774" ry="0.774" transform="translate(2.175 2.18) rotate(-179.76)" fill="#c6c6c8" opacity="0.61"/>
            <ellipse id="Ellipse_35" data-name="Ellipse 35" cx="0.749" cy="0.749" rx="0.749" ry="0.749" transform="translate(2.15 2.154) rotate(-179.76)" fill="#c4c4c6" opacity="0.63"/>
            <ellipse id="Ellipse_37" data-name="Ellipse 37" cx="0.697" cy="0.697" rx="0.697" ry="0.697" transform="translate(2.099 2.102) rotate(-179.76)" fill="#c1c1c3" opacity="0.68"/>
            <ellipse id="Ellipse_38" data-name="Ellipse 38" cx="0.669" cy="0.669" rx="0.669" ry="0.669" transform="translate(2.071 2.074) rotate(-179.76)" fill="#bfbfc1" opacity="0.71"/>
            <ellipse id="Ellipse_39" data-name="Ellipse 39" cx="0.643" cy="0.643" rx="0.643" ry="0.643" transform="translate(2.045 2.048) rotate(-179.76)" fill="#bdbdbf" opacity="0.73"/>
            <ellipse id="Ellipse_40" data-name="Ellipse 40" cx="0.618" cy="0.618" rx="0.618" ry="0.618" transform="translate(2.019 2.02) rotate(-179.76)" fill="#bbbbbd" opacity="0.76"/>
            <ellipse id="Ellipse_42" data-name="Ellipse 42" cx="0.566" cy="0.566" rx="0.566" ry="0.566" transform="translate(1.966 1.969) rotate(-179.76)" fill="#b7b8ba" opacity="0.8"/>
            <ellipse id="Ellipse_43" data-name="Ellipse 43" cx="0.541" cy="0.541" rx="0.541" ry="0.541" transform="translate(1.94 1.941) rotate(-179.76)" fill="#b5b6b8" opacity="0.83"/>
            <ellipse id="Ellipse_44" data-name="Ellipse 44" cx="0.513" cy="0.513" rx="0.513" ry="0.513" transform="translate(1.913 1.913) rotate(-179.76)" fill="#b3b4b7" opacity="0.85"/>
            <ellipse id="Ellipse_45" data-name="Ellipse 45" cx="0.487" cy="0.487" rx="0.487" ry="0.487" transform="translate(1.885 1.885) rotate(-179.76)" fill="#b1b2b5" opacity="0.88"/>
            <circle id="Ellipse_46" data-name="Ellipse 46" cx="0.461" cy="0.461" r="0.461" transform="translate(0.924 0.904)" fill="#afb1b3" opacity="0.9"/>
            <ellipse id="Ellipse_47" data-name="Ellipse 47" cx="0.435" cy="0.435" rx="0.435" ry="0.435" transform="translate(0.95 0.93)" fill="#adafb2" opacity="0.93"/>
            <ellipse id="Ellipse_48" data-name="Ellipse 48" cx="0.41" cy="0.41" rx="0.41" ry="0.41" transform="translate(0.976 0.955)" fill="#acadb0" opacity="0.95"/>
            <ellipse id="Ellipse_49" data-name="Ellipse 49" cx="0.384" cy="0.384" rx="0.384" ry="0.384" transform="translate(1.002 0.981)" fill="#aaabae" opacity="0.98"/>
            <ellipse id="Ellipse_50" data-name="Ellipse 50" cx="0.356" cy="0.356" rx="0.356" ry="0.356" transform="translate(1.029 1.009)" fill="#a8aaad"/>
          </g>
          <path id="Union_1" data-name="Union 1" d="M5.662,4.186,9.206,4.1,4.111,9.191a15.41,15.41,0,0,0-3.53.077ZM.015,5.3,0,5.109,5.109,0l-.03,3.605L0,8.685Z" transform="translate(28.712)" fill="#b8b4eb"/>
          <path id="Path_365" data-name="Path 365" d="M2747.95,1337.879a.627.627,0,0,1,0-.886l28.527-28.527a.627.627,0,0,1,.888.886l-28.527,28.527a.626.626,0,0,1-.888,0Z" transform="translate(-2742.943 -1304.907)" fill="#3c34b5"/>
          <path id="Path_366" data-name="Path 366" d="M131.87,140.359l3.447-8.209,1,3.764,3.762,1Z" transform="translate(-130.444 -103.805)" fill="#b8b4eb"/>
        </g>
      </g>
    </g>
    <g id="noun_thumb_3139158" transform="translate(1255.416 272.912)">
      <g id="Group_34" data-name="Group 34" transform="translate(2.5 3.675)">
        <g id="Group_33" data-name="Group 33">
          <path id="Path_591" data-name="Path 591" d="M44.736,22.492a4.317,4.317,0,0,0-4.312-4.312H31.443a19,19,0,0,0,1.823-7.691,6.961,6.961,0,0,0-4.357-6.447,4.074,4.074,0,0,0-3.379,0A4,4,0,0,0,23.4,6.62l-.534,2.09a17.252,17.252,0,0,1-5.78,9.247c-.356.267-.667.489-1.023.711a3.887,3.887,0,0,0-3.379-1.956H6.412A3.89,3.89,0,0,0,2.5,20.625V40.854a3.918,3.918,0,0,0,3.912,3.912h6.269a3.892,3.892,0,0,0,3.557-2.312A42.253,42.253,0,0,0,27.664,44.1h9.87a4.317,4.317,0,0,0,4.312-4.312,4.25,4.25,0,0,0-.578-2.134,4.336,4.336,0,0,0,2-3.646,4.25,4.25,0,0,0-.578-2.134,4.336,4.336,0,0,0,2-3.646,4.4,4.4,0,0,0-1.111-2.89A4.033,4.033,0,0,0,44.736,22.492ZM13.748,40.943a1.082,1.082,0,0,1-1.067,1.067H6.412a1.082,1.082,0,0,1-1.067-1.067V20.714a1.082,1.082,0,0,1,1.067-1.067h6.269a1.082,1.082,0,0,1,1.067,1.067ZM37.711,26.8h2.712a1.467,1.467,0,1,1,0,2.934H37.178a1.423,1.423,0,1,0,0,2.845H39a1.467,1.467,0,1,1,0,2.934H36.155a1.423,1.423,0,1,0,0,2.845h1.423a1.467,1.467,0,1,1,0,2.934H27.664a39.92,39.92,0,0,1-11.07-1.6V21.692a13.7,13.7,0,0,0,2.223-1.467,20.118,20.118,0,0,0,6.8-10.759l.534-2.09a.982.982,0,0,1,.578-.711,1.108,1.108,0,0,1,.934,0,4.041,4.041,0,0,1,2.712,3.868,17.73,17.73,0,0,1-2.534,8.358,1.5,1.5,0,0,0,0,1.378,1.461,1.461,0,0,0,1.245.756H40.423a1.467,1.467,0,1,1,0,2.934H37.711a1.423,1.423,0,0,0,0,2.845Z" transform="translate(-2.5 -3.675)" fill="#fff"/>
          <circle id="Ellipse_87" data-name="Ellipse 87" cx="1.867" cy="1.867" r="1.867" transform="translate(5.202 32.555)" fill="#fff"/>
        </g>
      </g>
    </g>
    <g id="noun_chat_945180" transform="translate(1142.523 264.362)">
      <path id="Path_664" data-name="Path 664" d="M12.186,43.315c.3.323.6.652.891.982a4.749,4.749,0,0,1,.93,5.146c-.091.221-.182.448-.272.669a20.181,20.181,0,0,1-.93,2.145,16.34,16.34,0,0,1-2.372,3.3h.057A53.112,53.112,0,0,0,22.733,51.2a5.889,5.889,0,0,1,3.546-.528,30.069,30.069,0,0,0,4.754.391,26.348,26.348,0,0,0,6.11-.709c7.024-1.7,12.181-5.316,15.761-11.12A19.693,19.693,0,0,0,55.622,25.29a21.334,21.334,0,0,0-9.078-14.263A25.956,25.956,0,0,0,31.4,6l-1.328.074c-.965.045-1.878.091-2.729.21a25.131,25.131,0,0,0-14.734,7.024A20.773,20.773,0,0,0,6.064,26.958a20.062,20.062,0,0,0,3.971,13.8,29.27,29.27,0,0,0,2.15,2.559ZM42.494,27.7a3.251,3.251,0,1,1-2.317.948,3.262,3.262,0,0,1,2.317-.948Zm-11.534,0A3.262,3.262,0,1,1,27.7,30.964,3.262,3.262,0,0,1,30.959,27.7Zm-11.483,0a3.291,3.291,0,1,0,.006,0Z" transform="translate(-2.595 -2.596)" fill="none"/>
      <path id="Path_665" data-name="Path 665" d="M7.94,43.97a1.379,1.379,0,0,1,.335,1.566c-.352.845-.652,1.7-1.084,2.513a19.062,19.062,0,0,1-4.2,4.862c-.726.692-1.5,1.384-2.173,2.122s-.5,1.067.431,1.3a12.777,12.777,0,0,0,3.172.4,21.524,21.524,0,0,0,4.085-.454,55.956,55.956,0,0,0,13.049-4.618,2.616,2.616,0,0,1,1.135-.278,2.569,2.569,0,0,1,.408.034,33.31,33.31,0,0,0,5.293.431,29.616,29.616,0,0,0,6.939-.789A27.694,27.694,0,0,0,53.2,38.41a23.023,23.023,0,0,0,3.189-16.283A24.719,24.719,0,0,0,45.952,5.674,29.213,29.213,0,0,0,28.7,0c-1.475.1-2.962.108-4.425.312A28.766,28.766,0,0,0,7.628,8.283,24.239,24.239,0,0,0,.076,24.1,23.568,23.568,0,0,0,4.655,40.152,48.581,48.581,0,0,0,7.94,43.97ZM3.469,24.362a20.784,20.784,0,0,1,6.542-13.651,24.92,24.92,0,0,1,14.751-7.03c.851-.119,1.764-.159,2.729-.21L28.8,3.4a25.956,25.956,0,0,1,15.143,5,21.294,21.294,0,0,1,9.078,14.263,19.693,19.693,0,0,1-2.729,13.951,24.142,24.142,0,0,1-15.761,11.12,26.348,26.348,0,0,1-6.1.709,30.068,30.068,0,0,1-4.754-.391,5.889,5.889,0,0,0-3.546.528A53.208,53.208,0,0,1,7.883,52.94H7.826a16.339,16.339,0,0,0,2.383-3.279,20.181,20.181,0,0,0,.953-2.139c.091-.227.176-.448.272-.669a4.749,4.749,0,0,0-.93-5.146c-.3-.329-.567-.652-.891-.982a29.271,29.271,0,0,1-2.179-2.559,20.062,20.062,0,0,1-3.966-13.8Z" transform="translate(0)" fill="#9292c8"/>
      <path id="Path_666" data-name="Path 666" d="M47.478,50.775a3.262,3.262,0,1,0-3.228-3.262A3.262,3.262,0,0,0,47.478,50.775Z" transform="translate(-19.148 -19.145)" fill="#9292c8"/>
      <path id="Path_667" data-name="Path 667" d="M27.245,50.765A3.262,3.262,0,1,0,24,47.508a3.262,3.262,0,0,0,3.245,3.257Z" transform="translate(-10.387 -19.14)" fill="#9292c8"/>
      <path id="Path_668" data-name="Path 668" d="M67.805,50.775a3.262,3.262,0,1,0-3.245-3.262,3.262,3.262,0,0,0,3.245,3.262Z" transform="translate(-27.935 -19.145)" fill="#9292c8"/>
    </g>
    <g id="noun_chat_945180-2" data-name="noun_chat_945180" transform="translate(1423.5 328)">
      <path id="Path_664-2" data-name="Path 664" d="M33.822,29.742c-.191.206-.379.415-.567.624a3.021,3.021,0,0,0-.592,3.274c.058.141.116.285.173.426a12.84,12.84,0,0,0,.592,1.364,10.4,10.4,0,0,0,1.509,2.1H34.9a33.793,33.793,0,0,1-7.79-2.769,3.747,3.747,0,0,0-2.256-.336,19.132,19.132,0,0,1-3.025.249,16.765,16.765,0,0,1-3.888-.451A15.418,15.418,0,0,1,7.914,27.146a12.529,12.529,0,0,1-1.729-8.873A13.574,13.574,0,0,1,11.961,9.2,16.515,16.515,0,0,1,21.6,6l.845.047c.614.029,1.195.058,1.736.134a15.99,15.99,0,0,1,9.375,4.469,13.217,13.217,0,0,1,4.162,8.685,12.764,12.764,0,0,1-2.527,8.779,18.623,18.623,0,0,1-1.368,1.628ZM14.538,19.807a2.068,2.068,0,1,0,1.475.6,2.076,2.076,0,0,0-1.475-.6Zm7.339,0a2.076,2.076,0,1,0,2.076,2.076,2.076,2.076,0,0,0-2.076-2.076Zm7.306,0a2.072,2.072,0,1,0,1.47.6,2.076,2.076,0,0,0-1.47-.6Z" transform="translate(-3.824 -3.834)" fill="none"/>
      <path id="Path_665-2" data-name="Path 665" d="M31.041,27.976a.877.877,0,0,0-.213,1c.224.538.415,1.083.689,1.6a12.128,12.128,0,0,0,2.671,3.094c.462.44.953.881,1.383,1.35s.321.679-.274.83a8.13,8.13,0,0,1-2.018.253,13.7,13.7,0,0,1-2.6-.289,35.6,35.6,0,0,1-8.3-2.938,1.664,1.664,0,0,0-.722-.177,1.635,1.635,0,0,0-.26.022,21.194,21.194,0,0,1-3.368.274,18.844,18.844,0,0,1-4.415-.5,17.621,17.621,0,0,1-11.367-8.05A14.648,14.648,0,0,1,.217,14.078,15.727,15.727,0,0,1,6.855,3.61,18.587,18.587,0,0,1,17.829,0c.939.061,1.884.069,2.816.2A18.3,18.3,0,0,1,31.24,5.27a15.422,15.422,0,0,1,4.8,10.06,15,15,0,0,1-2.913,10.216,30.91,30.91,0,0,1-2.09,2.429ZM33.886,15.5a13.224,13.224,0,0,0-4.162-8.685,15.856,15.856,0,0,0-9.386-4.473c-.541-.076-1.123-.1-1.736-.134l-.834-.043A16.515,16.515,0,0,0,8.133,5.35a13.548,13.548,0,0,0-5.776,9.075A12.529,12.529,0,0,0,4.094,23.3a15.361,15.361,0,0,0,10.028,7.075,16.765,16.765,0,0,0,3.884.451,19.132,19.132,0,0,0,3.025-.249,3.747,3.747,0,0,1,2.256.336,33.855,33.855,0,0,0,7.79,2.769h.036A10.4,10.4,0,0,1,29.6,31.6a12.84,12.84,0,0,1-.606-1.361c-.058-.144-.112-.285-.173-.426a3.021,3.021,0,0,1,.592-3.274c.188-.209.361-.415.567-.624a18.624,18.624,0,0,0,1.386-1.628A12.764,12.764,0,0,0,33.886,15.5Z" transform="translate(0.008 0)" fill="#9292c8"/>
      <path id="Path_666-2" data-name="Path 666" d="M46.347,48.4A2.076,2.076,0,1,1,48.4,46.326,2.076,2.076,0,0,1,46.347,48.4Z" transform="translate(-28.272 -28.277)" fill="#9292c8"/>
      <path id="Path_667-2" data-name="Path 667" d="M26.087,48.391a2.076,2.076,0,1,1,2.065-2.072,2.076,2.076,0,0,1-2.065,2.072Z" transform="translate(-0.712 -28.27)" fill="#9292c8"/>
      <path id="Path_668-2" data-name="Path 668" d="M66.647,48.4a2.076,2.076,0,1,1,2.065-2.076A2.076,2.076,0,0,1,66.647,48.4Z" transform="translate(-55.914 -28.277)" fill="#9292c8"/>
    </g>
    <path id="Union_6" data-name="Union 6" d="M-15936.85,41.722V32.811l.588-.778a11.38,11.38,0,0,0,7.445-9.788c.008-.063.014-.127.02-.19a8.97,8.97,0,0,1-5.021-3.193c-.146-.053-.289-.108-.432-.164a18.091,18.091,0,0,1-9.73-8.728,18.305,18.305,0,0,1-1.953-6.344l-.066-.887h6.635c-.059-.9-.094-1.811-.1-2.738h23.711c0,.927-.037,1.841-.1,2.738h6.637l-.066.887a18.368,18.368,0,0,1-1.953,6.344,18.094,18.094,0,0,1-9.729,8.729c-.143.056-.287.111-.436.164a8.953,8.953,0,0,1-5.029,3.194c.008.063.014.126.02.189.248,2.176,1.461,7.68,7.447,9.788l.6.778v8.912Zm17.289-25.484c.143-.076.285-.155.426-.235a16.067,16.067,0,0,0,6.383-6.723,17.827,17.827,0,0,0,1.676-4.89H-15916A30.889,30.889,0,0,1-15919.561,16.238Zm-22.9-6.958a16.044,16.044,0,0,0,6.381,6.722q.214.12.428.235a30.921,30.921,0,0,1-3.562-11.848h-4.926A17.957,17.957,0,0,0-15942.463,9.28Z" transform="translate(17150.094 -1770.111) rotate(-7)" fill="#9292c8"/>
    <g id="Layer_5" data-name="Layer 5" transform="translate(1209.428 203.099) rotate(-22)">
      <path id="Path_766" data-name="Path 766" d="M45.485,14.108l-6.992-2.683v-6.4a3.285,3.285,0,0,0-4.759-2.937L17.6,10.186H2.873a1,1,0,0,0-1,1V28.381a1,1,0,0,0,1,1H6.267l4.275,16.142a1,1,0,0,0,.967.744H22.3a1,1,0,0,0,.967-1.256l-3.9-14.741,14.368,7.212a3.285,3.285,0,0,0,4.759-2.937v-6.4l6.992-2.684a1,1,0,0,0,.642-.934V15.042a1,1,0,0,0-.642-.934ZM3.873,12.186H16.832V27.381H3.873Zm8.405,32.08L8.336,29.381h8.727L21,44.267Zm24.215-9.721a1.286,1.286,0,0,1-1.862,1.149l-15.8-7.931V11.8l12.2-6.123V21.127a1,1,0,0,0,2,0V4.677l1.6-.8a1.286,1.286,0,0,1,1.862,1.149V34.545Zm7.634-10.708L38.493,26V13.567l5.634,2.162Z" fill="#9292c8"/>
      <path id="Path_767" data-name="Path 767" d="M31.319,26.73a1.033,1.033,0,0,0-.289.71,1.008,1.008,0,0,0,.289.7,1,1,0,0,0,1.711-.7,1,1,0,0,0-.3-.71,1.034,1.034,0,0,0-1.41,0Z" fill="#9292c8"/>
    </g>
  </g>
</svg>
