<svg xmlns="http://www.w3.org/2000/svg" width="26.038" height="26" viewBox="0 0 26.038 26">
  <path id="_60c1b0a00a708aa8bada7b3e_icon-pricing-included-tech-ui-kit" data-name="60c1b0a00a708aa8bada7b3e_icon-pricing-included-tech-ui-kit" d="M25.155,11.132,23.074,9.459a1.237,1.237,0,0,1-.453-1.1L22.91,5.7A2.367,2.367,0,0,0,20.3,3.091l-2.658.285a1.237,1.237,0,0,1-1.1-.453L14.867.844a2.442,2.442,0,0,0-3.693,0L9.5,2.924a1.23,1.23,0,0,1-1.1.453L5.746,3.091A2.367,2.367,0,0,0,3.133,5.7l.289,2.655a1.231,1.231,0,0,1-.453,1.1L.885,11.132a2.369,2.369,0,0,0,0,3.693L2.966,16.5a1.232,1.232,0,0,1,.453,1.1L3.13,20.253a2.367,2.367,0,0,0,2.612,2.613L8.4,22.577a1.236,1.236,0,0,1,1.1.453l1.676,2.084a2.369,2.369,0,0,0,3.693,0l1.673-2.081a1.237,1.237,0,0,1,1.1-.453l2.655.289a2.367,2.367,0,0,0,2.613-2.612L22.619,17.6a1.229,1.229,0,0,1,.453-1.1l2.081-1.673a2.369,2.369,0,0,0,0-3.693ZM13.473,16.451a2.021,2.021,0,0,1-3.015.215l-2.767-2.76a1.132,1.132,0,1,1,1.6-1.6l2.549,2.549,4.426-5.9a1.132,1.132,0,0,1,1.812,1.359Z" fill="#008ef0"/>
</svg>
