<svg width="84" height="84" viewBox="0 0 84 84" fill="none" xmlns="http://www.w3.org/2000/svg">
<g filter="url(#filter0_ddi)">
<circle cx="42" cy="40" r="36" fill="url(#paint0_linear)"/>
</g>
<path d="M30 33C30 30.2386 32.2386 28 35 28H49C51.7614 28 54 30.2386 54 33V47C54 49.7614 51.7614 52 49 52H35C32.2386 52 30 49.7614 30 47V33Z" fill="url(#paint1_linear)"/>
<path d="M58 31.3333C58 29.4924 59.4924 28 61.3333 28C61.7015 28 62 28.2985 62 28.6667V51.3333C62 51.7015 61.7015 52 61.3333 52C59.4924 52 58 50.5076 58 48.6667V31.3333Z" fill="#A1CFF8"/>
<path d="M22 28.6667C22 28.2985 22.2985 28 22.6667 28C24.5076 28 26 29.4924 26 31.3333V48.6667C26 50.5076 24.5076 52 22.6667 52C22.2985 52 22 51.7015 22 51.3333V28.6667Z" fill="#A1CFF8"/>
<path fill-rule="evenodd" clip-rule="evenodd" d="M42.75 39.1201V34L39 41.6L41.2501 40.88V46L45.0001 38.4L42.75 39.1201Z" fill="white"/>
<defs>
<filter id="filter0_ddi" x="0" y="0" width="84" height="84" filterUnits="userSpaceOnUse" color-interpolation-filters="sRGB">
<feFlood flood-opacity="0" result="BackgroundImageFix"/>
<feColorMatrix in="SourceAlpha" type="matrix" values="0 0 0 0 0 0 0 0 0 0 0 0 0 0 0 0 0 0 127 0"/>
<feOffset dy="2"/>
<feGaussianBlur stdDeviation="3"/>
<feColorMatrix type="matrix" values="0 0 0 0 0.38 0 0 0 0 0.44 0 0 0 0 0.5 0 0 0 0.1 0"/>
<feBlend mode="normal" in2="BackgroundImageFix" result="effect1_dropShadow"/>
<feColorMatrix in="SourceAlpha" type="matrix" values="0 0 0 0 0 0 0 0 0 0 0 0 0 0 0 0 0 0 127 0"/>
<feOffset dy="1"/>
<feColorMatrix type="matrix" values="0 0 0 0 0.38 0 0 0 0 0.44 0 0 0 0 0.5 0 0 0 0.2 0"/>
<feBlend mode="normal" in2="effect1_dropShadow" result="effect2_dropShadow"/>
<feBlend mode="normal" in="SourceGraphic" in2="effect2_dropShadow" result="shape"/>
<feColorMatrix in="SourceAlpha" type="matrix" values="0 0 0 0 0 0 0 0 0 0 0 0 0 0 0 0 0 0 127 0" result="hardAlpha"/>
<feOffset dy="-1"/>
<feComposite in2="hardAlpha" operator="arithmetic" k2="-1" k3="1"/>
<feColorMatrix type="matrix" values="0 0 0 0 0.38 0 0 0 0 0.44 0 0 0 0 0.5 0 0 0 0.1 0"/>
<feBlend mode="normal" in2="shape" result="effect3_innerShadow"/>
</filter>
<linearGradient id="paint0_linear" x1="42" y1="4" x2="42" y2="76" gradientUnits="userSpaceOnUse">
<stop stop-color="white"/>
<stop offset="1" stop-color="#FAFBFC"/>
</linearGradient>
<linearGradient id="paint1_linear" x1="42" y1="28" x2="42" y2="52" gradientUnits="userSpaceOnUse">
<stop stop-color="#019DE0"/>
<stop offset="1" stop-color="#0174E0"/>
</linearGradient>
</defs>
</svg>
