<svg width="66" height="53" viewBox="0 0 66 53" fill="none" xmlns="http://www.w3.org/2000/svg">
<path d="M21.5385 24.7853C24.1026 25.9284 26.1026 27.6431 27.5385 29.9294C28.9744 32.2157 29.6923 34.9176 29.6923 38.0353C29.6923 42.5039 28.3077 46.1412 25.5385 48.9471C22.7692 51.649 19.2308 53 14.9231 53C10.6154 53 7.02564 51.5971 4.15385 48.7912C1.38462 45.9853 0 42.4 0 38.0353C0 35.9569 0.25641 33.8784 0.76923 31.8C1.28205 29.7216 2.41026 26.6039 4.15385 22.4471L13.0769 0L28.3077 0L21.5385 24.7853ZM57.8461 24.7853C60.4103 25.9284 62.4103 27.6431 63.8462 29.9294C65.2821 32.2157 66 34.9176 66 38.0353C66 42.5039 64.6154 46.1412 61.8462 48.9471C59.0769 51.649 55.5385 53 51.2308 53C46.9231 53 43.3333 51.5971 40.4615 48.7912C37.6923 45.9853 36.3077 42.4 36.3077 38.0353C36.3077 35.9569 36.5641 33.8784 37.0769 31.8C37.5897 29.7216 38.7179 26.6039 40.4615 22.4471L49.3846 0L64.6154 0L57.8461 24.7853Z" fill="#EB3B62"/>
</svg>
