<svg width="490" height="490" viewBox="0 0 490 490" fill="none" xmlns="http://www.w3.org/2000/svg">
<g clip-path="url(#clip0_705:1365)">
<path d="M244.9 0C109.8 0 0 109.8 0 244.9C0 380 109.9 489.8 244.9 489.8C380 489.8 489.8 379.9 489.8 244.9C489.8 109.8 380 0 244.9 0ZM244.9 455.5C128.8 455.5 34.3 361 34.3 244.9C34.3 128.8 128.8 34.3 244.9 34.3C361 34.3 455.5 128.8 455.5 244.9C455.5 361 361 455.5 244.9 455.5Z" fill="white"/>
<path d="M375.899 230.5L200.099 117.7C194.799 114.3 188.099 114.1 182.599 117.1C177.099 120.1 173.699 125.9 173.699 132.1V357.6C173.699 363.9 177.099 369.6 182.599 372.6C185.199 374 187.999 374.7 190.799 374.7C193.999 374.7 197.199 373.8 200.099 372L375.899 259.3C380.799 256.1 383.799 250.7 383.799 244.9C383.699 239.1 380.799 233.6 375.899 230.5ZM207.899 326.3V163.5L334.799 244.9L207.899 326.3Z" fill="white"/>
<path d="M188.876 151.605L367.272 230.73L204.844 346.107L188.876 151.605Z" fill="white"/>
</g>
<defs>
<clipPath id="clip0_705:1365">
<rect width="489.8" height="489.8" fill="white"/>
</clipPath>
</defs>
</svg>
