<svg width="27" height="26" viewBox="0 0 27 26" fill="none" xmlns="http://www.w3.org/2000/svg">
<path d="M25.1549 11.1319L23.0739 9.45894C22.912 9.32843 22.7856 9.15923 22.7065 8.96697C22.6273 8.77471 22.5979 8.56559 22.6209 8.35894L22.9099 5.69994C22.9482 5.34788 22.907 4.99171 22.7894 4.65768C22.6717 4.32365 22.4806 4.02028 22.2302 3.76992C21.9797 3.51955 21.6763 3.32858 21.3422 3.21107C21.0081 3.09356 20.6519 3.0525 20.2999 3.09094L17.6419 3.37594C17.4352 3.39896 17.2261 3.36953 17.0339 3.29035C16.8416 3.21117 16.6724 3.08481 16.5419 2.92294L14.8669 0.843938C14.6376 0.579059 14.3541 0.3666 14.0355 0.220983C13.7169 0.0753663 13.3707 0 13.0204 0C12.6701 0 12.3239 0.0753663 12.0053 0.220983C11.6867 0.3666 11.4031 0.579059 11.1739 0.843938L9.49988 2.92394C9.36981 3.08631 9.20067 3.21304 9.00829 3.29227C8.81592 3.37149 8.60658 3.40062 8.39988 3.37694L5.74588 3.09094C5.3936 3.05202 5.03708 3.09271 4.70263 3.21C4.36818 3.32729 4.06433 3.5182 3.81353 3.76862C3.56272 4.01904 3.37135 4.32259 3.25355 4.65687C3.13574 4.99114 3.09451 5.3476 3.13288 5.69994L3.42188 8.35494C3.44548 8.56163 3.4163 8.77093 3.33708 8.96329C3.25787 9.15565 3.13119 9.3248 2.96888 9.45494L0.884885 11.1319C0.608675 11.3539 0.385789 11.6351 0.232644 11.9546C0.0795002 12.2742 0 12.6241 0 12.9784C0 13.3328 0.0795002 13.6827 0.232644 14.0022C0.385789 14.3218 0.608675 14.6029 0.884885 14.8249L2.96588 16.4999C3.12812 16.6301 3.25474 16.7993 3.33395 16.9916C3.41316 17.184 3.44238 17.3933 3.41888 17.5999L3.12988 20.2529C3.09088 20.6055 3.13162 20.9623 3.24908 21.297C3.36654 21.6317 3.55772 21.9357 3.80849 22.1866C4.05926 22.4375 4.36321 22.6288 4.69786 22.7463C5.03251 22.8639 5.38931 22.9048 5.74188 22.8659L8.39988 22.5769C8.60654 22.5538 8.81569 22.5832 9.00797 22.6624C9.20025 22.7416 9.36944 22.868 9.49988 23.0299L11.1759 25.1139C11.3979 25.3901 11.679 25.613 11.9986 25.7662C12.3182 25.9193 12.668 25.9988 13.0224 25.9988C13.3768 25.9988 13.7266 25.9193 14.0462 25.7662C14.3657 25.613 14.6469 25.3901 14.8689 25.1139L16.5419 23.0329C16.6724 22.8711 16.8416 22.7447 17.0339 22.6655C17.2261 22.5863 17.4352 22.5569 17.6419 22.5799L20.2969 22.8689C20.6494 22.9079 21.0063 22.8672 21.341 22.7497C21.6757 22.6323 21.9797 22.4411 22.2305 22.1903C22.4814 21.9396 22.6727 21.6356 22.7903 21.301C22.9079 20.9663 22.9487 20.6095 22.9099 20.2569L22.6189 17.5999C22.5951 17.3932 22.6242 17.1839 22.7034 16.9915C22.7827 16.7991 22.9094 16.63 23.0719 16.4999L25.1529 14.8269C25.4291 14.6049 25.652 14.3238 25.8051 14.0042C25.9583 13.6847 26.0378 13.3348 26.0378 12.9804C26.0378 12.6261 25.9583 12.2762 25.8051 11.9566C25.652 11.6371 25.4291 11.3559 25.1529 11.1339L25.1549 11.1319ZM13.4729 16.4509C13.2989 16.6775 13.079 16.8645 12.8274 16.9999C12.5759 17.1352 12.2986 17.2156 12.0137 17.236C11.7288 17.2563 11.4429 17.216 11.1747 17.1177C10.9065 17.0195 10.6622 16.8655 10.4579 16.6659L7.69088 13.9059C7.58 13.8022 7.49112 13.6772 7.42953 13.5385C7.36794 13.3997 7.33489 13.2499 7.33236 13.0981C7.32983 12.9463 7.35786 12.7955 7.41479 12.6548C7.47173 12.514 7.55639 12.3862 7.66376 12.2788C7.77112 12.1714 7.89898 12.0868 8.03974 12.0298C8.18049 11.9729 8.33126 11.9449 8.48307 11.9474C8.63488 11.9499 8.78463 11.983 8.92341 12.0446C9.06219 12.1062 9.18716 12.1951 9.29088 12.3059L11.8399 14.8549L16.2659 8.95494C16.4461 8.71465 16.7144 8.5558 17.0117 8.51332C17.3091 8.47084 17.6111 8.54822 17.8514 8.72844C18.0917 8.90865 18.2505 9.17694 18.293 9.47428C18.3355 9.77162 18.2581 10.0737 18.0779 10.3139L13.4729 16.4509Z" fill="#6DD6B0"/>
</svg>
