<svg width="160" height="27" viewBox="0 0 160 27" fill="none" xmlns="http://www.w3.org/2000/svg">
<path d="M12.4009 2.40576C12.7309 1.55427 13.9357 1.55427 14.2657 2.40576L16.4703 8.09373C16.6122 8.4598 16.9551 8.70898 17.3471 8.7308L23.4379 9.06975C24.3497 9.12049 24.722 10.2663 24.0142 10.8433L19.2859 14.6976C18.9815 14.9457 18.8505 15.3489 18.9509 15.7284L20.5107 21.6259C20.7442 22.5087 19.7695 23.2169 19.0021 22.722L13.8753 19.4161C13.5453 19.2033 13.1214 19.2033 12.7914 19.4161L7.66461 22.722C6.89713 23.2169 5.92242 22.5087 6.15593 21.6259L7.71573 15.7284C7.81612 15.3489 7.68512 14.9457 7.3808 14.6976L2.65246 10.8433C1.94463 10.2663 2.31693 9.12049 3.22873 9.06975L9.31954 8.7308C9.71154 8.70898 10.0545 8.4598 10.1964 8.09373L12.4009 2.40576Z" fill="#FFAA00"/>
<path d="M45.7342 2.40576C46.0643 1.55427 47.2691 1.55427 47.5991 2.40576L49.8036 8.09373C49.9455 8.4598 50.2885 8.70898 50.6805 8.7308L56.7713 9.06975C57.6831 9.12049 58.0554 10.2663 57.3475 10.8433L52.6192 14.6976C52.3149 14.9457 52.1839 15.3489 52.2843 15.7284L53.8441 21.6259C54.0776 22.5087 53.1029 23.2169 52.3354 22.722L47.2086 19.4161C46.8786 19.2033 46.4547 19.2033 46.1247 19.4161L40.9979 22.722C40.2305 23.2169 39.2558 22.5087 39.4893 21.6259L41.0491 15.7284C41.1495 15.3489 41.0184 14.9457 40.7141 14.6976L35.9858 10.8433C35.278 10.2663 35.6503 9.12049 36.5621 9.06975L42.6529 8.7308C43.0449 8.70898 43.3878 8.4598 43.5297 8.09373L45.7342 2.40576Z" fill="#FFAA00"/>
<path d="M79.0676 2.40576C79.3976 1.55427 80.6024 1.55427 80.9324 2.40576L83.1369 8.09373C83.2788 8.4598 83.6218 8.70898 84.0138 8.7308L90.1046 9.06975C91.0164 9.12049 91.3887 10.2663 90.6809 10.8433L85.9525 14.6976C85.6482 14.9457 85.5172 15.3489 85.6176 15.7284L87.1774 21.6259C87.4109 22.5087 86.4362 23.2169 85.6687 22.722L80.5419 19.4161C80.212 19.2033 79.788 19.2033 79.4581 19.4161L74.3313 22.722C73.5638 23.2169 72.5891 22.5087 72.8226 21.6259L74.3824 15.7284C74.4828 15.3489 74.3518 14.9457 74.0475 14.6976L69.3191 10.8433C68.6113 10.2663 68.9836 9.12049 69.8954 9.06975L75.9862 8.7308C76.3782 8.70898 76.7212 8.4598 76.8631 8.09373L79.0676 2.40576Z" fill="#FFAA00"/>
<path d="M112.401 2.40576C112.731 1.55427 113.936 1.55427 114.266 2.40576L116.47 8.09373C116.612 8.4598 116.955 8.70898 117.347 8.7308L123.438 9.06975C124.35 9.12049 124.722 10.2663 124.014 10.8433L119.286 14.6976C118.982 14.9457 118.851 15.3489 118.951 15.7284L120.511 21.6259C120.744 22.5087 119.77 23.2169 119.002 22.722L113.875 19.4161C113.545 19.2033 113.121 19.2033 112.791 19.4161L107.665 22.722C106.897 23.2169 105.922 22.5087 106.156 21.6259L107.716 15.7284C107.816 15.3489 107.685 14.9457 107.381 14.6976L102.652 10.8433C101.945 10.2663 102.317 9.12049 103.229 9.06975L109.32 8.7308C109.712 8.70898 110.055 8.4598 110.196 8.09373L112.401 2.40576Z" fill="#FFAA00"/>
<path d="M145.734 2.40576C146.064 1.55427 147.269 1.55427 147.599 2.40576L149.804 8.09373C149.945 8.4598 150.288 8.70898 150.68 8.7308L156.771 9.06975C157.683 9.12049 158.055 10.2663 157.348 10.8433L152.619 14.6976C152.315 14.9457 152.184 15.3489 152.284 15.7284L153.844 21.6259C154.078 22.5087 153.103 23.2169 152.335 22.722L147.209 19.4161C146.879 19.2033 146.455 19.2033 146.125 19.4161L140.998 22.722C140.23 23.2169 139.256 22.5087 139.489 21.6259L141.049 15.7284C141.149 15.3489 141.018 14.9457 140.714 14.6976L135.986 10.8433C135.278 10.2663 135.65 9.12049 136.562 9.06975L142.653 8.7308C143.045 8.70898 143.388 8.4598 143.53 8.09373L145.734 2.40576Z" fill="#FFAA00"/>
</svg>
