<svg width="20" height="20" viewBox="0 0 20 20" fill="none" xmlns="http://www.w3.org/2000/svg">
<path d="M20 10C20 15.5228 15.5228 20 10 20C4.47715 20 0 15.5228 0 10C0 4.47715 4.47715 0 10 0C15.5228 0 20 4.47715 20 10Z" fill="#25278F" fill-opacity="0.2"/>
<path d="M8.59075 12.0223L6.86815 10.2997C6.67621 10.1078 6.37106 10.1078 6.17912 10.2997C5.98717 10.4917 5.98717 10.7968 6.17912 10.9887L8.24131 13.0509C8.43325 13.2429 8.74332 13.2429 8.93527 13.0509L14.1523 7.83886C14.3442 7.64691 14.3442 7.34177 14.1523 7.14982C13.9603 6.95787 13.6552 6.95787 13.4632 7.14982L8.59075 12.0223Z" fill="#25278F"/>
</svg>
